<svg width="593" height="1140" viewBox="0 0 593 1140" fill="none" xmlns="http://www.w3.org/2000/svg">
<path d="M598.527 113.453L592.475 133.404L598.634 139.971L618.932 135.206L612.798 128.666L601.211 131.356L604.661 119.992L598.527 113.453Z" fill="#8855F1"/>
<path d="M368.059 592.676L374.086 572.697L367.952 566.157L347.629 570.896L353.763 577.435L365.35 574.745L361.9 586.109L368.059 592.676Z" fill="#8855F1"/>
<path d="M388.671 587.919L382.671 607.872L388.805 614.412L409.101 609.699L402.942 603.132L391.381 605.849L394.805 594.458L388.671 587.919Z" fill="#8855F1"/>
<path d="M434.639 585.743L440.666 565.764L434.532 559.225L414.209 563.963L420.343 570.503L431.93 567.813L428.48 579.177L434.639 585.743Z" fill="#8855F1"/>
<path d="M419.558 607.157L410.562 560.072L404.083 566.15L413.078 613.235L419.558 607.157Z" fill="#02D4E4"/>
<path d="M455.088 581.139L449.061 601.118L455.195 607.657L475.519 602.919L469.359 596.353L457.798 599.069L461.222 587.679L455.088 581.139Z" fill="#8855F1"/>
<path d="M501.032 578.987L507.059 559.008L500.925 552.468L480.602 557.207L486.736 563.746L498.322 561.056L494.872 572.42L501.032 578.987Z" fill="#8855F1"/>
<path d="M485.948 600.403L476.952 553.317L470.5 559.37L479.468 606.481L485.948 600.403Z" fill="#02D4E4"/>
<path d="M444.082 646.99L438.082 666.943L444.216 673.483L464.512 668.77L458.352 662.203L446.791 664.92L450.216 653.529L444.082 646.99Z" fill="#8855F1"/>
<path d="M490.05 644.814L496.077 624.835L489.943 618.296L469.62 623.034L475.754 629.574L487.34 626.884L483.89 638.248L490.05 644.814Z" fill="#8855F1"/>
<path d="M474.966 666.226L465.971 619.141L459.491 625.219L468.487 672.304L474.966 666.226Z" fill="#02D4E4"/>
<path d="M423.658 651.566L429.658 631.613L423.524 625.073L403.228 629.786L409.362 636.326L420.921 633.661L417.498 645L423.658 651.566Z" fill="#8855F1"/>
<path d="M521.483 574.385L515.456 594.364L521.59 600.903L541.913 596.165L535.754 589.599L524.193 592.315L527.617 580.924L521.483 574.385Z" fill="#8855F1"/>
<path d="M567.455 572.206L573.482 552.227L567.348 545.688L547.025 550.426L553.159 556.965L564.745 554.276L561.295 565.639L567.455 572.206Z" fill="#8855F1"/>
<path d="M552.369 593.62L543.373 546.534L536.894 552.612L545.889 599.697L552.369 593.62Z" fill="#02D4E4"/>
<path d="M257.483 474.256L263.536 454.304L257.376 447.738L237.079 452.503L243.213 459.043L254.799 456.353L251.349 467.717L257.483 474.256Z" fill="#8855F1"/>
<path d="M277.958 469.679L271.931 489.658L278.065 496.197L298.363 491.432L292.229 484.893L280.668 487.61L284.092 476.219L277.958 469.679Z" fill="#8855F1"/>
<path d="M323.876 467.5L329.928 447.548L323.794 441.009L303.471 445.747L309.605 452.286L321.192 449.597L317.742 460.961L323.876 467.5Z" fill="#8855F1"/>
<path d="M308.816 488.94L299.82 441.855L293.341 447.933L302.336 495.018L308.816 488.94Z" fill="#02D4E4"/>
<path d="M312.892 533.325L318.945 513.373L312.785 506.807L292.487 511.572L298.621 518.112L310.208 515.422L306.758 526.786L312.892 533.325Z" fill="#8855F1"/>
<path d="M366.266 331.322L360.213 351.274L366.373 357.84L386.67 353.075L380.536 346.535L368.95 349.225L372.4 337.861L366.266 331.322Z" fill="#8855F1"/>
<path d="M412.181 329.144L418.234 309.193L412.074 302.626L391.776 307.392L397.911 313.931L409.497 311.241L406.047 322.605L412.181 329.144Z" fill="#8855F1"/>
<path d="M397.123 350.583L388.127 303.498L381.648 309.576L390.643 356.661L397.123 350.583Z" fill="#02D4E4"/>
<path d="M355.253 397.174L349.226 417.153L355.36 423.692L375.658 418.927L369.524 412.387L357.963 415.104L361.387 403.713L355.253 397.174Z" fill="#8855F1"/>
<path d="M401.2 394.968L407.252 375.016L401.118 368.476L380.795 373.215L386.929 379.754L398.515 377.064L395.066 388.428L401.2 394.968Z" fill="#8855F1"/>
<path d="M386.139 416.408L377.143 369.323L370.664 375.401L379.659 422.486L386.139 416.408Z" fill="#02D4E4"/>
<path d="M288.86 403.93L282.808 423.882L288.968 430.448L309.265 425.683L303.131 419.144L291.545 421.833L294.995 410.47L288.86 403.93Z" fill="#8855F1"/>
<path d="M334.779 401.751L340.831 381.799L334.671 375.233L314.374 379.998L320.508 386.537L332.094 383.848L328.644 395.211L334.779 401.751Z" fill="#8855F1"/>
<path d="M319.718 423.192L310.722 376.106L304.27 382.159L313.238 429.27L319.718 423.192Z" fill="#02D4E4"/>
<path d="M432.818 324.415L426.818 344.369L432.953 350.908L453.223 346.168L447.089 339.629L435.528 342.345L438.952 330.954L432.818 324.415Z" fill="#8855F1"/>
<path d="M478.763 322.21L484.816 302.259L478.682 295.719L458.359 300.458L464.493 306.997L476.079 304.307L472.629 315.671L478.763 322.21Z" fill="#8855F1"/>
<path d="M463.703 343.651L454.707 296.565L448.228 302.643L457.223 349.729L463.703 343.651Z" fill="#02D4E4"/>
<path d="M499.238 317.633L493.185 337.585L499.345 344.152L519.643 339.386L513.508 332.847L501.947 335.564L505.372 324.173L499.238 317.633Z" fill="#8855F1"/>
<path d="M545.156 315.454L551.208 295.502L545.049 288.936L524.751 293.701L530.885 300.241L542.472 297.551L539.022 308.915L545.156 315.454Z" fill="#8855F1"/>
<path d="M530.097 336.897L521.101 289.812L514.649 295.864L523.644 342.95L530.097 336.897Z" fill="#02D4E4"/>
<path d="M488.229 383.486L482.229 403.44L488.363 409.979L508.634 405.239L502.5 398.7L490.939 401.416L494.363 390.026L488.229 383.486Z" fill="#8855F1"/>
<path d="M534.174 381.281L540.226 361.33L534.092 354.79L513.769 359.529L519.903 366.068L531.49 363.378L528.04 374.742L534.174 381.281Z" fill="#8855F1"/>
<path d="M519.113 402.722L510.118 355.637L503.638 361.715L512.634 408.8L519.113 402.722Z" fill="#02D4E4"/>
<path d="M421.835 390.24L415.783 410.192L421.942 416.758L442.24 411.993L436.106 405.453L424.545 408.17L427.969 396.779L421.835 390.24Z" fill="#8855F1"/>
<path d="M467.78 388.035L473.805 368.109L467.645 361.543L447.375 366.283L453.509 372.822L465.095 370.132L461.645 381.496L467.78 388.035Z" fill="#8855F1"/>
<path d="M452.694 409.503L443.726 362.393L437.246 368.471L446.242 415.556L452.694 409.503Z" fill="#02D4E4"/>
<path d="M344.35 462.923L338.298 482.875L344.458 489.441L364.755 484.676L358.621 478.136L347.06 480.853L350.485 469.462L344.35 462.923Z" fill="#8855F1"/>
<path d="M390.269 460.743L396.321 440.791L390.162 434.225L369.864 438.99L375.998 445.53L387.611 442.815L384.135 454.204L390.269 460.743Z" fill="#8855F1"/>
<path d="M375.21 482.187L366.214 435.101L359.762 441.154L368.757 488.239L375.21 482.187Z" fill="#02D4E4"/>
<path d="M410.745 456.169L404.718 476.147L410.852 482.687L431.15 477.921L425.016 471.382L413.455 474.099L416.879 462.708L410.745 456.169Z" fill="#8855F1"/>
<path d="M456.689 453.964L462.742 434.013L456.608 427.473L436.285 432.212L442.419 438.751L454.005 436.061L450.555 447.425L456.689 453.964Z" fill="#8855F1"/>
<path d="M441.629 475.405L432.634 428.32L426.154 434.398L435.15 481.483L441.629 475.405Z" fill="#02D4E4"/>
<path d="M399.761 521.994L393.734 541.973L399.868 548.512L420.191 543.774L414.032 537.207L402.471 539.924L405.895 528.533L399.761 521.994Z" fill="#8855F1"/>
<path d="M445.705 519.841L451.732 499.863L445.598 493.323L425.275 498.062L431.409 504.601L443.022 501.886L439.545 513.275L445.705 519.841Z" fill="#8855F1"/>
<path d="M430.618 541.255L421.623 494.17L415.17 500.223L424.166 547.308L430.618 541.255Z" fill="#02D4E4"/>
<path d="M333.369 528.75L327.342 548.729L333.476 555.268L353.773 550.503L347.639 543.964L336.078 546.681L339.503 535.29L333.369 528.75Z" fill="#8855F1"/>
<path d="M379.287 526.571L385.339 506.619L379.205 500.08L358.882 504.818L365.016 511.357L376.602 508.668L373.153 520.032L379.287 526.571Z" fill="#8855F1"/>
<path d="M364.226 548.011L355.231 500.926L348.752 507.004L357.747 554.089L364.226 548.011Z" fill="#02D4E4"/>
<path d="M477.327 449.234L471.301 469.213L477.435 475.752L497.758 471.014L491.598 464.448L480.037 467.164L483.462 455.774L477.327 449.234Z" fill="#8855F1"/>
<path d="M523.297 447.057L529.297 427.103L523.163 420.564L502.867 425.277L509.001 431.816L520.588 429.127L517.138 440.491L523.297 447.057Z" fill="#8855F1"/>
<path d="M508.184 468.496L499.216 421.385L492.736 427.463L501.732 474.549L508.184 468.496Z" fill="#02D4E4"/>
<path d="M543.719 442.478L537.72 462.432L543.854 468.971L564.15 464.258L557.99 457.692L546.429 460.409L549.854 449.018L543.719 442.478Z" fill="#8855F1"/>
<path d="M589.69 440.301L595.716 420.322L589.582 413.783L569.259 418.521L575.394 425.06L586.98 422.37L583.53 433.734L589.69 440.301Z" fill="#8855F1"/>
<path d="M574.606 461.716L565.61 414.631L559.131 420.709L568.126 467.794L574.606 461.716Z" fill="#02D4E4"/>
<path d="M532.736 508.303L526.709 528.282L532.843 534.821L553.166 530.083L547.007 523.517L535.446 526.233L538.87 514.842L532.736 508.303Z" fill="#8855F1"/>
<path d="M578.706 506.126L584.706 486.172L578.572 479.633L558.276 484.346L564.41 490.885L575.996 488.196L572.547 499.559L578.706 506.126Z" fill="#8855F1"/>
<path d="M563.595 527.567L554.627 480.456L548.147 486.534L557.143 533.62L563.595 527.567Z" fill="#02D4E4"/>
<path d="M466.344 515.059L460.317 535.038L466.451 541.578L486.774 536.839L480.614 530.273L469.053 532.99L472.478 521.599L466.344 515.059Z" fill="#8855F1"/>
<path d="M512.287 512.907L518.314 492.928L512.18 486.389L491.857 491.127L497.991 497.667L509.577 494.977L506.127 506.341L512.287 512.907Z" fill="#8855F1"/>
<path d="M497.203 534.323L488.208 487.238L481.755 493.29L490.724 540.401L497.203 534.323Z" fill="#02D4E4"/>
<path d="M565.632 310.879L559.605 330.858L565.74 337.397L586.037 332.632L579.903 326.093L568.342 328.809L571.766 317.419L565.632 310.879Z" fill="#8855F1"/>
<path d="M611.577 308.675L617.602 288.748L611.468 282.209L591.172 286.922L597.306 293.461L608.892 290.772L605.442 302.136L611.577 308.675Z" fill="#8855F1"/>
<path d="M596.489 330.141L587.521 283.03L581.041 289.108L590.037 336.193L596.489 330.141Z" fill="#02D4E4"/>
<path d="M554.648 376.704L548.621 396.683L554.756 403.223L575.079 398.484L568.919 391.918L557.358 394.635L560.782 383.244L554.648 376.704Z" fill="#8855F1"/>
<path d="M600.592 374.552L606.619 354.573L600.484 348.034L580.161 352.772L586.296 359.312L597.882 356.622L594.432 367.986L600.592 374.552Z" fill="#8855F1"/>
<path d="M585.505 395.966L576.51 348.881L570.057 354.934L579.053 402.019L585.505 395.966Z" fill="#02D4E4"/>
<path d="M599.13 501.549L593.13 521.503L599.264 528.042L619.56 523.329L613.401 516.763L601.84 519.48L605.264 508.089L599.13 501.549Z" fill="#8855F1"/>
<path d="M443.911 258.488L437.859 278.44L444.018 285.006L464.316 280.241L458.181 273.701L446.595 276.391L450.045 265.027L443.911 258.488Z" fill="#8855F1"/>
<path d="M489.829 256.308L495.881 236.357L489.721 229.79L469.424 234.556L475.558 241.095L487.144 238.405L483.694 249.769L489.829 256.308Z" fill="#8855F1"/>
<path d="M474.767 277.75L465.799 230.639L459.319 236.717L468.315 283.802L474.767 277.75Z" fill="#02D4E4"/>
<path d="M521.475 185.73L515.422 205.682L521.582 212.249L541.879 207.483L535.745 200.944L524.159 203.634L527.609 192.27L521.475 185.73Z" fill="#8855F1"/>
<path d="M567.419 183.526L573.471 163.574L567.312 157.008L547.014 161.773L553.148 168.313L564.735 165.623L561.285 176.987L567.419 183.526Z" fill="#8855F1"/>
<path d="M552.334 204.99L543.365 157.879L536.886 163.957L545.881 211.043L552.334 204.99Z" fill="#02D4E4"/>
<path d="M587.894 178.949L581.867 198.928L588.001 205.467L608.298 200.702L602.164 194.163L590.576 196.905L594.028 185.488L587.894 178.949Z" fill="#8855F1"/>
<path d="M618.751 198.21L609.756 151.125L603.276 157.203L612.272 204.288L618.751 198.21Z" fill="#02D4E4"/>
<path d="M576.883 244.799L570.831 264.751L576.99 271.318L597.288 266.552L591.154 260.013L579.593 262.73L583.017 251.339L576.883 244.799Z" fill="#8855F1"/>
<path d="M607.744 264.061L598.776 216.95L592.296 223.028L601.292 270.114L607.744 264.061Z" fill="#02D4E4"/>
<path d="M510.491 251.556L504.464 271.535L510.598 278.074L530.895 273.308L524.761 266.769L513.2 269.486L516.625 258.095L510.491 251.556Z" fill="#8855F1"/>
<path d="M556.409 249.376L562.461 229.424L556.327 222.885L536.004 227.624L542.138 234.163L553.724 231.473L550.275 242.837L556.409 249.376Z" fill="#8855F1"/>
<path d="M541.348 270.817L532.353 223.731L525.873 229.809L534.869 276.895L541.348 270.817Z" fill="#02D4E4"/>
<path d="M135.445 810.876L141.472 790.897L135.338 784.357L115.015 789.096L121.149 795.635L132.735 792.945L129.286 804.309L135.445 810.876Z" fill="#8855F1"/>
<path d="M156.055 806.121L150.028 826.099L156.162 832.639L176.485 827.9L170.326 821.334L158.765 824.051L162.189 812.66L156.055 806.121Z" fill="#8855F1"/>
<path d="M202.027 803.941L208.027 783.988L201.893 777.448L181.597 782.161L187.731 788.701L199.317 786.011L195.868 797.375L202.027 803.941Z" fill="#8855F1"/>
<path d="M186.916 825.382L177.948 778.271L171.468 784.349L180.464 831.435L186.916 825.382Z" fill="#02D4E4"/>
<path d="M222.449 799.363L216.449 819.316L222.583 825.856L242.879 821.143L236.72 814.576L225.186 817.268L228.583 805.902L222.449 799.363Z" fill="#8855F1"/>
<path d="M268.42 797.185L274.447 777.206L268.313 770.667L247.99 775.405L254.124 781.944L265.71 779.255L262.26 790.618L268.42 797.185Z" fill="#8855F1"/>
<path d="M253.336 818.6L244.341 771.515L237.861 777.593L246.856 824.678L253.336 818.6Z" fill="#02D4E4"/>
<path d="M211.466 865.192L205.439 885.171L211.573 891.71L231.896 886.972L225.736 880.405L214.175 883.122L217.6 871.731L211.466 865.192Z" fill="#8855F1"/>
<path d="M257.438 863.012L263.438 843.059L257.303 836.52L237.007 841.233L243.142 847.772L254.728 845.082L251.278 856.446L257.438 863.012Z" fill="#8855F1"/>
<path d="M242.325 884.451L233.357 837.341L226.877 843.419L235.873 890.504L242.325 884.451Z" fill="#02D4E4"/>
<path d="M191.015 869.793L197.041 849.815L190.907 843.275L170.584 848.014L176.718 854.553L188.305 851.863L184.855 863.227L191.015 869.793Z" fill="#8855F1"/>
<path d="M288.871 792.583L282.844 812.562L288.978 819.101L309.301 814.363L303.141 807.797L291.58 810.513L295.005 799.122L288.871 792.583Z" fill="#8855F1"/>
<path d="M334.812 790.433L340.839 770.454L334.705 763.915L314.382 768.653L320.516 775.192L332.129 772.477L328.652 783.866L334.812 790.433Z" fill="#8855F1"/>
<path d="M319.728 811.845L310.732 764.759L304.28 770.812L313.275 817.897L319.728 811.845Z" fill="#02D4E4"/>
<path d="M24.8694 692.456L30.8947 672.53L24.7352 665.963L4.46454 670.703L10.5987 677.243L22.1581 674.578L18.7353 685.917L24.8694 692.456Z" fill="#8855F1"/>
<path d="M45.3169 687.905L39.3169 707.858L45.4511 714.397L65.7217 709.657L59.5876 703.118L48.0266 705.835L51.451 694.444L45.3169 687.905Z" fill="#8855F1"/>
<path d="M91.2618 685.7L97.3141 665.748L91.18 659.208L70.857 663.947L76.9911 670.486L88.5775 667.796L85.1277 679.16L91.2618 685.7Z" fill="#8855F1"/>
<path d="M76.2014 707.14L67.206 660.055L60.7265 666.133L69.7219 713.218L76.2014 707.14Z" fill="#02D4E4"/>
<path d="M80.2779 751.525L86.3032 731.599L80.1437 725.032L59.8731 729.772L66.0072 736.312L77.5666 733.647L74.1438 744.986L80.2779 751.525Z" fill="#8855F1"/>
<path d="M133.623 549.549L127.57 569.5L133.73 576.067L154.027 571.301L147.893 564.762L136.307 567.452L139.757 556.088L133.623 549.549Z" fill="#8855F1"/>
<path d="M179.569 547.342L185.621 527.391L179.462 520.824L159.164 525.59L165.298 532.129L176.885 529.439L173.435 540.803L179.569 547.342Z" fill="#8855F1"/>
<path d="M164.508 568.783L155.513 521.698L149.033 527.776L158.029 574.861L164.508 568.783Z" fill="#02D4E4"/>
<path d="M122.641 615.372L116.614 635.351L122.748 641.89L143.046 637.125L136.911 630.586L125.35 633.302L128.775 621.911L122.641 615.372Z" fill="#8855F1"/>
<path d="M168.557 613.195L174.609 593.243L168.475 586.704L148.152 591.442L154.286 597.981L165.899 595.266L162.423 606.655L168.557 613.195Z" fill="#8855F1"/>
<path d="M153.498 634.634L144.502 587.548L138.05 593.601L147.045 640.686L153.498 634.634Z" fill="#02D4E4"/>
<path d="M56.2483 622.128L50.196 642.08L56.3555 648.647L76.6531 643.881L70.519 637.342L58.9326 640.032L62.3824 628.668L56.2483 622.128Z" fill="#8855F1"/>
<path d="M102.166 619.949L108.219 599.997L102.059 593.431L81.7616 598.196L87.8957 604.736L99.4821 602.046L96.0323 613.41L102.166 619.949Z" fill="#8855F1"/>
<path d="M87.1058 641.39L78.1103 594.304L71.6579 600.357L80.6263 647.468L87.1058 641.39Z" fill="#02D4E4"/>
<path d="M200.205 542.615L194.178 562.593L200.312 569.133L220.609 564.367L214.475 557.828L202.914 560.545L206.339 549.154L200.205 542.615Z" fill="#8855F1"/>
<path d="M246.149 540.41L252.174 520.484L246.04 513.945L225.744 518.657L231.878 525.197L243.465 522.507L240.015 533.871L246.149 540.41Z" fill="#8855F1"/>
<path d="M231.062 561.876L222.093 514.766L215.614 520.844L224.609 567.929L231.062 561.876Z" fill="#02D4E4"/>
<path d="M266.596 535.859L260.571 555.785L266.731 562.351L287.001 557.611L280.867 551.072L269.306 553.789L272.731 542.398L266.596 535.859Z" fill="#8855F1"/>
<path d="M297.483 555.097L288.488 508.011L282.008 514.089L291.004 561.175L297.483 555.097Z" fill="#02D4E4"/>
<path d="M255.615 601.686L249.588 621.664L255.722 628.204L276.02 623.438L269.886 616.899L258.325 619.616L261.749 608.225L255.615 601.686Z" fill="#8855F1"/>
<path d="M301.56 599.481L307.585 579.555L301.451 573.016L281.155 577.729L287.289 584.268L298.875 581.578L295.425 592.942L301.56 599.481Z" fill="#8855F1"/>
<path d="M286.472 620.947L277.504 573.837L271.024 579.915L280.019 627L286.472 620.947Z" fill="#02D4E4"/>
<path d="M189.22 608.44L183.168 628.392L189.328 634.958L209.625 630.193L203.491 623.653L191.93 626.37L195.355 614.979L189.22 608.44Z" fill="#8855F1"/>
<path d="M235.139 606.26L241.191 586.309L235.031 579.742L214.734 584.508L220.868 591.047L232.454 588.357L229.004 599.721L235.139 606.26Z" fill="#8855F1"/>
<path d="M220.08 627.703L211.085 580.618L204.632 586.671L213.601 633.781L220.08 627.703Z" fill="#02D4E4"/>
<path d="M111.736 681.123L105.684 701.075L111.844 707.641L132.141 702.876L126.007 696.336L114.446 699.053L117.87 687.662L111.736 681.123Z" fill="#8855F1"/>
<path d="M157.655 678.943L163.707 658.991L157.548 652.425L137.25 657.19L143.384 663.73L154.97 661.04L151.521 672.404L157.655 678.943Z" fill="#8855F1"/>
<path d="M142.596 700.386L133.6 653.301L127.148 659.353L136.116 706.464L142.596 700.386Z" fill="#02D4E4"/>
<path d="M178.131 674.368L172.104 694.347L178.238 700.887L198.536 696.121L192.402 689.582L180.841 692.299L184.265 680.908L178.131 674.368Z" fill="#8855F1"/>
<path d="M224.076 672.164L230.128 652.212L223.994 645.673L203.671 650.411L209.805 656.951L221.391 654.261L217.941 665.625L224.076 672.164Z" fill="#8855F1"/>
<path d="M208.988 693.63L200.019 646.52L193.54 652.598L202.535 699.683L208.988 693.63Z" fill="#02D4E4"/>
<path d="M167.147 740.194L161.12 760.173L167.254 766.712L187.577 761.974L181.418 755.407L169.857 758.124L173.281 746.733L167.147 740.194Z" fill="#8855F1"/>
<path d="M213.09 738.041L219.117 718.062L212.983 711.523L192.66 716.261L198.794 722.801L210.381 720.111L206.931 731.475L213.09 738.041Z" fill="#8855F1"/>
<path d="M198.005 759.455L189.009 712.37L182.557 718.422L191.525 765.533L198.005 759.455Z" fill="#02D4E4"/>
<path d="M100.728 746.976L94.7276 766.929L100.862 773.468L121.132 768.728L114.998 762.189L103.437 764.906L106.862 753.515L100.728 746.976Z" fill="#8855F1"/>
<path d="M146.673 744.771L152.725 724.819L146.591 718.279L126.268 723.018L132.402 729.557L143.988 726.867L140.539 738.231L146.673 744.771Z" fill="#8855F1"/>
<path d="M131.612 766.211L122.616 719.126L116.137 725.204L125.132 772.289L131.612 766.211Z" fill="#02D4E4"/>
<path d="M244.713 667.434L238.686 687.413L244.82 693.953L265.143 689.214L258.984 682.648L247.423 685.365L250.847 673.974L244.713 667.434Z" fill="#8855F1"/>
<path d="M290.657 665.282L296.684 645.303L290.549 638.764L270.226 643.502L276.361 650.041L287.947 647.352L284.497 658.715L290.657 665.282Z" fill="#8855F1"/>
<path d="M275.57 686.695L266.575 639.61L260.122 645.663L269.091 692.773L275.57 686.695Z" fill="#02D4E4"/>
<path d="M311.106 660.678L305.079 680.657L311.213 687.196L331.536 682.458L325.376 675.891L313.815 678.608L317.24 667.217L311.106 660.678Z" fill="#8855F1"/>
<path d="M357.075 658.501L363.102 638.522L356.968 631.982L336.645 636.721L342.779 643.26L354.366 640.57L350.916 651.934L357.075 658.501Z" fill="#8855F1"/>
<path d="M341.991 679.916L332.996 632.831L326.517 638.909L335.512 685.994L341.991 679.916Z" fill="#02D4E4"/>
<path d="M300.122 726.503L294.095 746.482L300.229 753.021L320.552 748.283L314.392 741.717L302.831 744.433L306.256 733.043L300.122 726.503Z" fill="#8855F1"/>
<path d="M346.065 724.351L352.092 704.372L345.958 697.832L325.635 702.571L331.769 709.11L343.355 706.42L339.906 717.784L346.065 724.351Z" fill="#8855F1"/>
<path d="M330.981 745.767L321.986 698.681L315.533 704.734L324.502 751.845L330.981 745.767Z" fill="#02D4E4"/>
<path d="M233.702 733.285L227.702 753.238L233.836 759.778L254.132 755.065L247.973 748.498L236.439 751.19L239.836 739.824L233.702 733.285Z" fill="#8855F1"/>
<path d="M279.673 731.107L285.7 711.128L279.566 704.589L259.242 709.327L265.377 715.867L276.963 713.177L273.513 724.541L279.673 731.107Z" fill="#8855F1"/>
<path d="M264.589 752.523L255.593 705.438L249.114 711.516L258.109 758.601L264.589 752.523Z" fill="#02D4E4"/>
<path d="M322.007 594.93L316.007 614.883L322.141 621.423L342.437 616.71L336.278 610.143L324.717 612.86L328.141 601.469L322.007 594.93Z" fill="#8855F1"/>
<path d="M352.892 614.165L343.896 567.08L337.417 573.158L346.412 620.243L352.892 614.165Z" fill="#02D4E4"/>
<path d="M377.525 653.897L371.498 673.876L377.632 680.415L397.955 675.677L391.795 669.11L380.234 671.827L383.659 660.436L377.525 653.897Z" fill="#8855F1"/>
<path d="M408.384 673.16L399.389 626.075L392.936 632.127L401.905 679.238L408.384 673.16Z" fill="#02D4E4"/>
<path d="M366.516 719.749L360.489 739.728L366.623 746.267L386.946 741.529L380.787 734.963L369.226 737.679L372.65 726.288L366.516 719.749Z" fill="#8855F1"/>
<path d="M412.486 717.572L418.513 697.593L412.379 691.054L392.056 695.792L398.19 702.331L409.776 699.642L406.327 711.005L412.486 717.572Z" fill="#8855F1"/>
<path d="M397.4 738.985L388.405 691.9L381.925 697.978L390.921 745.063L397.4 738.985Z" fill="#02D4E4"/>
<path d="M211.297 476.688L205.244 496.64L211.404 503.206L231.701 498.441L225.567 491.901L213.981 494.591L217.431 483.227L211.297 476.688Z" fill="#8855F1"/>
<path d="M242.154 495.949L233.159 448.864L226.706 454.916L235.675 502.027L242.154 495.949Z" fill="#02D4E4"/>
<path d="M589.699 828.957L595.726 808.978L589.592 802.439L569.269 807.177L575.403 813.716L586.989 811.027L583.54 822.39L589.699 828.957Z" fill="#8855F1"/>
<path d="M479.123 710.537L485.175 690.585L479.016 684.019L458.718 688.784L464.852 695.324L476.439 692.634L472.989 703.998L479.123 710.537Z" fill="#8855F1"/>
<path d="M499.598 705.96L493.571 725.939L499.705 732.478L520.003 727.713L513.869 721.174L502.308 723.891L505.732 712.5L499.598 705.96Z" fill="#8855F1"/>
<path d="M545.516 703.781L551.568 683.829L545.434 677.29L525.111 682.028L531.245 688.568L542.831 685.878L539.382 697.242L545.516 703.781Z" fill="#8855F1"/>
<path d="M530.455 725.221L521.46 678.136L514.981 684.214L523.976 731.299L530.455 725.221Z" fill="#02D4E4"/>
<path d="M534.532 769.606L540.584 749.655L534.425 743.088L514.127 747.854L520.261 754.393L531.848 751.703L528.398 763.067L534.532 769.606Z" fill="#8855F1"/>
<path d="M587.905 567.603L581.853 587.555L588.013 594.121L608.31 589.356L602.176 582.817L590.59 585.506L594.04 574.142L587.905 567.603Z" fill="#8855F1"/>
<path d="M618.762 586.864L609.767 539.779L603.287 545.857L612.283 592.942L618.762 586.864Z" fill="#02D4E4"/>
<path d="M576.893 633.455L570.866 653.434L577 659.973L597.298 655.208L591.164 648.669L579.603 651.385L583.027 639.994L576.893 633.455Z" fill="#8855F1"/>
<path d="M607.779 652.69L598.783 605.604L592.304 611.682L601.299 658.768L607.779 652.69Z" fill="#02D4E4"/>
<path d="M510.5 640.211L504.448 660.163L510.607 666.73L530.905 661.964L524.771 655.425L513.185 658.115L516.634 646.751L510.5 640.211Z" fill="#8855F1"/>
<path d="M556.418 638.032L562.471 618.08L556.311 611.514L536.014 616.279L542.148 622.819L553.734 620.129L550.284 631.493L556.418 638.032Z" fill="#8855F1"/>
<path d="M541.357 659.473L532.362 612.387L525.91 618.44L534.878 665.551L541.357 659.473Z" fill="#02D4E4"/>
<path d="M565.99 699.204L559.938 719.156L566.097 725.722L586.395 720.957L580.261 714.418L568.7 717.134L572.124 705.743L565.99 699.204Z" fill="#8855F1"/>
<path d="M611.909 697.025L617.961 677.073L611.801 670.506L591.504 675.272L597.638 681.811L609.251 679.096L605.774 690.485L611.909 697.025Z" fill="#8855F1"/>
<path d="M596.849 718.468L587.854 671.382L581.402 677.435L590.397 724.52L596.849 718.468Z" fill="#02D4E4"/>
<path d="M555.008 765.032L548.981 785.01L555.116 791.55L575.413 786.784L569.279 780.245L557.718 782.962L561.142 771.571L555.008 765.032Z" fill="#8855F1"/>
<path d="M600.926 762.852L606.979 742.9L600.844 736.361L580.521 741.099L586.656 747.639L598.242 744.949L594.792 756.313L600.926 762.852Z" fill="#8855F1"/>
<path d="M585.866 784.292L576.871 737.207L570.391 743.285L579.387 790.37L585.866 784.292Z" fill="#02D4E4"/>
<path d="M357.085 1047.16L363.112 1027.18L356.978 1020.64L336.655 1025.38L342.789 1031.92L354.375 1029.23L350.925 1040.59L357.085 1047.16Z" fill="#8855F1"/>
<path d="M377.695 1042.4L371.668 1062.38L377.802 1068.92L398.125 1064.18L391.966 1057.62L380.405 1060.33L383.829 1048.94L377.695 1042.4Z" fill="#8855F1"/>
<path d="M423.667 1040.22L429.666 1020.27L423.532 1013.73L403.236 1018.44L409.37 1024.98L420.957 1022.29L417.507 1033.66L423.667 1040.22Z" fill="#8855F1"/>
<path d="M408.556 1061.66L399.588 1014.55L393.108 1020.63L402.104 1067.72L408.556 1061.66Z" fill="#02D4E4"/>
<path d="M444.089 1035.64L438.089 1055.6L444.223 1062.14L464.519 1057.42L458.36 1050.86L446.826 1053.55L450.223 1042.18L444.089 1035.64Z" fill="#8855F1"/>
<path d="M490.059 1033.47L496.086 1013.49L489.952 1006.95L469.629 1011.69L475.763 1018.23L487.35 1015.54L483.9 1026.9L490.059 1033.47Z" fill="#8855F1"/>
<path d="M474.975 1054.88L465.98 1007.8L459.501 1013.87L468.496 1060.96L474.975 1054.88Z" fill="#02D4E4"/>
<path d="M433.105 1101.47L427.078 1121.45L433.212 1127.99L453.535 1123.25L447.376 1116.69L435.815 1119.4L439.239 1108.01L433.105 1101.47Z" fill="#8855F1"/>
<path d="M479.077 1099.29L485.077 1079.34L478.943 1072.8L458.647 1077.51L464.781 1084.05L476.368 1081.36L472.918 1092.73L479.077 1099.29Z" fill="#8855F1"/>
<path d="M463.965 1120.73L454.996 1073.62L448.517 1079.7L457.512 1126.79L463.965 1120.73Z" fill="#02D4E4"/>
<path d="M412.654 1106.07L418.681 1086.1L412.547 1079.56L392.224 1084.29L398.358 1090.83L409.945 1088.14L406.495 1099.51L412.654 1106.07Z" fill="#8855F1"/>
<path d="M510.51 1028.86L504.483 1048.84L510.618 1055.38L530.941 1050.64L524.781 1044.08L513.22 1046.79L516.645 1035.4L510.51 1028.86Z" fill="#8855F1"/>
<path d="M556.452 1026.71L562.479 1006.73L556.344 1000.2L536.021 1004.93L542.156 1011.47L553.769 1008.76L550.292 1020.15L556.452 1026.71Z" fill="#8855F1"/>
<path d="M541.367 1048.13L532.372 1001.04L525.919 1007.09L534.915 1054.18L541.367 1048.13Z" fill="#02D4E4"/>
<path d="M246.509 928.737L252.534 908.811L246.375 902.244L226.104 906.984L232.238 913.524L243.798 910.859L240.375 922.198L246.509 928.737Z" fill="#8855F1"/>
<path d="M266.957 924.186L260.957 944.139L267.091 950.678L287.361 945.938L281.227 939.399L269.666 942.116L273.091 930.725L266.957 924.186Z" fill="#8855F1"/>
<path d="M312.902 921.981L318.954 902.029L312.82 895.49L292.497 900.228L298.631 906.767L310.217 904.078L306.767 915.441L312.902 921.981Z" fill="#8855F1"/>
<path d="M297.841 943.422L288.846 896.336L282.366 902.414L291.362 949.499L297.841 943.422Z" fill="#02D4E4"/>
<path d="M301.918 987.806L307.943 967.88L301.783 961.313L281.513 966.053L287.647 972.593L299.206 969.928L295.784 981.267L301.918 987.806Z" fill="#8855F1"/>
<path d="M355.262 785.83L349.21 805.782L355.37 812.348L375.667 807.583L369.533 801.043L357.947 803.733L361.396 792.369L355.262 785.83Z" fill="#8855F1"/>
<path d="M401.209 783.624L407.261 763.672L401.102 757.105L380.804 761.871L386.938 768.41L398.525 765.72L395.075 777.084L401.209 783.624Z" fill="#8855F1"/>
<path d="M386.148 805.064L377.153 757.979L370.673 764.057L379.669 811.142L386.148 805.064Z" fill="#02D4E4"/>
<path d="M344.281 851.653L338.254 871.632L344.388 878.172L364.685 873.406L358.551 866.867L346.99 869.584L350.415 858.193L344.281 851.653Z" fill="#8855F1"/>
<path d="M390.197 849.476L396.249 829.524L390.115 822.985L369.792 827.723L375.926 834.262L387.539 831.547L384.062 842.936L390.197 849.476Z" fill="#8855F1"/>
<path d="M375.138 870.915L366.142 823.83L359.69 829.882L368.685 876.968L375.138 870.915Z" fill="#02D4E4"/>
<path d="M277.888 858.41L271.836 878.362L277.995 884.928L298.293 880.163L292.159 873.623L280.572 876.313L284.022 864.949L277.888 858.41Z" fill="#8855F1"/>
<path d="M323.806 856.23L329.859 836.278L323.699 829.712L303.401 834.477L309.535 841.017L321.122 838.327L317.672 849.691L323.806 856.23Z" fill="#8855F1"/>
<path d="M308.746 877.671L299.75 830.585L293.298 836.638L302.266 883.749L308.746 877.671Z" fill="#02D4E4"/>
<path d="M421.844 778.896L415.817 798.875L421.952 805.414L442.249 800.649L436.115 794.109L424.554 796.826L427.978 785.435L421.844 778.896Z" fill="#8855F1"/>
<path d="M467.789 776.692L473.814 756.765L467.68 750.226L447.384 754.939L453.518 761.478L465.104 758.788L461.655 770.152L467.789 776.692Z" fill="#8855F1"/>
<path d="M452.701 798.158L443.733 751.047L437.253 757.125L446.249 804.21L452.701 798.158Z" fill="#02D4E4"/>
<path d="M488.236 772.14L482.211 792.066L488.37 798.633L508.641 793.893L502.507 787.353L490.946 790.07L494.37 778.679L488.236 772.14Z" fill="#8855F1"/>
<path d="M519.123 791.378L510.128 744.292L503.648 750.37L512.644 797.456L519.123 791.378Z" fill="#02D4E4"/>
<path d="M477.255 837.967L471.228 857.946L477.362 864.485L497.66 859.72L491.526 853.18L479.965 855.897L483.389 844.506L477.255 837.967Z" fill="#8855F1"/>
<path d="M523.199 835.763L529.225 815.836L523.091 809.297L502.795 814.01L508.929 820.549L520.515 817.859L517.065 829.223L523.199 835.763Z" fill="#8855F1"/>
<path d="M508.112 857.229L499.144 810.118L492.664 816.196L501.659 863.281L508.112 857.229Z" fill="#02D4E4"/>
<path d="M410.86 844.721L404.808 864.673L410.967 871.239L431.265 866.474L425.131 859.935L413.57 862.652L416.994 851.261L410.86 844.721Z" fill="#8855F1"/>
<path d="M456.778 842.542L462.831 822.59L456.671 816.023L436.374 820.789L442.508 827.328L454.094 824.638L450.644 836.002L456.778 842.542Z" fill="#8855F1"/>
<path d="M441.72 863.984L432.725 816.899L426.272 822.952L435.241 870.062L441.72 863.984Z" fill="#02D4E4"/>
<path d="M333.376 917.404L327.324 937.356L333.483 943.922L353.781 939.157L347.647 932.617L336.086 935.334L339.51 923.943L333.376 917.404Z" fill="#8855F1"/>
<path d="M379.294 915.224L385.346 895.273L379.187 888.706L358.889 893.472L365.023 900.011L376.61 897.321L373.16 908.685L379.294 915.224Z" fill="#8855F1"/>
<path d="M364.235 936.667L355.24 889.582L348.788 895.635L357.756 942.745L364.235 936.667Z" fill="#02D4E4"/>
<path d="M399.771 910.65L393.744 930.628L399.878 937.168L420.176 932.402L414.042 925.863L402.481 928.58L405.905 917.189L399.771 910.65Z" fill="#8855F1"/>
<path d="M445.715 908.445L451.767 888.494L445.633 881.954L425.31 886.693L431.444 893.232L443.031 890.542L439.581 901.906L445.715 908.445Z" fill="#8855F1"/>
<path d="M430.628 929.911L421.659 882.801L415.18 888.879L424.175 935.964L430.628 929.911Z" fill="#02D4E4"/>
<path d="M388.787 976.475L382.76 996.454L388.894 1002.99L409.217 998.255L403.058 991.688L391.497 994.405L394.921 983.014L388.787 976.475Z" fill="#8855F1"/>
<path d="M434.73 974.323L440.757 954.344L434.623 947.804L414.3 952.543L420.434 959.082L432.021 956.392L428.571 967.756L434.73 974.323Z" fill="#8855F1"/>
<path d="M419.644 995.736L410.649 948.651L404.197 954.704L413.165 1001.81L419.644 995.736Z" fill="#02D4E4"/>
<path d="M322.367 983.257L316.367 1003.21L322.501 1009.75L342.772 1005.01L336.638 998.47L325.077 1001.19L328.501 989.796L322.367 983.257Z" fill="#8855F1"/>
<path d="M368.312 981.052L374.365 961.1L368.231 954.561L347.908 959.299L354.042 965.838L365.628 963.149L362.178 974.513L368.312 981.052Z" fill="#8855F1"/>
<path d="M353.252 1002.49L344.256 955.407L337.777 961.485L346.772 1008.57L353.252 1002.49Z" fill="#02D4E4"/>
<path d="M466.353 903.716L460.326 923.694L466.46 930.234L486.783 925.495L480.623 918.929L469.062 921.646L472.487 910.255L466.353 903.716Z" fill="#8855F1"/>
<path d="M512.296 901.563L518.323 881.584L512.189 875.045L491.866 879.783L498 886.323L509.587 883.633L506.137 894.997L512.296 901.563Z" fill="#8855F1"/>
<path d="M497.21 922.977L488.215 875.891L481.762 881.944L490.731 929.055L497.21 922.977Z" fill="#02D4E4"/>
<path d="M532.745 896.959L526.718 916.938L532.852 923.477L553.175 918.739L547.016 912.173L535.455 914.889L538.879 903.498L532.745 896.959Z" fill="#8855F1"/>
<path d="M578.715 894.782L584.742 874.803L578.608 868.264L558.285 873.002L564.419 879.541L576.005 876.852L572.556 888.215L578.715 894.782Z" fill="#8855F1"/>
<path d="M563.631 916.197L554.636 869.112L548.156 875.19L557.152 922.275L563.631 916.197Z" fill="#02D4E4"/>
<path d="M521.761 962.784L515.734 982.763L521.869 989.303L542.192 984.564L536.032 977.998L524.471 980.715L527.895 969.324L521.761 962.784Z" fill="#8855F1"/>
<path d="M567.705 960.632L573.732 940.653L567.598 934.114L547.275 938.852L553.409 945.391L564.995 942.702L561.545 954.065L567.705 960.632Z" fill="#8855F1"/>
<path d="M552.621 982.048L543.626 934.962L537.173 941.015L546.141 988.126L552.621 982.048Z" fill="#02D4E4"/>
<path d="M455.342 969.566L449.342 989.519L455.476 996.059L475.772 991.346L469.613 984.779L458.079 987.471L461.476 976.105L455.342 969.566Z" fill="#8855F1"/>
<path d="M501.312 967.388L507.339 947.409L501.205 940.87L480.882 945.608L487.016 952.148L498.603 949.458L495.153 960.822L501.312 967.388Z" fill="#8855F1"/>
<path d="M486.229 988.804L477.233 941.719L470.754 947.797L479.749 994.882L486.229 988.804Z" fill="#02D4E4"/>
<path d="M543.647 831.211L537.647 851.164L543.781 857.704L564.077 852.991L557.918 846.424L546.357 849.141L549.781 837.75L543.647 831.211Z" fill="#8855F1"/>
<path d="M574.532 850.447L565.536 803.361L559.057 809.439L568.052 856.525L574.532 850.447Z" fill="#02D4E4"/>
<path d="M599.164 890.178L593.137 910.156L599.271 916.696L619.594 911.957L613.435 905.391L601.874 908.108L605.298 896.717L599.164 890.178Z" fill="#8855F1"/>
<path d="M588.156 956.03L582.129 976.009L588.263 982.548L608.586 977.81L602.427 971.243L590.866 973.96L594.29 962.569L588.156 956.03Z" fill="#8855F1"/>
<path d="M619.04 975.266L610.044 928.181L603.565 934.259L612.56 981.344L619.04 975.266Z" fill="#02D4E4"/>
<path d="M432.936 712.969L426.884 732.921L433.044 739.487L453.341 734.722L447.207 728.183L435.621 730.872L439.07 719.508L432.936 712.969Z" fill="#8855F1"/>
<path d="M463.794 732.23L454.798 685.145L448.346 691.197L457.314 738.308L463.794 732.23Z" fill="#02D4E4"/>
</svg>
