<svg width="640" height="553" viewBox="0 0 640 553" fill="none" xmlns="http://www.w3.org/2000/svg">
<path opacity="0.07" d="M215.037 84.2925C213.277 85.2565 211.685 87.5859 211.434 89.6744L172.298 399.977C171.963 402.628 173.639 403.833 175.901 402.628L388.927 284.789C391.106 283.584 392.866 280.451 392.531 278.202L353.311 11.195C353.06 9.34752 351.552 8.78523 349.708 9.74915L215.037 84.2925Z" fill="url(#paint0_linear)"/>
<path opacity="0.4" d="M270.095 88.7108C270.095 56.098 290.04 18.5854 314.595 4.9298C339.149 -8.64545 359.094 6.77732 359.094 39.3901L349.456 44.6916V44.6113C349.456 18.987 333.785 6.85765 314.511 17.5411C295.236 28.2246 279.565 57.7046 279.565 83.3289V83.4092L270.095 88.7108Z" fill="url(#paint1_linear)"/>
<path opacity="0.4" d="M243.782 106.784C244.033 104.695 245.541 102.366 247.385 101.402L381.972 26.8585C383.732 25.8946 385.324 26.4569 385.575 28.3044L424.795 295.231C425.13 297.48 423.454 300.613 421.191 301.818L208.249 419.657C206.07 420.862 204.311 419.657 204.646 417.006L243.782 106.784Z" fill="url(#paint2_linear)"/>
<path opacity="0.3" d="M364.122 147.59L613.435 9.58813L613.351 134.175L386.078 259.967L364.038 291.214L364.122 147.59Z" fill="url(#paint3_linear)"/>
<path d="M640 58.1863V24.3687L545.89 76.4205V110.238L640 58.1863Z" fill="#F2994A"/>
<path opacity="0.15" d="M428.231 142.45L482.87 112.247V123.171L428.231 153.374V142.45Z" fill="white"/>
<path opacity="0.15" d="M428.231 164.298L533.571 106.061V116.986L428.231 175.223V164.298Z" fill="white"/>
<path opacity="0.15" d="M428.147 186.227L555.778 115.62V126.544L428.147 197.152V186.227Z" fill="white"/>
<path d="M414.738 161.246C414.738 171.528 408.369 183.336 400.576 187.673C392.782 192.011 386.413 187.191 386.413 176.91C386.413 166.628 392.782 154.82 400.576 150.482C408.453 146.144 414.738 150.964 414.738 161.246Z" fill="#F2994A"/>
<path opacity="0.3" d="M335.042 290.492L85.6459 428.413L85.5621 553L312.918 427.208L334.875 434.116L335.042 290.492Z" fill="url(#paint4_linear)"/>
<path d="M158.219 450.423V416.605L64.1089 468.657V502.474L158.219 450.423Z" fill="#F2C94C"/>
<path opacity="0.15" d="M270.933 356.28L216.294 386.483V397.407L270.933 367.204V356.28Z" fill="white"/>
<path opacity="0.15" d="M270.85 378.209L172.214 432.751V443.675L270.85 389.133V378.209Z" fill="white"/>
<path opacity="0.15" d="M270.85 400.058L143.219 470.665V481.59L270.85 410.982V400.058Z" fill="white"/>
<path d="M284.342 360.216C284.342 370.497 290.711 375.317 298.504 370.979C306.298 366.642 312.667 354.834 312.667 344.552C312.667 334.27 306.298 329.45 298.504 333.788C290.711 338.126 284.342 350.014 284.342 360.216Z" fill="#F2C94C"/>
<path opacity="0.2" d="M596.506 257.879L425.717 352.344V266.072L596.506 171.608V257.879Z" fill="url(#paint5_linear)"/>
<path d="M460.411 273.623C460.411 266.474 456.053 263.181 450.69 266.072C445.326 269.044 440.969 277.238 440.969 284.306C440.969 291.456 445.326 294.749 450.69 291.857C456.053 288.885 460.411 280.772 460.411 273.623Z" fill="#F2994A"/>
<path opacity="0.15" d="M469.21 296.516L578.992 235.789V224.864L469.21 285.591V296.516Z" fill="white"/>
<path opacity="0.15" d="M469.462 274.105L519.408 246.473V235.549L469.462 263.181V274.105Z" fill="white"/>
<path opacity="0.2" d="M0 372.907L170.79 278.443V364.714L0 459.178V372.907Z" fill="url(#paint6_linear)"/>
<path opacity="0.15" d="M127.296 323.827L85.3948 347.042V357.966L127.296 334.752V323.827Z" fill="white"/>
<path opacity="0.15" d="M127.045 345.436L36.8731 395.238V406.163L126.961 356.28L127.045 345.436Z" fill="white"/>
<path d="M136.095 325.354C136.095 332.503 140.453 335.796 145.816 332.905C151.18 329.932 155.538 321.739 155.538 314.67C155.538 307.521 151.18 304.228 145.816 307.12C140.453 310.011 136.095 318.205 136.095 325.354Z" fill="#F2C94C"/>
<path opacity="0.2" d="M435.773 471.227C492.424 401.504 451.444 376.442 435.773 417.248C420.102 393.872 379.123 464.239 435.773 471.227Z" fill="url(#paint7_linear)"/>
<path opacity="0.2" d="M119.754 146.787C114.725 149.518 110.703 156.265 110.703 161.808V186.308L93.7747 195.626C88.7466 198.357 84.7241 205.104 84.7241 210.727C84.7241 216.27 88.7466 218.519 93.7747 215.788L110.703 206.47V230.969C110.703 236.512 114.725 238.761 119.754 236.03C124.782 233.299 128.804 226.551 128.804 220.929V196.429L145.732 187.111C150.76 184.38 154.783 177.632 154.783 172.09C154.783 166.547 150.76 164.298 145.732 167.029L128.888 176.267V151.767C128.888 146.225 124.782 143.975 119.754 146.787Z" fill="url(#paint8_linear)"/>
<defs>
<linearGradient id="paint0_linear" x1="163.434" y1="167.41" x2="381.519" y2="260.038" gradientUnits="userSpaceOnUse">
<stop stop-color="white"/>
<stop offset="1" stop-color="white" stop-opacity="0"/>
</linearGradient>
<linearGradient id="paint1_linear" x1="293.396" y1="34.0014" x2="430.957" y2="164.04" gradientUnits="userSpaceOnUse">
<stop stop-color="white"/>
<stop offset="1" stop-color="white" stop-opacity="0"/>
</linearGradient>
<linearGradient id="paint2_linear" x1="195.928" y1="137.108" x2="333.489" y2="267.146" gradientUnits="userSpaceOnUse">
<stop stop-color="white"/>
<stop offset="1" stop-color="white" stop-opacity="0"/>
</linearGradient>
<linearGradient id="paint3_linear" x1="418.476" y1="97.6707" x2="543.053" y2="199.432" gradientUnits="userSpaceOnUse">
<stop stop-color="white"/>
<stop offset="1" stop-color="white" stop-opacity="0"/>
</linearGradient>
<linearGradient id="paint4_linear" x1="227.852" y1="294.501" x2="198.195" y2="545.451" gradientUnits="userSpaceOnUse">
<stop stop-color="white"/>
<stop offset="1" stop-color="white" stop-opacity="0"/>
</linearGradient>
<linearGradient id="paint5_linear" x1="530.602" y1="294.342" x2="494.046" y2="228.269" gradientUnits="userSpaceOnUse">
<stop stop-color="white" stop-opacity="0"/>
<stop offset="1" stop-color="white"/>
</linearGradient>
<linearGradient id="paint6_linear" x1="65.9045" y1="336.444" x2="102.461" y2="402.518" gradientUnits="userSpaceOnUse">
<stop stop-color="white"/>
<stop offset="1" stop-color="white" stop-opacity="0"/>
</linearGradient>
<linearGradient id="paint7_linear" x1="423.87" y1="419.899" x2="464.111" y2="456.248" gradientUnits="userSpaceOnUse">
<stop stop-color="white"/>
<stop offset="1" stop-color="white" stop-opacity="0"/>
</linearGradient>
<linearGradient id="paint8_linear" x1="102.252" y1="178.114" x2="144.688" y2="213.054" gradientUnits="userSpaceOnUse">
<stop stop-color="white"/>
<stop offset="1" stop-color="white" stop-opacity="0"/>
</linearGradient>
</defs>
</svg>
