<svg width="211" height="37" viewBox="0 0 211 37" fill="none" xmlns="http://www.w3.org/2000/svg">
<g clip-path="url(#clip0)">
<path d="M79.2492 5.32352e-08C75.5901 -0.000277471 72.013 1.08453 68.9704 3.11725C65.9278 5.14996 63.5563 8.03928 62.1558 11.4198C60.7553 14.8004 60.3888 18.5203 61.1025 22.1091C61.8161 25.698 63.5781 28.9947 66.1654 31.5822C68.7527 34.1697 72.0492 35.9318 75.638 36.6458C79.2268 37.3598 82.9468 36.9935 86.3274 35.5933C89.7081 34.193 92.5976 31.8217 94.6305 28.7793C96.6635 25.7368 97.7485 22.1599 97.7485 18.5007C97.7485 13.5943 95.7995 8.88874 92.3303 5.41923C88.861 1.94971 84.1557 0.000372177 79.2492 5.32352e-08ZM79.2492 28.0829C77.3537 28.0832 75.5006 27.5213 73.9243 26.4684C72.3481 25.4154 71.1195 23.9187 70.394 22.1674C69.6685 20.4162 69.4786 18.4891 69.8483 16.63C70.2181 14.7708 71.1308 13.063 72.4712 11.7227C73.8116 10.3823 75.5193 9.46951 77.3785 9.09977C79.2377 8.73003 81.1647 8.91994 82.916 9.64547C84.6672 10.371 86.1639 11.5996 87.2169 13.1758C88.2698 14.752 88.8317 16.6051 88.8314 18.5007C88.8316 19.7591 88.5839 21.0052 88.1024 22.1679C87.6209 23.3305 86.9151 24.3869 86.0253 25.2768C85.1355 26.1666 84.0791 26.8724 82.9164 27.3539C81.7538 27.8354 80.5076 28.0831 79.2492 28.0829Z" fill="white"/>
<path d="M10.3694 9.93994L0 15.9258V21.0754L10.3694 27.0613V21.9117L4.45925 18.5006L10.3694 15.0881V9.93994Z" fill="#02D4E4"/>
<path d="M45.1973 23.2842C44.1439 25.1126 42.5165 26.5422 40.5676 27.351C38.6186 28.1599 36.4572 28.3029 34.4187 27.7577C32.3802 27.2125 30.5787 26.0096 29.2937 24.3358C28.0088 22.6621 27.3122 20.6109 27.3122 18.5008C27.3122 16.3907 28.0088 14.3396 29.2937 12.6658C30.5787 10.992 32.3802 9.78916 34.4187 9.24396C36.4572 8.69877 38.6186 8.8417 40.5676 9.65057C42.5165 10.4594 44.1439 11.889 45.1973 13.7174H54.7711C53.6105 9.38158 50.9131 5.61557 47.1815 3.12118C43.45 0.626793 38.9388 -0.42583 34.4886 0.159464C30.0385 0.744758 25.9529 2.92804 22.9932 6.30248C20.0335 9.67692 18.4016 14.0123 18.4016 18.5008C18.4016 22.9893 20.0335 27.3247 22.9932 30.6991C25.9529 34.0736 30.0385 36.2569 34.4886 36.8422C38.9388 37.4275 43.45 36.3748 47.1815 33.8804C50.9131 31.386 53.6105 27.62 54.7711 23.2842H45.1973Z" fill="white"/>
<path d="M120.484 0.916252V0.899414H103.729V36.0851H119.837C120.053 36.0921 120.268 36.1006 120.484 36.1006C122.685 36.1006 124.864 35.6671 126.897 34.8249C128.93 33.9827 130.777 32.7483 132.333 31.1922C133.889 29.636 135.123 27.7886 135.965 25.7555C136.807 23.7223 137.241 21.5432 137.241 19.3426V17.6798C137.241 15.4787 136.809 13.299 135.967 11.2652C135.125 9.23141 133.891 7.38335 132.335 5.82662C130.779 4.26988 128.932 3.03498 126.898 2.19244C124.865 1.34991 122.685 0.916252 120.484 0.916252ZM127.954 18.9427C127.954 20.059 127.734 21.1643 127.307 22.1955C126.879 23.2268 126.253 24.1637 125.464 24.9529C124.674 25.7421 123.737 26.3681 122.706 26.7951C121.674 27.2221 120.569 27.4418 119.453 27.4416C119.343 27.4416 119.234 27.4416 119.124 27.4346H113.213V9.57938H119.453V9.5892C120.569 9.58902 121.675 9.80875 122.706 10.2359C123.738 10.663 124.675 11.2891 125.464 12.0784C126.254 12.8678 126.88 13.8049 127.307 14.8363C127.735 15.8677 127.954 16.9732 127.954 18.0896V18.9427Z" fill="white"/>
<path d="M164.817 0.899414L157.004 13.6528L149.193 0.899414H138.283L152.508 23.3809V36.1006H154.946H157.004H161.501V23.3809L175.728 0.899414H164.817Z" fill="white"/>
<path d="M200.107 9.93994V15.0881L206.017 18.5006L200.107 21.9117V27.0613L210.474 21.0754V15.9258L200.107 9.93994Z" fill="#02D4E4"/>
<path d="M181.007 30.5399L196.279 6.46167H190.997L175.728 30.5399H181.007Z" fill="#FA4082"/>
</g>
<defs>
<clipPath id="clip0">
<rect width="210.474" height="37" fill="white"/>
</clipPath>
</defs>
</svg>
