<svg width="268" height="179" viewBox="0 0 268 179" fill="none" xmlns="http://www.w3.org/2000/svg">
<g opacity="0.6">
<path d="M223.877 1.46484L218.914 4.3251V6.79856L223.877 9.65882V7.19554L221.05 5.55674L223.877 3.92813V1.46484Z" fill="#8855F1" fill-opacity="0.5"/>
<path d="M233.496 9.65882L238.459 6.79856V4.3251L233.496 1.46484V3.92813L236.323 5.56692L233.496 7.19554V9.65882Z" fill="#8855F1" fill-opacity="0.5"/>
<path d="M226.449 11.1255L233.496 0H231.055L224.008 11.1255H226.449Z" fill="#02D4E4" fill-opacity="0.5"/>
<path d="M238.521 12.5898L233.559 15.4603V17.9236L238.521 20.7838V18.3205L235.694 16.6919L238.521 15.0531V12.5898Z" fill="#8855F1" fill-opacity="0.5"/>
<path d="M248.143 20.7838L253.095 17.9236V15.4603L248.143 12.5898V15.0531L250.97 16.6919L248.143 18.3205V20.7838Z" fill="#8855F1" fill-opacity="0.5"/>
<path d="M241.083 22.2505L248.141 11.125H245.7L238.652 22.2505H241.083Z" fill="#02D4E4" fill-opacity="0.5"/>
<path d="M253.095 23.7148L248.143 26.5751V29.0486L253.095 31.9088V29.4455L250.268 27.8169L253.095 26.1781V23.7148Z" fill="#8855F1" fill-opacity="0.5"/>
<path d="M262.715 31.9088L267.678 29.0486V26.5751L262.715 23.7148V26.1781L265.542 27.8169L262.715 29.4455V31.9088Z" fill="#8855F1" fill-opacity="0.5"/>
<path d="M255.667 33.3755L262.715 22.25H260.274L253.227 33.3755H255.667Z" fill="#02D4E4" fill-opacity="0.5"/>
<path d="M238.521 34.8438L233.559 37.7142V40.1775L238.521 43.0377V40.5744L235.694 38.9458L238.521 37.307V34.8438Z" fill="#8855F1" fill-opacity="0.5"/>
<path d="M248.143 43.0377L253.095 40.1775V37.7142L248.143 34.8438V37.307L250.97 38.9458L248.143 40.5744V43.0377Z" fill="#8855F1" fill-opacity="0.5"/>
<path d="M241.085 44.5005L248.143 33.375H245.702L238.654 44.5005H241.085Z" fill="#02D4E4" fill-opacity="0.5"/>
<path d="M233.559 31.9088L238.521 29.0486V26.5751L233.559 23.7148V26.1781L236.386 27.8169L233.559 29.4455V31.9088Z" fill="#8855F1" fill-opacity="0.5"/>
<path d="M233.59 54.1729L238.553 51.3025V48.8392L233.59 45.9688V48.432L236.417 50.0708L233.59 51.6995V54.1729Z" fill="#8855F1" fill-opacity="0.5"/>
<path d="M238.553 57.0938L233.59 59.9642V62.4275L238.553 65.2979V62.8244L235.725 61.1958L238.553 59.557V57.0938Z" fill="#8855F1" fill-opacity="0.5"/>
<path d="M248.172 65.2979L253.135 62.4275V59.9642L248.172 57.0938V59.557L250.999 61.1958L248.172 62.8244V65.2979Z" fill="#8855F1" fill-opacity="0.5"/>
<path d="M241.114 66.7544L248.172 55.6289H245.731L238.684 66.7544H241.114Z" fill="#02D4E4" fill-opacity="0.5"/>
<path d="M233.59 76.4229L238.553 73.5525V71.0892L233.59 68.2188V70.682L236.417 72.3208L233.59 73.9494V76.4229Z" fill="#8855F1" fill-opacity="0.5"/>
<path d="M267.678 34.8438L262.715 37.7142V40.1775L267.678 43.0377V40.5744L264.85 38.9458L267.678 37.307V34.8438Z" fill="#8855F1" fill-opacity="0.5"/>
<path d="M267.678 57.0938L262.715 59.9642V62.4275L267.678 65.2979V62.8244L264.85 61.1958L267.678 59.557V57.0938Z" fill="#8855F1" fill-opacity="0.5"/>
<path d="M253.095 45.9688L248.143 48.8392V51.3025L253.095 54.1729V51.6995L250.268 50.0708L253.095 48.432V45.9688Z" fill="#8855F1" fill-opacity="0.5"/>
<path d="M262.715 54.1729L267.678 51.3025V48.8392L262.715 45.9688V48.432L265.542 50.0708L262.715 51.6995V54.1729Z" fill="#8855F1" fill-opacity="0.5"/>
<path d="M255.667 55.6255L262.715 44.5H260.274L253.227 55.6255H255.667Z" fill="#02D4E4" fill-opacity="0.5"/>
<path d="M253.135 68.2188L248.172 71.0892V73.5525L253.135 76.4229V73.9494L250.308 72.3208L253.135 70.682V68.2188Z" fill="#8855F1" fill-opacity="0.5"/>
<path d="M262.746 76.4229L267.709 73.5525V71.0892L262.746 68.2188V70.682L265.573 72.3208L262.746 73.9494V76.4229Z" fill="#8855F1" fill-opacity="0.5"/>
<path d="M255.699 77.8794L262.746 66.7539H260.316L253.258 77.8794H255.699Z" fill="#02D4E4" fill-opacity="0.5"/>
<path d="M267.709 79.3438L262.746 82.2142V84.6775L267.709 87.5479V85.0744L264.882 83.4458L267.709 81.807V79.3438Z" fill="#8855F1" fill-opacity="0.5"/>
<path d="M238.553 79.3438L233.59 82.2142V84.6775L238.553 87.5479V85.0744L235.725 83.4458L238.553 81.807V79.3438Z" fill="#8855F1" fill-opacity="0.5"/>
<path d="M248.172 87.5479L253.135 84.6775V82.2142L248.172 79.3438V81.807L250.999 83.4458L248.172 85.0744V87.5479Z" fill="#8855F1" fill-opacity="0.5"/>
<path d="M241.114 89.0044L248.172 77.8789H245.731L238.684 89.0044H241.114Z" fill="#02D4E4" fill-opacity="0.5"/>
<path d="M253.135 1.46484L248.172 4.3251V6.79856L253.135 9.65882V7.19554L250.308 5.55674L253.135 3.92813V1.46484Z" fill="#8855F1" fill-opacity="0.5"/>
<path d="M262.746 9.65882L267.709 6.79856V4.3251L262.746 1.46484V3.92813L265.573 5.56692L262.746 7.19554V9.65882Z" fill="#8855F1" fill-opacity="0.5"/>
<path d="M255.699 11.1255L262.746 0H260.316L253.258 11.1255H255.699Z" fill="#02D4E4" fill-opacity="0.5"/>
<path d="M267.769 12.5898L262.816 15.4603V17.9236L267.769 20.7838V18.3205L264.942 16.6919L267.769 15.0531V12.5898Z" fill="#8855F1" fill-opacity="0.5"/>
<path d="M87.623 54.1729L92.5859 51.3025V48.8392L87.623 45.9688V48.432L90.4502 50.0708L87.623 51.6995V54.1729Z" fill="#8855F1" fill-opacity="0.5"/>
<path d="M92.646 57.0938L87.6934 59.9642V62.4275L92.646 65.2979V62.8244L89.8188 61.1958L92.646 59.557V57.0938Z" fill="#8855F1" fill-opacity="0.5"/>
<path d="M102.268 65.2979L107.23 62.4275V59.9642L102.268 57.0938V59.557L105.095 61.1958L102.268 62.8244V65.2979Z" fill="#8855F1" fill-opacity="0.5"/>
<path d="M95.22 66.7544L102.268 55.6289H99.8269L92.7793 66.7544H95.22Z" fill="#02D4E4" fill-opacity="0.5"/>
<path d="M107.228 68.2188L102.266 71.0892V73.5525L107.228 76.4229V73.9494L104.401 72.3208L107.228 70.682V68.2188Z" fill="#8855F1" fill-opacity="0.5"/>
<path d="M116.84 76.4229L121.803 73.5525V71.0892L116.84 68.2188V70.682L119.667 72.3208L116.84 73.9494V76.4229Z" fill="#8855F1" fill-opacity="0.5"/>
<path d="M109.792 77.8794L116.84 66.7539H114.409L107.352 77.8794H109.792Z" fill="#02D4E4" fill-opacity="0.5"/>
<path d="M92.646 79.3438L87.6934 82.2142V84.6775L92.646 87.5479V85.0744L89.8188 83.4458L92.646 81.807V79.3438Z" fill="#8855F1" fill-opacity="0.5"/>
<path d="M102.266 87.5479L107.228 84.6775V82.2142L102.266 79.3438V81.807L105.093 83.4458L102.266 85.0744V87.5479Z" fill="#8855F1" fill-opacity="0.5"/>
<path d="M95.22 89.0044L102.268 77.8789H99.8269L92.7793 89.0044H95.22Z" fill="#02D4E4" fill-opacity="0.5"/>
<path d="M87.6934 76.4229L92.646 73.5525V71.0892L87.6934 68.2188V70.682L90.5104 72.3208L87.6934 73.9494V76.4229Z" fill="#8855F1" fill-opacity="0.5"/>
<path d="M121.803 79.3438L116.84 82.2142V84.6775L121.803 87.5479V85.0744L118.975 83.4458L121.803 81.807V79.3438Z" fill="#8855F1" fill-opacity="0.5"/>
<path d="M131.424 87.5479L136.387 84.6775V82.2142L131.424 79.3438V81.807L134.251 83.4458L131.424 85.0744V87.5479Z" fill="#8855F1" fill-opacity="0.5"/>
<path d="M124.376 89.0044L131.424 77.8789H128.983L121.936 89.0044H124.376Z" fill="#02D4E4" fill-opacity="0.5"/>
<path d="M87.7246 9.65882L92.6874 6.79856V4.3251L87.7246 1.46484V3.92813L90.5518 5.56692L87.7246 7.19554V9.65882Z" fill="#8855F1" fill-opacity="0.5"/>
<path d="M92.6874 12.5898L87.7246 15.4603V17.9236L92.6874 20.7838V18.3205L89.8603 16.6919L92.6874 15.0531V12.5898Z" fill="#8855F1" fill-opacity="0.5"/>
<path d="M102.297 20.7838L107.26 17.9236V15.4603L102.297 12.5898V15.0531L105.124 16.6919L102.297 18.3205V20.7838Z" fill="#8855F1" fill-opacity="0.5"/>
<path d="M95.2493 22.2505L102.297 11.125H99.8562L92.8086 22.2505H95.2493Z" fill="#02D4E4" fill-opacity="0.5"/>
<path d="M87.7246 31.9088L92.6874 29.0486V26.5751L87.7246 23.7148V26.1781L90.5518 27.8169L87.7246 29.4455V31.9088Z" fill="#8855F1" fill-opacity="0.5"/>
<path d="M136.387 1.46484L131.424 4.3251V6.79856L136.387 9.65882V7.19554L133.559 5.55674L136.387 3.92813V1.46484Z" fill="#8855F1" fill-opacity="0.5"/>
<path d="M145.996 9.65882L150.959 6.79856V4.3251L145.996 1.46484V3.92813L148.823 5.56692L145.996 7.19554V9.65882Z" fill="#8855F1" fill-opacity="0.5"/>
<path d="M138.949 11.1255L145.996 0H143.555L136.508 11.1255H138.949Z" fill="#02D4E4" fill-opacity="0.5"/>
<path d="M121.803 12.5898L116.84 15.4603V17.9236L121.803 20.7838V18.3205L118.975 16.6919L121.803 15.0531V12.5898Z" fill="#8855F1" fill-opacity="0.5"/>
<path d="M131.424 20.7838L136.387 17.9236V15.4603L131.424 12.5898V15.0531L134.251 16.6919L131.424 18.3205V20.7838Z" fill="#8855F1" fill-opacity="0.5"/>
<path d="M124.376 22.2505L131.424 11.125H128.983L121.936 22.2505H124.376Z" fill="#02D4E4" fill-opacity="0.5"/>
<path d="M107.228 1.46484L102.266 4.3251V6.79856L107.228 9.65882V7.19554L104.401 5.55674L107.228 3.92813V1.46484Z" fill="#8855F1" fill-opacity="0.5"/>
<path d="M116.84 9.65882L121.803 6.79856V4.3251L116.84 1.46484V3.92813L119.667 5.56692L116.84 7.19554V9.65882Z" fill="#8855F1" fill-opacity="0.5"/>
<path d="M109.792 11.1255L116.84 0H114.409L107.352 11.1255H109.792Z" fill="#02D4E4" fill-opacity="0.5"/>
<path d="M151.021 12.5898L146.068 15.4603V17.9236L151.021 20.7838V18.3205L148.194 16.6919L151.021 15.0531V12.5898Z" fill="#8855F1" fill-opacity="0.5"/>
<path d="M160.641 20.7838L165.603 17.9236V15.4603L160.641 12.5898V15.0531L163.468 16.6919L160.641 18.3205V20.7838Z" fill="#8855F1" fill-opacity="0.5"/>
<path d="M153.593 22.2505L160.641 11.125H158.2L151.152 22.2505H153.593Z" fill="#02D4E4" fill-opacity="0.5"/>
<path d="M165.603 23.7148L160.641 26.5751V29.0486L165.603 31.9088V29.4455L162.776 27.8169L165.603 26.1781V23.7148Z" fill="#8855F1" fill-opacity="0.5"/>
<path d="M175.215 31.9088L180.178 29.0486V26.5751L175.215 23.7148V26.1781L178.042 27.8169L175.215 29.4455V31.9088Z" fill="#8855F1" fill-opacity="0.5"/>
<path d="M168.167 33.3755L175.214 22.25H172.784L165.736 33.3755H168.167Z" fill="#02D4E4" fill-opacity="0.5"/>
<path d="M151.021 34.8438L146.068 37.7142V40.1775L151.021 43.0377V40.5744L148.194 38.9458L151.021 37.307V34.8438Z" fill="#8855F1" fill-opacity="0.5"/>
<path d="M160.641 43.0377L165.603 40.1775V37.7142L160.641 34.8438V37.307L163.468 38.9458L160.641 40.5744V43.0377Z" fill="#8855F1" fill-opacity="0.5"/>
<path d="M153.593 44.5005L160.641 33.375H158.2L151.152 44.5005H153.593Z" fill="#02D4E4" fill-opacity="0.5"/>
<path d="M136.447 23.7148L131.484 26.5751V29.0486L136.447 31.9088V29.4455L133.62 27.8169L136.447 26.1781V23.7148Z" fill="#8855F1" fill-opacity="0.5"/>
<path d="M146.068 31.9088L151.021 29.0486V26.5751L146.068 23.7148V26.1781L148.896 27.8169L146.068 29.4455V31.9088Z" fill="#8855F1" fill-opacity="0.5"/>
<path d="M139.011 33.3755L146.068 22.25H143.628L136.58 33.3755H139.011Z" fill="#02D4E4" fill-opacity="0.5"/>
<path d="M107.26 23.7148L102.297 26.5751V29.0486L107.26 31.9088V29.4455L104.433 27.8169L107.26 26.1781V23.7148Z" fill="#8855F1" fill-opacity="0.5"/>
<path d="M116.871 31.9088L121.834 29.0486V26.5751L116.871 23.7148V26.1781L119.708 27.8169L116.871 29.4455V31.9088Z" fill="#8855F1" fill-opacity="0.5"/>
<path d="M109.823 33.3755L116.871 22.25H114.44L107.393 33.3755H109.823Z" fill="#02D4E4" fill-opacity="0.5"/>
<path d="M121.834 34.8438L116.871 37.7142V40.1775L121.834 43.0377V40.5744L119.007 38.9458L121.834 37.307V34.8438Z" fill="#8855F1" fill-opacity="0.5"/>
<path d="M131.453 43.0377L136.416 40.1775V37.7142L131.453 34.8438V37.307L134.28 38.9458L131.453 40.5744V43.0377Z" fill="#8855F1" fill-opacity="0.5"/>
<path d="M124.406 44.5005L131.453 33.375H129.012L121.965 44.5005H124.406Z" fill="#02D4E4" fill-opacity="0.5"/>
<path d="M107.26 45.9688L102.297 48.8392V51.3025L107.26 54.1729V51.6995L104.433 50.0708L107.26 48.432V45.9688Z" fill="#8855F1" fill-opacity="0.5"/>
<path d="M116.871 54.1729L121.834 51.3025V48.8392L116.871 45.9688V48.432L119.708 50.0708L116.871 51.6995V54.1729Z" fill="#8855F1" fill-opacity="0.5"/>
<path d="M109.823 55.6255L116.871 44.5H114.44L107.393 55.6255H109.823Z" fill="#02D4E4" fill-opacity="0.5"/>
<path d="M92.6874 34.8438L87.7246 37.7142V40.1775L92.6874 43.0377V40.5744L89.8603 38.9458L92.6874 37.307V34.8438Z" fill="#8855F1" fill-opacity="0.5"/>
<path d="M102.297 43.0377L107.26 40.1775V37.7142L102.297 34.8438V37.307L105.124 38.9458L102.297 40.5744V43.0377Z" fill="#8855F1" fill-opacity="0.5"/>
<path d="M95.2493 44.5005L102.297 33.375H99.8562L92.8086 44.5005H95.2493Z" fill="#02D4E4" fill-opacity="0.5"/>
<path d="M136.478 45.9688L131.516 48.8392V51.3025L136.478 54.1729V51.6995L133.651 50.0708L136.478 48.432V45.9688Z" fill="#8855F1" fill-opacity="0.5"/>
<path d="M146.1 54.1729L151.052 51.3025V48.8392L146.1 45.9688V48.432L148.927 50.0708L146.1 51.6995V54.1729Z" fill="#8855F1" fill-opacity="0.5"/>
<path d="M139.04 55.6255L146.098 44.5H143.657L136.609 55.6255H139.04Z" fill="#02D4E4" fill-opacity="0.5"/>
<path d="M151.052 57.0938L146.1 59.9642V62.4275L151.052 65.2979V62.8244L148.225 61.1958L151.052 59.557V57.0938Z" fill="#8855F1" fill-opacity="0.5"/>
<path d="M160.672 65.2979L165.635 62.4275V59.9642L160.672 57.0938V59.557L163.499 61.1958L160.672 62.8244V65.2979Z" fill="#8855F1" fill-opacity="0.5"/>
<path d="M153.624 66.7544L160.672 55.6289H158.231L151.184 66.7544H153.624Z" fill="#02D4E4" fill-opacity="0.5"/>
<path d="M136.478 68.2188L131.516 71.0892V73.5525L136.478 76.4229V73.9494L133.651 72.3208L136.478 70.682V68.2188Z" fill="#8855F1" fill-opacity="0.5"/>
<path d="M146.1 76.4229L151.052 73.5525V71.0892L146.1 68.2188V70.682L148.927 72.3208L146.1 73.9494V76.4229Z" fill="#8855F1" fill-opacity="0.5"/>
<path d="M139.04 77.8794L146.098 66.7539H143.657L136.609 77.8794H139.04Z" fill="#02D4E4" fill-opacity="0.5"/>
<path d="M121.904 57.0938L116.941 59.9642V62.4275L121.904 65.2979V62.8244L119.077 61.1958L121.904 59.557V57.0938Z" fill="#8855F1" fill-opacity="0.5"/>
<path d="M131.516 65.2979L136.478 62.4275V59.9642L131.516 57.0938V59.557L134.343 61.1958L131.516 62.8244V65.2979Z" fill="#8855F1" fill-opacity="0.5"/>
<path d="M124.468 66.7544L131.516 55.6289H129.085L122.027 66.7544H124.468Z" fill="#02D4E4" fill-opacity="0.5"/>
<path d="M180.178 34.8438L175.215 37.7142V40.1775L180.178 43.0377V40.5744L177.35 38.9458L180.178 37.307V34.8438Z" fill="#8855F1" fill-opacity="0.5"/>
<path d="M189.797 43.0377L194.75 40.1775V37.7142L189.797 34.8438V37.307L192.624 38.9458L189.797 40.5744V43.0377Z" fill="#8855F1" fill-opacity="0.5"/>
<path d="M182.739 44.5005L189.797 33.375H187.356L180.309 44.5005H182.739Z" fill="#02D4E4" fill-opacity="0.5"/>
<path d="M194.76 45.9688L189.797 48.8392V51.3025L194.76 54.1729V51.6995L191.933 50.0708L194.76 48.432V45.9688Z" fill="#8855F1" fill-opacity="0.5"/>
<path d="M204.371 54.1729L209.334 51.3025V48.8392L204.371 45.9688V48.432L207.198 50.0708L204.371 51.6995V54.1729Z" fill="#8855F1" fill-opacity="0.5"/>
<path d="M197.324 55.6255L204.371 44.5H201.93L194.883 55.6255H197.324Z" fill="#02D4E4" fill-opacity="0.5"/>
<path d="M180.178 57.0938L175.215 59.9642V62.4275L180.178 65.2979V62.8244L177.35 61.1958L180.178 59.557V57.0938Z" fill="#8855F1" fill-opacity="0.5"/>
<path d="M189.797 65.2979L194.75 62.4275V59.9642L189.797 57.0938V59.557L192.624 61.1958L189.797 62.8244V65.2979Z" fill="#8855F1" fill-opacity="0.5"/>
<path d="M182.739 66.7544L189.797 55.6289H187.356L180.309 66.7544H182.739Z" fill="#02D4E4" fill-opacity="0.5"/>
<path d="M165.603 45.9688L160.641 48.8392V51.3025L165.603 54.1729V51.6995L162.776 50.0708L165.603 48.432V45.9688Z" fill="#8855F1" fill-opacity="0.5"/>
<path d="M175.215 54.1729L180.178 51.3025V48.8392L175.215 45.9688V48.432L178.042 50.0708L175.215 51.6995V54.1729Z" fill="#8855F1" fill-opacity="0.5"/>
<path d="M168.167 55.6255L175.214 44.5H172.784L165.736 55.6255H168.167Z" fill="#02D4E4" fill-opacity="0.5"/>
<path d="M209.396 57.0938L204.443 59.9642V62.4275L209.396 65.2979V62.8244L206.569 61.1958L209.396 59.557V57.0938Z" fill="#8855F1" fill-opacity="0.5"/>
<path d="M219.016 65.2979L223.978 62.4275V59.9642L219.016 57.0938V59.557L221.843 61.1958L219.016 62.8244V65.2979Z" fill="#8855F1" fill-opacity="0.5"/>
<path d="M211.968 66.7544L219.016 55.6289H216.575L209.527 66.7544H211.968Z" fill="#02D4E4" fill-opacity="0.5"/>
<path d="M223.978 68.2188L219.016 71.0892V73.5525L223.978 76.4229V73.9494L221.151 72.3208L223.978 70.682V68.2188Z" fill="#8855F1" fill-opacity="0.5"/>
<path d="M226.542 77.8794L233.59 66.7539H231.159L224.102 77.8794H226.542Z" fill="#02D4E4" fill-opacity="0.5"/>
<path d="M209.396 79.3438L204.443 82.2142V84.6775L209.396 87.5479V85.0744L206.569 83.4458L209.396 81.807V79.3438Z" fill="#8855F1" fill-opacity="0.5"/>
<path d="M219.016 87.5479L223.978 84.6775V82.2142L219.016 79.3438V81.807L221.843 83.4458L219.016 85.0744V87.5479Z" fill="#8855F1" fill-opacity="0.5"/>
<path d="M211.968 89.0044L219.016 77.8789H216.575L209.527 89.0044H211.968Z" fill="#02D4E4" fill-opacity="0.5"/>
<path d="M194.822 68.2188L189.859 71.0892V73.5525L194.822 76.4229V73.9494L191.995 72.3208L194.822 70.682V68.2188Z" fill="#8855F1" fill-opacity="0.5"/>
<path d="M204.443 76.4229L209.396 73.5525V71.0892L204.443 68.2188V70.682L207.271 72.3208L204.443 73.9494V76.4229Z" fill="#8855F1" fill-opacity="0.5"/>
<path d="M197.384 77.8794L204.442 66.7539H202.001L194.943 77.8794H197.384Z" fill="#02D4E4" fill-opacity="0.5"/>
<path d="M165.635 68.2188L160.672 71.0892V73.5525L165.635 76.4229V73.9494L162.807 72.3208L165.635 70.682V68.2188Z" fill="#8855F1" fill-opacity="0.5"/>
<path d="M175.246 76.4229L180.209 73.5525V71.0892L175.246 68.2188V70.682L178.073 72.3208L175.246 73.9494V76.4229Z" fill="#8855F1" fill-opacity="0.5"/>
<path d="M168.198 77.8794L175.256 66.7539H172.815L165.768 77.8794H168.198Z" fill="#02D4E4" fill-opacity="0.5"/>
<path d="M180.209 79.3438L175.256 82.2142V84.6775L180.209 87.5479V85.0744L177.381 83.4458L180.209 81.807V79.3438Z" fill="#8855F1" fill-opacity="0.5"/>
<path d="M189.828 87.5479L194.791 84.6775V82.2142L189.828 79.3438V81.807L192.655 83.4458L189.828 85.0744V87.5479Z" fill="#8855F1" fill-opacity="0.5"/>
<path d="M182.781 89.0044L189.828 77.8789H187.387L180.34 89.0044H182.781Z" fill="#02D4E4" fill-opacity="0.5"/>
<path d="M151.052 79.3438L146.1 82.2142V84.6775L151.052 87.5479V85.0744L148.225 83.4458L151.052 81.807V79.3438Z" fill="#8855F1" fill-opacity="0.5"/>
<path d="M160.672 87.5479L165.635 84.6775V82.2142L160.672 79.3438V81.807L163.499 83.4458L160.672 85.0744V87.5479Z" fill="#8855F1" fill-opacity="0.5"/>
<path d="M153.624 89.0044L160.672 77.8789H158.231L151.184 89.0044H153.624Z" fill="#02D4E4" fill-opacity="0.5"/>
<path d="M165.635 1.46484L160.672 4.3251V6.79856L165.635 9.65882V7.19554L162.807 5.55674L165.635 3.92813V1.46484Z" fill="#8855F1" fill-opacity="0.5"/>
<path d="M175.246 9.65882L180.209 6.79856V4.3251L175.246 1.46484V3.92813L178.073 5.56692L175.246 7.19554V9.65882Z" fill="#8855F1" fill-opacity="0.5"/>
<path d="M168.198 11.1255L175.256 0H172.815L165.768 11.1255H168.198Z" fill="#02D4E4" fill-opacity="0.5"/>
<path d="M194.852 1.46484L189.889 4.3251V6.79856L194.852 9.65882V7.19554L192.024 5.55674L194.852 3.92813V1.46484Z" fill="#8855F1" fill-opacity="0.5"/>
<path d="M204.473 9.65882L209.435 6.79856V4.3251L204.473 1.46484V3.92813L207.3 5.56692L204.473 7.19554V9.65882Z" fill="#8855F1" fill-opacity="0.5"/>
<path d="M197.415 11.1255L204.473 0H202.032L194.984 11.1255H197.415Z" fill="#02D4E4" fill-opacity="0.5"/>
<path d="M209.435 12.5898L204.473 15.4603V17.9236L209.435 20.7838V18.3205L206.598 16.6919L209.435 15.0531V12.5898Z" fill="#8855F1" fill-opacity="0.5"/>
<path d="M219.045 20.7838L224.008 17.9236V15.4603L219.045 12.5898V15.0531L221.872 16.6919L219.045 18.3205V20.7838Z" fill="#8855F1" fill-opacity="0.5"/>
<path d="M211.997 22.2505L219.045 11.125H216.604L209.557 22.2505H211.997Z" fill="#02D4E4" fill-opacity="0.5"/>
<path d="M194.852 23.7148L189.889 26.5751V29.0486L194.852 31.9088V29.4455L192.024 27.8169L194.852 26.1781V23.7148Z" fill="#8855F1" fill-opacity="0.5"/>
<path d="M204.473 31.9088L209.435 29.0486V26.5751L204.473 23.7148V26.1781L207.3 27.8169L204.473 29.4455V31.9088Z" fill="#8855F1" fill-opacity="0.5"/>
<path d="M197.415 33.3755L204.473 22.25H202.032L194.984 33.3755H197.415Z" fill="#02D4E4" fill-opacity="0.5"/>
<path d="M180.279 12.5898L175.316 15.4603V17.9236L180.279 20.7838V18.3205L177.452 16.6919L180.279 15.0531V12.5898Z" fill="#8855F1" fill-opacity="0.5"/>
<path d="M189.889 20.7838L194.852 17.9236V15.4603L189.889 12.5898V15.0531L192.716 16.6919L189.889 18.3205V20.7838Z" fill="#8855F1" fill-opacity="0.5"/>
<path d="M182.841 22.2505L189.889 11.125H187.448L180.4 22.2505H182.841Z" fill="#02D4E4" fill-opacity="0.5"/>
<path d="M224.008 23.7148L219.045 26.5751V29.0486L224.008 31.9088V29.4455L221.181 27.8169L224.008 26.1781V23.7148Z" fill="#8855F1" fill-opacity="0.5"/>
<path d="M226.571 33.3755L233.629 22.25H231.188L224.141 33.3755H226.571Z" fill="#02D4E4" fill-opacity="0.5"/>
<path d="M224.008 45.9688L219.045 48.8392V51.3025L224.008 54.1729V51.6995L221.181 50.0708L224.008 48.432V45.9688Z" fill="#8855F1" fill-opacity="0.5"/>
<path d="M226.571 55.6255L233.629 44.5H231.188L224.141 55.6255H226.571Z" fill="#02D4E4" fill-opacity="0.5"/>
<path d="M209.435 34.8438L204.473 37.7142V40.1775L209.435 43.0377V40.5744L206.608 38.9458L209.435 37.307V34.8438Z" fill="#8855F1" fill-opacity="0.5"/>
<path d="M219.045 43.0377L224.008 40.1775V37.7142L219.045 34.8438V37.307L221.872 38.9458L219.045 40.5744V43.0377Z" fill="#8855F1" fill-opacity="0.5"/>
<path d="M211.997 44.5005L219.045 33.375H216.614L209.557 44.5005H211.997Z" fill="#02D4E4" fill-opacity="0.5"/>
<path d="M0 54.1729L4.96283 51.3025L4.96283 48.8392L0 45.9688L0 48.432L2.82719 50.0708L0 51.6995L0 54.1729Z" fill="#8855F1" fill-opacity="0.5"/>
<path d="M5.02338 57.0938L0.0605469 59.9642L0.0605469 62.4275L5.02338 65.2979V62.8244L2.19619 61.1958L5.02338 59.557V57.0938Z" fill="#8855F1" fill-opacity="0.5"/>
<path d="M14.6445 65.2979L19.5972 62.4275V59.9642L14.6445 57.0938V59.557L17.4717 61.1958L14.6445 62.8244V65.2979Z" fill="#8855F1" fill-opacity="0.5"/>
<path d="M7.58682 66.7544L14.6446 55.6289H12.2039L5.15625 66.7544H7.58682Z" fill="#02D4E4" fill-opacity="0.5"/>
<path d="M19.5972 68.2188L14.6445 71.0892V73.5525L19.5972 76.4229V73.9494L16.7802 72.3208L19.5972 70.682V68.2188Z" fill="#8855F1" fill-opacity="0.5"/>
<path d="M29.2188 76.4229L34.1816 73.5525V71.0892L29.2188 68.2188V70.682L32.0459 72.3208L29.2188 73.9494V76.4229Z" fill="#8855F1" fill-opacity="0.5"/>
<path d="M22.1712 77.8794L29.2188 66.7539H26.7781L19.7305 77.8794H22.1712Z" fill="#02D4E4" fill-opacity="0.5"/>
<path d="M5.02338 79.3438L0.0605469 82.2142L0.0605469 84.6775L5.02338 87.5479V85.0744L2.19619 83.4458L5.02338 81.807V79.3438Z" fill="#8855F1" fill-opacity="0.5"/>
<path d="M14.6445 87.5479L19.5972 84.6775V82.2142L14.6445 79.3438V81.807L17.4717 83.4458L14.6445 85.0744V87.5479Z" fill="#8855F1" fill-opacity="0.5"/>
<path d="M7.58682 89.0044L14.6446 77.8789H12.2039L5.15625 89.0044H7.58682Z" fill="#02D4E4" fill-opacity="0.5"/>
<path d="M0.0605469 76.4229L5.02338 73.5525L5.02338 71.0892L0.0605469 68.2188L0.0605469 70.682L2.88774 72.3208L0.0605469 73.9494L0.0605469 76.4229Z" fill="#8855F1" fill-opacity="0.5"/>
<path d="M34.1816 79.3438L29.2188 82.2142V84.6775L34.1816 87.5479V85.0744L31.3544 83.4458L34.1816 81.807V79.3438Z" fill="#8855F1" fill-opacity="0.5"/>
<path d="M43.791 87.5479L48.7538 84.6775V82.2142L43.791 79.3438V81.807L46.6284 83.4458L43.791 85.0744V87.5479Z" fill="#8855F1" fill-opacity="0.5"/>
<path d="M36.7431 89.0044L43.7907 77.8789H41.3601L34.3125 89.0044H36.7431Z" fill="#02D4E4" fill-opacity="0.5"/>
<path d="M0.101563 9.65882L5.05423 6.79856L5.05423 4.3251L0.101562 1.46484L0.101563 3.92813L2.91858 5.56692L0.101563 7.19554L0.101563 9.65882Z" fill="#8855F1" fill-opacity="0.5"/>
<path d="M5.05423 12.5898L0.101563 15.4603L0.101563 17.9236L5.05423 20.7838V18.3205L2.22704 16.6919L5.05423 15.0531V12.5898Z" fill="#8855F1" fill-opacity="0.5"/>
<path d="M14.6738 20.7838L19.6367 17.9236V15.4603L14.6738 12.5898V15.0531L17.501 16.6919L14.6738 18.3205V20.7838Z" fill="#8855F1" fill-opacity="0.5"/>
<path d="M7.62629 22.2505L14.6739 11.125H12.2332L5.18555 22.2505H7.62629Z" fill="#02D4E4" fill-opacity="0.5"/>
<path d="M0.101563 31.9088L5.05423 29.0486L5.05423 26.5751L0.101562 23.7148L0.101563 26.1781L2.91858 27.8169L0.101563 29.4455L0.101563 31.9088Z" fill="#8855F1" fill-opacity="0.5"/>
<path d="M48.7538 1.46484L43.791 4.3251V6.79856L48.7538 9.65882V7.19554L45.9267 5.55674L48.7538 3.92813V1.46484Z" fill="#8855F1" fill-opacity="0.5"/>
<path d="M58.375 9.65882L63.3378 6.79856V4.3251L58.375 1.46484V3.92813L61.2022 5.56692L58.375 7.19554V9.65882Z" fill="#8855F1" fill-opacity="0.5"/>
<path d="M51.3275 11.1255L58.3751 0H55.9343L48.8867 11.1255H51.3275Z" fill="#02D4E4" fill-opacity="0.5"/>
<path d="M34.1816 12.5898L29.2188 15.4603V17.9236L34.1816 20.7838V18.3205L31.3544 16.6919L34.1816 15.0531V12.5898Z" fill="#8855F1" fill-opacity="0.5"/>
<path d="M43.791 20.7838L48.7538 17.9236V15.4603L43.791 12.5898V15.0531L46.6284 16.6919L43.791 18.3205V20.7838Z" fill="#8855F1" fill-opacity="0.5"/>
<path d="M36.7431 22.2505L43.7907 11.125H41.3601L34.3125 22.2505H36.7431Z" fill="#02D4E4" fill-opacity="0.5"/>
<path d="M19.6074 1.46484L14.6445 4.3251V6.79856L19.6074 9.65882V7.19554L16.7802 5.55674L19.6074 3.92813V1.46484Z" fill="#8855F1" fill-opacity="0.5"/>
<path d="M29.2188 9.65882L34.1816 6.79856V4.3251L29.2188 1.46484V3.92813L32.0459 5.56692L29.2188 7.19554V9.65882Z" fill="#8855F1" fill-opacity="0.5"/>
<path d="M22.1712 11.1255L29.2188 0H26.7883L19.7305 11.1255H22.1712Z" fill="#02D4E4" fill-opacity="0.5"/>
<path d="M63.3984 12.5898L58.4355 15.4603V17.9236L63.3984 20.7838V18.3205L60.5712 16.6919L63.3984 15.0531V12.5898Z" fill="#8855F1" fill-opacity="0.5"/>
<path d="M73.0176 20.7838L77.9702 17.9236V15.4603L73.0176 12.5898V15.0531L75.8448 16.6919L73.0176 18.3205V20.7838Z" fill="#8855F1" fill-opacity="0.5"/>
<path d="M65.9599 22.2505L73.0177 11.125H70.5769L63.5293 22.2505H65.9599Z" fill="#02D4E4" fill-opacity="0.5"/>
<path d="M77.9702 23.7148L73.0176 26.5751V29.0486L77.9702 31.9088V29.4455L75.143 27.8169L77.9702 26.1781V23.7148Z" fill="#8855F1" fill-opacity="0.5"/>
<path d="M80.5443 33.3755L87.5919 22.25H85.1512L78.1035 33.3755H80.5443Z" fill="#02D4E4" fill-opacity="0.5"/>
<path d="M63.3984 34.8438L58.4355 37.7142V40.1775L63.3984 43.0377V40.5744L60.5712 38.9458L63.3984 37.307V34.8438Z" fill="#8855F1" fill-opacity="0.5"/>
<path d="M73.0176 43.0377L77.9702 40.1775V37.7142L73.0176 34.8438V37.307L75.8448 38.9458L73.0176 40.5744V43.0377Z" fill="#8855F1" fill-opacity="0.5"/>
<path d="M65.9599 44.5005L73.0177 33.375H70.5769L63.5293 44.5005H65.9599Z" fill="#02D4E4" fill-opacity="0.5"/>
<path d="M48.8242 23.7148L43.8613 26.5751V29.0486L48.8242 31.9088V29.4455L45.997 27.8169L48.8242 26.1781V23.7148Z" fill="#8855F1" fill-opacity="0.5"/>
<path d="M58.4355 31.9088L63.3984 29.0486V26.5751L58.4355 23.7148V26.1781L61.2627 27.8169L58.4355 29.4455V31.9088Z" fill="#8855F1" fill-opacity="0.5"/>
<path d="M51.388 33.3755L58.4356 22.25H56.0051L48.9473 33.3755H51.388Z" fill="#02D4E4" fill-opacity="0.5"/>
<path d="M19.6367 23.7148L14.6738 26.5751V29.0486L19.6367 31.9088V29.4455L16.8095 27.8169L19.6367 26.1781V23.7148Z" fill="#8855F1" fill-opacity="0.5"/>
<path d="M29.248 31.9088L34.2109 29.0486V26.5751L29.248 23.7148V26.1781L32.0752 27.8169L29.248 29.4455V31.9088Z" fill="#8855F1" fill-opacity="0.5"/>
<path d="M22.2005 33.3755L29.2481 22.25H26.8176L19.7598 33.3755H22.2005Z" fill="#02D4E4" fill-opacity="0.5"/>
<path d="M34.2109 34.8438L29.248 37.7142V40.1775L34.2109 43.0377V40.5744L31.3837 38.9458L34.2109 37.307V34.8438Z" fill="#8855F1" fill-opacity="0.5"/>
<path d="M43.832 43.0377L48.7949 40.1775V37.7142L43.832 34.8438V37.307L46.6592 38.9458L43.832 40.5744V43.0377Z" fill="#8855F1" fill-opacity="0.5"/>
<path d="M36.7743 44.5005L43.8321 33.375H41.3914L34.3438 44.5005H36.7743Z" fill="#02D4E4" fill-opacity="0.5"/>
<path d="M19.6367 45.9688L14.6738 48.8392V51.3025L19.6367 54.1729V51.6995L16.8095 50.0708L19.6367 48.432V45.9688Z" fill="#8855F1" fill-opacity="0.5"/>
<path d="M29.248 54.1729L34.2109 51.3025V48.8392L29.248 45.9688V48.432L32.0752 50.0708L29.248 51.6995V54.1729Z" fill="#8855F1" fill-opacity="0.5"/>
<path d="M22.2005 55.6255L29.2481 44.5H26.8176L19.7598 55.6255H22.2005Z" fill="#02D4E4" fill-opacity="0.5"/>
<path d="M5.05423 34.8438L0.101563 37.7142L0.101563 40.1775L5.05423 43.0377V40.5744L2.22704 38.9458L5.05423 37.307V34.8438Z" fill="#8855F1" fill-opacity="0.5"/>
<path d="M14.6738 43.0377L19.6367 40.1775V37.7142L14.6738 34.8438V37.307L17.501 38.9458L14.6738 40.5744V43.0377Z" fill="#8855F1" fill-opacity="0.5"/>
<path d="M7.62629 44.5005L14.6739 33.375H12.2332L5.18555 44.5005H7.62629Z" fill="#02D4E4" fill-opacity="0.5"/>
<path d="M48.8554 45.9688L43.8926 48.8392V51.3025L48.8554 54.1729V51.6995L46.0282 50.0708L48.8554 48.432V45.9688Z" fill="#8855F1" fill-opacity="0.5"/>
<path d="M58.4668 54.1729L63.4296 51.3025V48.8392L58.4668 45.9688V48.432L61.294 50.0708L58.4668 51.6995V54.1729Z" fill="#8855F1" fill-opacity="0.5"/>
<path d="M51.4173 55.6255L58.4649 44.5H56.0344L48.9766 55.6255H51.4173Z" fill="#02D4E4" fill-opacity="0.5"/>
<path d="M63.4296 57.0938L58.4668 59.9642V62.4275L63.4296 65.2979V62.8244L60.6024 61.1958L63.4296 59.557V57.0938Z" fill="#8855F1" fill-opacity="0.5"/>
<path d="M73.0488 65.2979L78.0117 62.4275V59.9642L73.0488 57.0938V59.557L75.876 61.1958L73.0488 62.8244V65.2979Z" fill="#8855F1" fill-opacity="0.5"/>
<path d="M66.0013 66.7544L73.0489 55.6289H70.6082L63.5605 66.7544H66.0013Z" fill="#02D4E4" fill-opacity="0.5"/>
<path d="M48.8554 68.2188L43.8926 71.0892V73.5525L48.8554 76.4229V73.9494L46.0282 72.3208L48.8554 70.682V68.2188Z" fill="#8855F1" fill-opacity="0.5"/>
<path d="M58.4668 76.4229L63.4296 73.5525V71.0892L58.4668 68.2188V70.682L61.294 72.3208L58.4668 73.9494V76.4229Z" fill="#8855F1" fill-opacity="0.5"/>
<path d="M51.4193 77.8794L58.4669 66.7539H56.0363L48.9785 77.8794H51.4193Z" fill="#02D4E4" fill-opacity="0.5"/>
<path d="M34.273 57.0938L29.3203 59.9642V62.4275L34.273 65.2979V62.8244L31.456 61.1958L34.273 59.557V57.0938Z" fill="#8855F1" fill-opacity="0.5"/>
<path d="M43.8926 65.2979L48.8554 62.4275V59.9642L43.8926 57.0938V59.557L46.7198 61.1958L43.8926 62.8244V65.2979Z" fill="#8855F1" fill-opacity="0.5"/>
<path d="M36.845 66.7544L43.8927 55.6289H41.4519L34.4043 66.7544H36.845Z" fill="#02D4E4" fill-opacity="0.5"/>
<path d="M77.9702 45.9688L73.0176 48.8392V51.3025L77.9702 54.1729V51.6995L75.143 50.0708L77.9702 48.432V45.9688Z" fill="#8855F1" fill-opacity="0.5"/>
<path d="M80.5443 55.6255L87.5919 44.5H85.1512L78.1035 55.6255H80.5443Z" fill="#02D4E4" fill-opacity="0.5"/>
<path d="M78.0117 68.2188L73.0488 71.0892V73.5525L78.0117 76.4229V73.9494L75.1845 72.3208L78.0117 70.682V68.2188Z" fill="#8855F1" fill-opacity="0.5"/>
<path d="M80.5755 77.8794L87.6231 66.7539H85.1926L78.1348 77.8794H80.5755Z" fill="#02D4E4" fill-opacity="0.5"/>
<path d="M63.4296 79.3438L58.4668 82.2142V84.6775L63.4296 87.5479V85.0744L60.6024 83.4458L63.4296 81.807V79.3438Z" fill="#8855F1" fill-opacity="0.5"/>
<path d="M73.0488 87.5479L78.0117 84.6775V82.2142L73.0488 79.3438V81.807L75.876 83.4458L73.0488 85.0744V87.5479Z" fill="#8855F1" fill-opacity="0.5"/>
<path d="M66.0013 89.0044L73.0489 77.8789H70.6082L63.5605 89.0044H66.0013Z" fill="#02D4E4" fill-opacity="0.5"/>
<path d="M78.0117 1.46484L73.0488 4.3251V6.79856L78.0117 9.65882V7.19554L75.1845 5.55674L78.0117 3.92813V1.46484Z" fill="#8855F1" fill-opacity="0.5"/>
<path d="M80.5755 11.1255L87.6231 0H85.1926L78.1348 11.1255H80.5755Z" fill="#02D4E4" fill-opacity="0.5"/>
<path d="M223.877 90.4688L218.914 93.329V95.8025L223.877 98.6627V96.1994L221.05 94.5607L223.877 92.932V90.4688Z" fill="#8855F1" fill-opacity="0.5"/>
<path d="M233.496 98.6627L238.459 95.8025V93.329L233.496 90.4688V92.932L236.323 94.5708L233.496 96.1994V98.6627Z" fill="#8855F1" fill-opacity="0.5"/>
<path d="M226.449 100.129L233.496 89.0039H231.055L224.008 100.129H226.449Z" fill="#02D4E4" fill-opacity="0.5"/>
<path d="M238.521 101.594L233.559 104.464V106.927L238.521 109.788V107.324L235.694 105.696L238.521 104.057V101.594Z" fill="#8855F1" fill-opacity="0.5"/>
<path d="M248.143 109.788L253.095 106.927V104.464L248.143 101.594V104.057L250.97 105.696L248.143 107.324V109.788Z" fill="#8855F1" fill-opacity="0.5"/>
<path d="M241.085 111.254L248.143 100.129H245.702L238.654 111.254H241.085Z" fill="#02D4E4" fill-opacity="0.5"/>
<path d="M253.095 112.719L248.143 115.579V118.052L253.095 120.913V118.449L250.268 116.821L253.095 115.182V112.719Z" fill="#8855F1" fill-opacity="0.5"/>
<path d="M262.715 120.913L267.678 118.052V115.579L262.715 112.719V115.182L265.542 116.821L262.715 118.449V120.913Z" fill="#8855F1" fill-opacity="0.5"/>
<path d="M255.667 122.379L262.715 111.254H260.274L253.227 122.379H255.667Z" fill="#02D4E4" fill-opacity="0.5"/>
<path d="M238.521 123.848L233.559 126.718V129.181L238.521 132.042V129.578L235.694 127.95L238.521 126.311V123.848Z" fill="#8855F1" fill-opacity="0.5"/>
<path d="M248.143 132.042L253.095 129.181V126.718L248.143 123.848V126.311L250.97 127.95L248.143 129.578V132.042Z" fill="#8855F1" fill-opacity="0.5"/>
<path d="M241.085 133.504L248.143 122.379H245.702L238.654 133.504H241.085Z" fill="#02D4E4" fill-opacity="0.5"/>
<path d="M233.559 120.913L238.521 118.052V115.579L233.559 112.719V115.182L236.386 116.821L233.559 118.449V120.913Z" fill="#8855F1" fill-opacity="0.5"/>
<path d="M233.59 143.177L238.553 140.306V137.843L233.59 134.973V137.436L236.417 139.075L233.59 140.703V143.177Z" fill="#8855F1" fill-opacity="0.5"/>
<path d="M238.553 146.098L233.59 148.968V151.431L238.553 154.302V151.828L235.725 150.2L238.553 148.561V146.098Z" fill="#8855F1" fill-opacity="0.5"/>
<path d="M248.172 154.302L253.135 151.431V148.968L248.172 146.098V148.561L250.999 150.2L248.172 151.828V154.302Z" fill="#8855F1" fill-opacity="0.5"/>
<path d="M241.114 155.758L248.172 144.633H245.731L238.684 155.758H241.114Z" fill="#02D4E4" fill-opacity="0.5"/>
<path d="M233.59 165.427L238.553 162.556V160.093L233.59 157.223V159.686L236.417 161.325L233.59 162.953V165.427Z" fill="#8855F1" fill-opacity="0.5"/>
<path d="M267.678 123.848L262.715 126.718V129.181L267.678 132.042V129.578L264.85 127.95L267.678 126.311V123.848Z" fill="#8855F1" fill-opacity="0.5"/>
<path d="M267.678 146.098L262.715 148.968V151.431L267.678 154.302V151.828L264.85 150.2L267.678 148.561V146.098Z" fill="#8855F1" fill-opacity="0.5"/>
<path d="M253.095 134.973L248.143 137.843V140.306L253.095 143.177V140.703L250.268 139.075L253.095 137.436V134.973Z" fill="#8855F1" fill-opacity="0.5"/>
<path d="M262.715 143.177L267.678 140.306V137.843L262.715 134.973V137.436L265.542 139.075L262.715 140.703V143.177Z" fill="#8855F1" fill-opacity="0.5"/>
<path d="M255.667 144.633L262.715 133.508H260.274L253.227 144.633H255.667Z" fill="#02D4E4" fill-opacity="0.5"/>
<path d="M253.135 157.223L248.172 160.093V162.556L253.135 165.427V162.953L250.308 161.325L253.135 159.686V157.223Z" fill="#8855F1" fill-opacity="0.5"/>
<path d="M262.746 165.427L267.709 162.556V160.093L262.746 157.223V159.686L265.573 161.325L262.746 162.953V165.427Z" fill="#8855F1" fill-opacity="0.5"/>
<path d="M255.699 166.883L262.746 155.758H260.316L253.258 166.883H255.699Z" fill="#02D4E4" fill-opacity="0.5"/>
<path d="M267.709 168.348L262.746 171.218V173.681L267.709 176.552V174.078L264.882 172.45L267.709 170.811V168.348Z" fill="#8855F1" fill-opacity="0.5"/>
<path d="M238.553 168.348L233.59 171.218V173.681L238.553 176.552V174.078L235.725 172.45L238.553 170.811V168.348Z" fill="#8855F1" fill-opacity="0.5"/>
<path d="M248.172 176.552L253.135 173.681V171.218L248.172 168.348V170.811L250.999 172.45L248.172 174.078V176.552Z" fill="#8855F1" fill-opacity="0.5"/>
<path d="M241.114 178.008L248.172 166.883H245.731L238.684 178.008H241.114Z" fill="#02D4E4" fill-opacity="0.5"/>
<path d="M253.135 90.4688L248.172 93.329V95.8025L253.135 98.6627V96.1994L250.308 94.5607L253.135 92.932V90.4688Z" fill="#8855F1" fill-opacity="0.5"/>
<path d="M262.746 98.6627L267.709 95.8025V93.329L262.746 90.4688V92.932L265.573 94.5708L262.746 96.1994V98.6627Z" fill="#8855F1" fill-opacity="0.5"/>
<path d="M255.699 100.129L262.746 89.0039H260.316L253.258 100.129H255.699Z" fill="#02D4E4" fill-opacity="0.5"/>
<path d="M267.769 101.594L262.816 104.464V106.927L267.769 109.788V107.324L264.942 105.696L267.769 104.057V101.594Z" fill="#8855F1" fill-opacity="0.5"/>
<path d="M87.623 143.177L92.5859 140.306V137.843L87.623 134.973V137.436L90.4502 139.075L87.623 140.703V143.177Z" fill="#8855F1" fill-opacity="0.5"/>
<path d="M92.646 146.098L87.6934 148.968V151.431L92.646 154.302V151.828L89.8188 150.2L92.646 148.561V146.098Z" fill="#8855F1" fill-opacity="0.5"/>
<path d="M102.266 154.302L107.228 151.431V148.968L102.266 146.098V148.561L105.093 150.2L102.266 151.828V154.302Z" fill="#8855F1" fill-opacity="0.5"/>
<path d="M95.22 155.758L102.268 144.633H99.8269L92.7793 155.758H95.22Z" fill="#02D4E4" fill-opacity="0.5"/>
<path d="M107.228 157.223L102.266 160.093V162.556L107.228 165.427V162.953L104.401 161.325L107.228 159.686V157.223Z" fill="#8855F1" fill-opacity="0.5"/>
<path d="M116.84 165.427L121.803 162.556V160.093L116.84 157.223V159.686L119.667 161.325L116.84 162.953V165.427Z" fill="#8855F1" fill-opacity="0.5"/>
<path d="M109.792 166.883L116.84 155.758H114.409L107.352 166.883H109.792Z" fill="#02D4E4" fill-opacity="0.5"/>
<path d="M92.646 168.348L87.6934 171.218V173.681L92.646 176.552V174.078L89.8188 172.45L92.646 170.811V168.348Z" fill="#8855F1" fill-opacity="0.5"/>
<path d="M102.266 176.552L107.228 173.681V171.218L102.266 168.348V170.811L105.093 172.45L102.266 174.078V176.552Z" fill="#8855F1" fill-opacity="0.5"/>
<path d="M95.22 178.008L102.268 166.883H99.8269L92.7793 178.008H95.22Z" fill="#02D4E4" fill-opacity="0.5"/>
<path d="M87.6934 165.427L92.646 162.556V160.093L87.6934 157.223V159.686L90.5104 161.325L87.6934 162.953V165.427Z" fill="#8855F1" fill-opacity="0.5"/>
<path d="M121.803 168.348L116.84 171.218V173.681L121.803 176.552V174.078L118.975 172.45L121.803 170.811V168.348Z" fill="#8855F1" fill-opacity="0.5"/>
<path d="M131.424 176.552L136.387 173.681V171.218L131.424 168.348V170.811L134.251 172.45L131.424 174.078V176.552Z" fill="#8855F1" fill-opacity="0.5"/>
<path d="M124.376 178.008L131.424 166.883H128.983L121.936 178.008H124.376Z" fill="#02D4E4" fill-opacity="0.5"/>
<path d="M87.7246 98.6627L92.6874 95.8025V93.329L87.7246 90.4688V92.932L90.5518 94.5708L87.7246 96.1994V98.6627Z" fill="#8855F1" fill-opacity="0.5"/>
<path d="M92.6874 101.594L87.7246 104.464V106.927L92.6874 109.788V107.324L89.8603 105.696L92.6874 104.057V101.594Z" fill="#8855F1" fill-opacity="0.5"/>
<path d="M102.297 109.788L107.26 106.927V104.464L102.297 101.594V104.057L105.124 105.696L102.297 107.324V109.788Z" fill="#8855F1" fill-opacity="0.5"/>
<path d="M95.2493 111.254L102.297 100.129H99.8562L92.8086 111.254H95.2493Z" fill="#02D4E4" fill-opacity="0.5"/>
<path d="M87.7246 120.913L92.6874 118.052V115.579L87.7246 112.719V115.182L90.5518 116.821L87.7246 118.449V120.913Z" fill="#8855F1" fill-opacity="0.5"/>
<path d="M136.387 90.4688L131.424 93.329V95.8025L136.387 98.6627V96.1994L133.559 94.5607L136.387 92.932V90.4688Z" fill="#8855F1" fill-opacity="0.5"/>
<path d="M145.996 98.6627L150.959 95.8025V93.329L145.996 90.4688V92.932L148.823 94.5708L145.996 96.1994V98.6627Z" fill="#8855F1" fill-opacity="0.5"/>
<path d="M138.951 100.129L145.998 89.0039H143.557L136.51 100.129H138.951Z" fill="#02D4E4" fill-opacity="0.5"/>
<path d="M121.803 101.594L116.84 104.464V106.927L121.803 109.788V107.324L118.975 105.696L121.803 104.057V101.594Z" fill="#8855F1" fill-opacity="0.5"/>
<path d="M131.424 109.788L136.387 106.927V104.464L131.424 101.594V104.057L134.251 105.696L131.424 107.324V109.788Z" fill="#8855F1" fill-opacity="0.5"/>
<path d="M124.376 111.254L131.424 100.129H128.983L121.936 111.254H124.376Z" fill="#02D4E4" fill-opacity="0.5"/>
<path d="M107.228 90.4688L102.266 93.329V95.8025L107.228 98.6627V96.1994L104.401 94.5607L107.228 92.932V90.4688Z" fill="#8855F1" fill-opacity="0.5"/>
<path d="M116.84 98.6627L121.803 95.8025V93.329L116.84 90.4688V92.932L119.667 94.5708L116.84 96.1994V98.6627Z" fill="#8855F1" fill-opacity="0.5"/>
<path d="M109.792 100.129L116.84 89.0039H114.409L107.352 100.129H109.792Z" fill="#02D4E4" fill-opacity="0.5"/>
<path d="M151.021 101.594L146.068 104.464V106.927L151.021 109.788V107.324L148.194 105.696L151.021 104.057V101.594Z" fill="#8855F1" fill-opacity="0.5"/>
<path d="M160.641 109.788L165.603 106.927V104.464L160.641 101.594V104.057L163.468 105.696L160.641 107.324V109.788Z" fill="#8855F1" fill-opacity="0.5"/>
<path d="M153.593 111.254L160.641 100.129H158.2L151.152 111.254H153.593Z" fill="#02D4E4" fill-opacity="0.5"/>
<path d="M165.603 112.719L160.641 115.579V118.052L165.603 120.913V118.449L162.776 116.821L165.603 115.182V112.719Z" fill="#8855F1" fill-opacity="0.5"/>
<path d="M175.215 120.913L180.178 118.052V115.579L175.215 112.719V115.182L178.042 116.821L175.215 118.449V120.913Z" fill="#8855F1" fill-opacity="0.5"/>
<path d="M168.167 122.379L175.214 111.254H172.784L165.736 122.379H168.167Z" fill="#02D4E4" fill-opacity="0.5"/>
<path d="M151.021 123.848L146.068 126.718V129.181L151.021 132.042V129.578L148.194 127.95L151.021 126.311V123.848Z" fill="#8855F1" fill-opacity="0.5"/>
<path d="M160.641 132.042L165.603 129.181V126.718L160.641 123.848V126.311L163.468 127.95L160.641 129.578V132.042Z" fill="#8855F1" fill-opacity="0.5"/>
<path d="M153.593 133.504L160.641 122.379H158.2L151.152 133.504H153.593Z" fill="#02D4E4" fill-opacity="0.5"/>
<path d="M136.447 112.719L131.484 115.579V118.052L136.447 120.913V118.449L133.62 116.821L136.447 115.182V112.719Z" fill="#8855F1" fill-opacity="0.5"/>
<path d="M146.068 120.913L151.021 118.052V115.579L146.068 112.719V115.182L148.896 116.821L146.068 118.449V120.913Z" fill="#8855F1" fill-opacity="0.5"/>
<path d="M139.011 122.379L146.068 111.254H143.628L136.58 122.379H139.011Z" fill="#02D4E4" fill-opacity="0.5"/>
<path d="M107.26 112.719L102.297 115.579V118.052L107.26 120.913V118.449L104.433 116.821L107.26 115.182V112.719Z" fill="#8855F1" fill-opacity="0.5"/>
<path d="M116.871 120.913L121.834 118.052V115.579L116.871 112.719V115.182L119.708 116.821L116.871 118.449V120.913Z" fill="#8855F1" fill-opacity="0.5"/>
<path d="M109.823 122.379L116.871 111.254H114.44L107.393 122.379H109.823Z" fill="#02D4E4" fill-opacity="0.5"/>
<path d="M121.834 123.848L116.871 126.718V129.181L121.834 132.042V129.578L119.007 127.95L121.834 126.311V123.848Z" fill="#8855F1" fill-opacity="0.5"/>
<path d="M131.453 132.042L136.416 129.181V126.718L131.453 123.848V126.311L134.28 127.95L131.453 129.578V132.042Z" fill="#8855F1" fill-opacity="0.5"/>
<path d="M124.406 133.504L131.453 122.379H129.012L121.965 133.504H124.406Z" fill="#02D4E4" fill-opacity="0.5"/>
<path d="M107.26 134.973L102.297 137.843V140.306L107.26 143.177V140.703L104.433 139.075L107.26 137.436V134.973Z" fill="#8855F1" fill-opacity="0.5"/>
<path d="M116.871 143.177L121.834 140.306V137.843L116.871 134.973V137.436L119.708 139.075L116.871 140.703V143.177Z" fill="#8855F1" fill-opacity="0.5"/>
<path d="M109.823 144.633L116.871 133.508H114.44L107.393 144.633H109.823Z" fill="#02D4E4" fill-opacity="0.5"/>
<path d="M92.6874 123.848L87.7246 126.718V129.181L92.6874 132.042V129.578L89.8603 127.95L92.6874 126.311V123.848Z" fill="#8855F1" fill-opacity="0.5"/>
<path d="M102.297 132.042L107.26 129.181V126.718L102.297 123.848V126.311L105.124 127.95L102.297 129.578V132.042Z" fill="#8855F1" fill-opacity="0.5"/>
<path d="M95.2493 133.504L102.297 122.379H99.8562L92.8086 133.504H95.2493Z" fill="#02D4E4" fill-opacity="0.5"/>
<path d="M136.478 134.973L131.516 137.843V140.306L136.478 143.177V140.703L133.651 139.075L136.478 137.436V134.973Z" fill="#8855F1" fill-opacity="0.5"/>
<path d="M146.1 143.177L151.052 140.306V137.843L146.1 134.973V137.436L148.927 139.075L146.1 140.703V143.177Z" fill="#8855F1" fill-opacity="0.5"/>
<path d="M139.04 144.629L146.098 133.504H143.657L136.609 144.629H139.04Z" fill="#02D4E4" fill-opacity="0.5"/>
<path d="M151.05 146.098L146.098 148.968V151.431L151.05 154.302V151.828L148.223 150.2L151.05 148.561V146.098Z" fill="#8855F1" fill-opacity="0.5"/>
<path d="M160.672 154.302L165.635 151.431V148.968L160.672 146.098V148.561L163.499 150.2L160.672 151.828V154.302Z" fill="#8855F1" fill-opacity="0.5"/>
<path d="M153.624 155.758L160.672 144.633H158.231L151.184 155.758H153.624Z" fill="#02D4E4" fill-opacity="0.5"/>
<path d="M136.478 157.223L131.516 160.093V162.556L136.478 165.427V162.953L133.651 161.325L136.478 159.686V157.223Z" fill="#8855F1" fill-opacity="0.5"/>
<path d="M146.1 165.427L151.052 162.556V160.093L146.1 157.223V159.686L148.927 161.325L146.1 162.953V165.427Z" fill="#8855F1" fill-opacity="0.5"/>
<path d="M139.04 166.883L146.098 155.758H143.657L136.609 166.883H139.04Z" fill="#02D4E4" fill-opacity="0.5"/>
<path d="M121.904 146.098L116.941 148.968V151.431L121.904 154.302V151.828L119.077 150.2L121.904 148.561V146.098Z" fill="#8855F1" fill-opacity="0.5"/>
<path d="M131.516 154.302L136.478 151.431V148.968L131.516 146.098V148.561L134.343 150.2L131.516 151.828V154.302Z" fill="#8855F1" fill-opacity="0.5"/>
<path d="M124.468 155.758L131.516 144.633H129.085L122.027 155.758H124.468Z" fill="#02D4E4" fill-opacity="0.5"/>
<path d="M180.178 123.848L175.215 126.718V129.181L180.178 132.042V129.578L177.35 127.95L180.178 126.311V123.848Z" fill="#8855F1" fill-opacity="0.5"/>
<path d="M189.797 132.042L194.75 129.181V126.718L189.797 123.848V126.311L192.624 127.95L189.797 129.578V132.042Z" fill="#8855F1" fill-opacity="0.5"/>
<path d="M182.739 133.504L189.797 122.379H187.356L180.309 133.504H182.739Z" fill="#02D4E4" fill-opacity="0.5"/>
<path d="M194.76 134.973L189.797 137.843V140.306L194.76 143.177V140.703L191.933 139.075L194.76 137.436V134.973Z" fill="#8855F1" fill-opacity="0.5"/>
<path d="M204.371 143.177L209.334 140.306V137.843L204.371 134.973V137.436L207.198 139.075L204.371 140.703V143.177Z" fill="#8855F1" fill-opacity="0.5"/>
<path d="M197.324 144.633L204.371 133.508H201.93L194.883 144.633H197.324Z" fill="#02D4E4" fill-opacity="0.5"/>
<path d="M180.178 146.098L175.215 148.968V151.431L180.178 154.302V151.828L177.35 150.2L180.178 148.561V146.098Z" fill="#8855F1" fill-opacity="0.5"/>
<path d="M189.797 154.302L194.75 151.431V148.968L189.797 146.098V148.561L192.624 150.2L189.797 151.828V154.302Z" fill="#8855F1" fill-opacity="0.5"/>
<path d="M182.739 155.758L189.797 144.633H187.356L180.309 155.758H182.739Z" fill="#02D4E4" fill-opacity="0.5"/>
<path d="M165.603 134.973L160.641 137.843V140.306L165.603 143.177V140.703L162.776 139.075L165.603 137.436V134.973Z" fill="#8855F1" fill-opacity="0.5"/>
<path d="M175.215 143.177L180.178 140.306V137.843L175.215 134.973V137.436L178.042 139.075L175.215 140.703V143.177Z" fill="#8855F1" fill-opacity="0.5"/>
<path d="M168.167 144.629L175.214 133.504H172.784L165.736 144.629H168.167Z" fill="#02D4E4" fill-opacity="0.5"/>
<path d="M209.396 146.098L204.443 148.968V151.431L209.396 154.302V151.828L206.569 150.2L209.396 148.561V146.098Z" fill="#8855F1" fill-opacity="0.5"/>
<path d="M219.016 154.302L223.978 151.431V148.968L219.016 146.098V148.561L221.843 150.2L219.016 151.828V154.302Z" fill="#8855F1" fill-opacity="0.5"/>
<path d="M211.968 155.758L219.016 144.633H216.575L209.527 155.758H211.968Z" fill="#02D4E4" fill-opacity="0.5"/>
<path d="M223.978 157.223L219.016 160.093V162.556L223.978 165.427V162.953L221.151 161.325L223.978 159.686V157.223Z" fill="#8855F1" fill-opacity="0.5"/>
<path d="M226.542 166.883L233.59 155.758H231.159L224.102 166.883H226.542Z" fill="#02D4E4" fill-opacity="0.5"/>
<path d="M209.396 168.348L204.443 171.218V173.681L209.396 176.552V174.078L206.569 172.45L209.396 170.811V168.348Z" fill="#8855F1" fill-opacity="0.5"/>
<path d="M219.016 176.552L223.978 173.681V171.218L219.016 168.348V170.811L221.843 172.45L219.016 174.078V176.552Z" fill="#8855F1" fill-opacity="0.5"/>
<path d="M211.968 178.008L219.016 166.883H216.575L209.527 178.008H211.968Z" fill="#02D4E4" fill-opacity="0.5"/>
<path d="M194.822 157.223L189.859 160.093V162.556L194.822 165.427V162.953L191.995 161.325L194.822 159.686V157.223Z" fill="#8855F1" fill-opacity="0.5"/>
<path d="M204.443 165.427L209.396 162.556V160.093L204.443 157.223V159.686L207.271 161.325L204.443 162.953V165.427Z" fill="#8855F1" fill-opacity="0.5"/>
<path d="M197.384 166.883L204.442 155.758H202.001L194.943 166.883H197.384Z" fill="#02D4E4" fill-opacity="0.5"/>
<path d="M165.635 157.223L160.672 160.093V162.556L165.635 165.427V162.953L162.807 161.325L165.635 159.686V157.223Z" fill="#8855F1" fill-opacity="0.5"/>
<path d="M175.246 165.427L180.209 162.556V160.093L175.246 157.223V159.686L178.073 161.325L175.246 162.953V165.427Z" fill="#8855F1" fill-opacity="0.5"/>
<path d="M168.198 166.883L175.256 155.758H172.815L165.768 166.883H168.198Z" fill="#02D4E4" fill-opacity="0.5"/>
<path d="M180.209 168.348L175.256 171.218V173.681L180.209 176.552V174.078L177.381 172.45L180.209 170.811V168.348Z" fill="#8855F1" fill-opacity="0.5"/>
<path d="M189.828 176.552L194.791 173.681V171.218L189.828 168.348V170.811L192.655 172.45L189.828 174.078V176.552Z" fill="#8855F1" fill-opacity="0.5"/>
<path d="M182.781 178.008L189.828 166.883H187.387L180.34 178.008H182.781Z" fill="#02D4E4" fill-opacity="0.5"/>
<path d="M151.052 168.348L146.1 171.218V173.681L151.052 176.552V174.078L148.225 172.45L151.052 170.811V168.348Z" fill="#8855F1" fill-opacity="0.5"/>
<path d="M160.672 176.552L165.635 173.681V171.218L160.672 168.348V170.811L163.499 172.45L160.672 174.078V176.552Z" fill="#8855F1" fill-opacity="0.5"/>
<path d="M153.624 178.008L160.672 166.883H158.231L151.184 178.008H153.624Z" fill="#02D4E4" fill-opacity="0.5"/>
<path d="M165.635 90.4688L160.672 93.329V95.8025L165.635 98.6627V96.1994L162.807 94.5607L165.635 92.932V90.4688Z" fill="#8855F1" fill-opacity="0.5"/>
<path d="M175.246 98.6627L180.209 95.8025V93.329L175.246 90.4688V92.932L178.073 94.5708L175.246 96.1994V98.6627Z" fill="#8855F1" fill-opacity="0.5"/>
<path d="M168.198 100.129L175.256 89.0039H172.815L165.768 100.129H168.198Z" fill="#02D4E4" fill-opacity="0.5"/>
<path d="M194.852 90.4688L189.889 93.329V95.8025L194.852 98.6627V96.1994L192.024 94.5607L194.852 92.932V90.4688Z" fill="#8855F1" fill-opacity="0.5"/>
<path d="M204.473 98.6627L209.435 95.8025V93.329L204.473 90.4688V92.932L207.3 94.5708L204.473 96.1994V98.6627Z" fill="#8855F1" fill-opacity="0.5"/>
<path d="M197.415 100.129L204.473 89.0039H202.032L194.984 100.129H197.415Z" fill="#02D4E4" fill-opacity="0.5"/>
<path d="M209.435 101.594L204.473 104.464V106.927L209.435 109.788V107.324L206.598 105.696L209.435 104.057V101.594Z" fill="#8855F1" fill-opacity="0.5"/>
<path d="M219.045 109.788L224.008 106.927V104.464L219.045 101.594V104.057L221.872 105.696L219.045 107.324V109.788Z" fill="#8855F1" fill-opacity="0.5"/>
<path d="M211.997 111.254L219.045 100.129H216.604L209.557 111.254H211.997Z" fill="#02D4E4" fill-opacity="0.5"/>
<path d="M194.852 112.719L189.889 115.579V118.052L194.852 120.913V118.449L192.024 116.821L194.852 115.182V112.719Z" fill="#8855F1" fill-opacity="0.5"/>
<path d="M204.473 120.913L209.435 118.052V115.579L204.473 112.719V115.182L207.3 116.821L204.473 118.449V120.913Z" fill="#8855F1" fill-opacity="0.5"/>
<path d="M197.415 122.379L204.473 111.254H202.032L194.984 122.379H197.415Z" fill="#02D4E4" fill-opacity="0.5"/>
<path d="M180.279 101.594L175.316 104.464V106.927L180.279 109.788V107.324L177.452 105.696L180.279 104.057V101.594Z" fill="#8855F1" fill-opacity="0.5"/>
<path d="M189.889 109.788L194.852 106.927V104.464L189.889 101.594V104.057L192.716 105.696L189.889 107.324V109.788Z" fill="#8855F1" fill-opacity="0.5"/>
<path d="M182.841 111.254L189.889 100.129H187.448L180.4 111.254H182.841Z" fill="#02D4E4" fill-opacity="0.5"/>
<path d="M224.008 112.719L219.045 115.579V118.052L224.008 120.913V118.449L221.181 116.821L224.008 115.182V112.719Z" fill="#8855F1" fill-opacity="0.5"/>
<path d="M226.571 122.379L233.629 111.254H231.188L224.141 122.379H226.571Z" fill="#02D4E4" fill-opacity="0.5"/>
<path d="M224.008 134.973L219.045 137.843V140.306L224.008 143.177V140.703L221.181 139.075L224.008 137.436V134.973Z" fill="#8855F1" fill-opacity="0.5"/>
<path d="M226.571 144.629L233.629 133.504H231.188L224.141 144.629H226.571Z" fill="#02D4E4" fill-opacity="0.5"/>
<path d="M209.435 123.848L204.473 126.718V129.181L209.435 132.042V129.578L206.608 127.95L209.435 126.311V123.848Z" fill="#8855F1" fill-opacity="0.5"/>
<path d="M219.045 132.042L224.008 129.181V126.718L219.045 123.848V126.311L221.872 127.95L219.045 129.578V132.042Z" fill="#8855F1" fill-opacity="0.5"/>
<path d="M211.997 133.504L219.045 122.379H216.614L209.557 133.504H211.997Z" fill="#02D4E4" fill-opacity="0.5"/>
<path d="M0 143.177L4.96283 140.306L4.96283 137.843L0 134.973L0 137.436L2.82719 139.075L0 140.703L0 143.177Z" fill="#8855F1" fill-opacity="0.5"/>
<path d="M5.02338 146.098L0.0605469 148.968L0.0605469 151.431L5.02338 154.302V151.828L2.19619 150.2L5.02338 148.561V146.098Z" fill="#8855F1" fill-opacity="0.5"/>
<path d="M14.6445 154.302L19.5972 151.431V148.968L14.6445 146.098V148.561L17.4717 150.2L14.6445 151.828V154.302Z" fill="#8855F1" fill-opacity="0.5"/>
<path d="M7.58682 155.758L14.6446 144.633H12.2039L5.15625 155.758H7.58682Z" fill="#02D4E4" fill-opacity="0.5"/>
<path d="M19.5972 157.223L14.6445 160.093V162.556L19.5972 165.427V162.953L16.7802 161.325L19.5972 159.686V157.223Z" fill="#8855F1" fill-opacity="0.5"/>
<path d="M29.2188 165.427L34.1816 162.556V160.093L29.2188 157.223V159.686L32.0459 161.325L29.2188 162.953V165.427Z" fill="#8855F1" fill-opacity="0.5"/>
<path d="M22.1712 166.883L29.2188 155.758H26.7781L19.7305 166.883H22.1712Z" fill="#02D4E4" fill-opacity="0.5"/>
<path d="M5.02338 168.348L0.0605469 171.218L0.0605469 173.681L5.02338 176.552V174.078L2.19619 172.45L5.02338 170.811V168.348Z" fill="#8855F1" fill-opacity="0.5"/>
<path d="M14.6445 176.552L19.5972 173.681V171.218L14.6445 168.348V170.811L17.4717 172.45L14.6445 174.078V176.552Z" fill="#8855F1" fill-opacity="0.5"/>
<path d="M7.58682 178.008L14.6446 166.883H12.2039L5.15625 178.008H7.58682Z" fill="#02D4E4" fill-opacity="0.5"/>
<path d="M0.0605469 165.427L5.02338 162.556L5.02338 160.093L0.0605469 157.223L0.0605469 159.686L2.88774 161.325L0.0605469 162.953L0.0605469 165.427Z" fill="#8855F1" fill-opacity="0.5"/>
<path d="M34.1816 168.348L29.2188 171.218V173.681L34.1816 176.552V174.078L31.3544 172.45L34.1816 170.811V168.348Z" fill="#8855F1" fill-opacity="0.5"/>
<path d="M43.791 176.552L48.7538 173.681V171.218L43.791 168.348V170.811L46.6284 172.45L43.791 174.078V176.552Z" fill="#8855F1" fill-opacity="0.5"/>
<path d="M36.7431 178.008L43.7907 166.883H41.3601L34.3125 178.008H36.7431Z" fill="#02D4E4" fill-opacity="0.5"/>
<path d="M0.101563 98.6627L5.05423 95.8025L5.05423 93.329L0.101562 90.4688L0.101563 92.932L2.91858 94.5708L0.101563 96.1994L0.101563 98.6627Z" fill="#8855F1" fill-opacity="0.5"/>
<path d="M5.05423 101.594L0.101563 104.464L0.101563 106.927L5.05423 109.788V107.324L2.22704 105.696L5.05423 104.057V101.594Z" fill="#8855F1" fill-opacity="0.5"/>
<path d="M14.6738 109.788L19.6367 106.927V104.464L14.6738 101.594V104.057L17.501 105.696L14.6738 107.324V109.788Z" fill="#8855F1" fill-opacity="0.5"/>
<path d="M7.62629 111.254L14.6739 100.129H12.2332L5.18555 111.254H7.62629Z" fill="#02D4E4" fill-opacity="0.5"/>
<path d="M0.101563 120.913L5.05423 118.052L5.05423 115.579L0.101562 112.719L0.101563 115.182L2.91858 116.821L0.101563 118.449L0.101563 120.913Z" fill="#8855F1" fill-opacity="0.5"/>
<path d="M48.7538 90.4688L43.791 93.329V95.8025L48.7538 98.6627V96.1994L45.9267 94.5607L48.7538 92.932V90.4688Z" fill="#8855F1" fill-opacity="0.5"/>
<path d="M58.375 98.6627L63.3378 95.8025V93.329L58.375 90.4688V92.932L61.2022 94.5708L58.375 96.1994V98.6627Z" fill="#8855F1" fill-opacity="0.5"/>
<path d="M51.3275 100.129L58.3751 89.0039H55.9343L48.8867 100.129H51.3275Z" fill="#02D4E4" fill-opacity="0.5"/>
<path d="M34.1816 101.594L29.2188 104.464V106.927L34.1816 109.788V107.324L31.3544 105.696L34.1816 104.057V101.594Z" fill="#8855F1" fill-opacity="0.5"/>
<path d="M43.791 109.788L48.7538 106.927V104.464L43.791 101.594V104.057L46.6284 105.696L43.791 107.324V109.788Z" fill="#8855F1" fill-opacity="0.5"/>
<path d="M36.7431 111.254L43.7907 100.129H41.3601L34.3125 111.254H36.7431Z" fill="#02D4E4" fill-opacity="0.5"/>
<path d="M19.6074 90.4688L14.6445 93.329V95.8025L19.6074 98.6627V96.1994L16.7802 94.5607L19.6074 92.932V90.4688Z" fill="#8855F1" fill-opacity="0.5"/>
<path d="M29.2188 98.6627L34.1816 95.8025V93.329L29.2188 90.4688V92.932L32.0459 94.5708L29.2188 96.1994V98.6627Z" fill="#8855F1" fill-opacity="0.5"/>
<path d="M22.1712 100.129L29.2188 89.0039H26.7883L19.7305 100.129H22.1712Z" fill="#02D4E4" fill-opacity="0.5"/>
<path d="M63.3984 101.594L58.4355 104.464V106.927L63.3984 109.788V107.324L60.5712 105.696L63.3984 104.057V101.594Z" fill="#8855F1" fill-opacity="0.5"/>
<path d="M73.0176 109.788L77.9702 106.927V104.464L73.0176 101.594V104.057L75.8448 105.696L73.0176 107.324V109.788Z" fill="#8855F1" fill-opacity="0.5"/>
<path d="M65.9599 111.254L73.0177 100.129H70.5769L63.5293 111.254H65.9599Z" fill="#02D4E4" fill-opacity="0.5"/>
<path d="M77.9702 112.719L73.0176 115.579V118.052L77.9702 120.913V118.449L75.143 116.821L77.9702 115.182V112.719Z" fill="#8855F1" fill-opacity="0.5"/>
<path d="M80.5443 122.379L87.5919 111.254H85.1512L78.1035 122.379H80.5443Z" fill="#02D4E4" fill-opacity="0.5"/>
<path d="M63.3984 123.848L58.4355 126.718V129.181L63.3984 132.042V129.578L60.5712 127.95L63.3984 126.311V123.848Z" fill="#8855F1" fill-opacity="0.5"/>
<path d="M73.0176 132.042L77.9702 129.181V126.718L73.0176 123.848V126.311L75.8448 127.95L73.0176 129.578V132.042Z" fill="#8855F1" fill-opacity="0.5"/>
<path d="M65.9599 133.504L73.0177 122.379H70.5769L63.5293 133.504H65.9599Z" fill="#02D4E4" fill-opacity="0.5"/>
<path d="M48.8242 112.719L43.8613 115.579V118.052L48.8242 120.913V118.449L45.997 116.821L48.8242 115.182V112.719Z" fill="#8855F1" fill-opacity="0.5"/>
<path d="M58.4355 120.913L63.3984 118.052V115.579L58.4355 112.719V115.182L61.2627 116.821L58.4355 118.449V120.913Z" fill="#8855F1" fill-opacity="0.5"/>
<path d="M51.388 122.379L58.4356 111.254H56.0051L48.9473 122.379H51.388Z" fill="#02D4E4" fill-opacity="0.5"/>
<path d="M19.6367 112.719L14.6738 115.579V118.052L19.6367 120.913V118.449L16.8095 116.821L19.6367 115.182V112.719Z" fill="#8855F1" fill-opacity="0.5"/>
<path d="M29.248 120.913L34.2109 118.052V115.579L29.248 112.719V115.182L32.0752 116.821L29.248 118.449V120.913Z" fill="#8855F1" fill-opacity="0.5"/>
<path d="M22.2005 122.379L29.2481 111.254H26.8176L19.7598 122.379H22.2005Z" fill="#02D4E4" fill-opacity="0.5"/>
<path d="M34.2109 123.848L29.248 126.718V129.181L34.2109 132.042V129.578L31.3837 127.95L34.2109 126.311V123.848Z" fill="#8855F1" fill-opacity="0.5"/>
<path d="M43.832 132.042L48.7949 129.181V126.718L43.832 123.848V126.311L46.6592 127.95L43.832 129.578V132.042Z" fill="#8855F1" fill-opacity="0.5"/>
<path d="M36.7743 133.504L43.8321 122.379H41.3914L34.3438 133.504H36.7743Z" fill="#02D4E4" fill-opacity="0.5"/>
<path d="M19.6367 134.973L14.6738 137.843V140.306L19.6367 143.177V140.703L16.8095 139.075L19.6367 137.436V134.973Z" fill="#8855F1" fill-opacity="0.5"/>
<path d="M29.248 143.177L34.2109 140.306V137.843L29.248 134.973V137.436L32.0752 139.075L29.248 140.703V143.177Z" fill="#8855F1" fill-opacity="0.5"/>
<path d="M22.2005 144.633L29.2481 133.508H26.8176L19.7598 144.633H22.2005Z" fill="#02D4E4" fill-opacity="0.5"/>
<path d="M5.05423 123.848L0.101563 126.718L0.101563 129.181L5.05423 132.042V129.578L2.22704 127.95L5.05423 126.311V123.848Z" fill="#8855F1" fill-opacity="0.5"/>
<path d="M14.6738 132.042L19.6367 129.181V126.718L14.6738 123.848V126.311L17.501 127.95L14.6738 129.578V132.042Z" fill="#8855F1" fill-opacity="0.5"/>
<path d="M7.62629 133.504L14.6739 122.379H12.2332L5.18555 133.504H7.62629Z" fill="#02D4E4" fill-opacity="0.5"/>
<path d="M48.8554 134.973L43.8926 137.843V140.306L48.8554 143.177V140.703L46.0282 139.075L48.8554 137.436V134.973Z" fill="#8855F1" fill-opacity="0.5"/>
<path d="M58.4668 143.177L63.4296 140.306V137.843L58.4668 134.973V137.436L61.294 139.075L58.4668 140.703V143.177Z" fill="#8855F1" fill-opacity="0.5"/>
<path d="M51.4193 144.633L58.4669 133.508H56.0363L48.9785 144.633H51.4193Z" fill="#02D4E4" fill-opacity="0.5"/>
<path d="M63.4296 146.098L58.4668 148.968V151.431L63.4296 154.302V151.828L60.6024 150.2L63.4296 148.561V146.098Z" fill="#8855F1" fill-opacity="0.5"/>
<path d="M73.0488 154.302L78.0117 151.431V148.968L73.0488 146.098V148.561L75.876 150.2L73.0488 151.828V154.302Z" fill="#8855F1" fill-opacity="0.5"/>
<path d="M66.0013 155.758L73.0489 144.633H70.6082L63.5605 155.758H66.0013Z" fill="#02D4E4" fill-opacity="0.5"/>
<path d="M48.8554 157.223L43.8926 160.093V162.556L48.8554 165.427V162.953L46.0282 161.325L48.8554 159.686V157.223Z" fill="#8855F1" fill-opacity="0.5"/>
<path d="M58.4668 165.427L63.4296 162.556V160.093L58.4668 157.223V159.686L61.294 161.325L58.4668 162.953V165.427Z" fill="#8855F1" fill-opacity="0.5"/>
<path d="M51.4193 166.883L58.4669 155.758H56.0363L48.9785 166.883H51.4193Z" fill="#02D4E4" fill-opacity="0.5"/>
<path d="M34.273 146.098L29.3203 148.968V151.431L34.273 154.302V151.828L31.456 150.2L34.273 148.561V146.098Z" fill="#8855F1" fill-opacity="0.5"/>
<path d="M43.8926 154.302L48.8554 151.431V148.968L43.8926 146.098V148.561L46.7198 150.2L43.8926 151.828V154.302Z" fill="#8855F1" fill-opacity="0.5"/>
<path d="M36.845 155.758L43.8927 144.633H41.4519L34.4043 155.758H36.845Z" fill="#02D4E4" fill-opacity="0.5"/>
<path d="M77.9702 134.973L73.0176 137.843V140.306L77.9702 143.177V140.703L75.143 139.075L77.9702 137.436V134.973Z" fill="#8855F1" fill-opacity="0.5"/>
<path d="M80.5443 144.633L87.5919 133.508H85.1512L78.1035 144.633H80.5443Z" fill="#02D4E4" fill-opacity="0.5"/>
<path d="M78.0117 157.223L73.0488 160.093V162.556L78.0117 165.427V162.953L75.1845 161.325L78.0117 159.686V157.223Z" fill="#8855F1" fill-opacity="0.5"/>
<path d="M80.5755 166.883L87.6231 155.758H85.1926L78.1348 166.883H80.5755Z" fill="#02D4E4" fill-opacity="0.5"/>
<path d="M63.4296 168.348L58.4668 171.218V173.681L63.4296 176.552V174.078L60.6024 172.45L63.4296 170.811V168.348Z" fill="#8855F1" fill-opacity="0.5"/>
<path d="M73.0488 176.552L78.0117 173.681V171.218L73.0488 168.348V170.811L75.876 172.45L73.0488 174.078V176.552Z" fill="#8855F1" fill-opacity="0.5"/>
<path d="M66.0013 178.008L73.0489 166.883H70.6082L63.5605 178.008H66.0013Z" fill="#02D4E4" fill-opacity="0.5"/>
<path d="M78.0117 90.4688L73.0488 93.329V95.8025L78.0117 98.6627V96.1994L75.1845 94.5607L78.0117 92.932V90.4688Z" fill="#8855F1" fill-opacity="0.5"/>
<path d="M80.5755 100.129L87.6231 89.0039H85.1926L78.1348 100.129H80.5755Z" fill="#02D4E4" fill-opacity="0.5"/>
</g>
</svg>
