<svg width="30" height="24" viewBox="0 0 30 24" fill="none" xmlns="http://www.w3.org/2000/svg">
<path d="M7.5412 0.770357C12.5044 0.338918 17.4956 0.338917 22.4588 0.770357L24.85 0.97822C26.4419 1.1166 27.8052 2.06607 28.5116 3.42422C28.602 3.59797 28.5342 3.80833 28.3677 3.91142L18.4466 10.053C16.3188 11.3703 13.6358 11.3979 11.4814 10.1248L1.49399 4.22315C1.33263 4.12781 1.25857 3.93153 1.33128 3.75879C1.97753 2.22364 3.43045 1.1277 5.15 0.97822L7.5412 0.770357Z" fill="white"/>
<path d="M1.32316 6.88086C1.07622 6.73494 0.761127 6.89197 0.732342 7.17736C0.330594 11.1604 0.427828 15.1812 1.02404 19.1461C1.33836 21.2363 3.04425 22.8387 5.15 23.0217L7.5412 23.2296C12.5044 23.661 17.4956 23.661 22.4588 23.2296L24.85 23.0217C26.9558 22.8387 28.6617 21.2363 28.976 19.1461C29.5896 15.0657 29.6747 10.9261 29.2313 6.82924C29.2002 6.54184 28.8797 6.3877 28.6339 6.53986L19.6967 12.0724C16.8179 13.8545 13.188 13.8919 10.2731 12.1695L1.32316 6.88086Z" fill="white"/>
</svg>
