<svg width="24" height="36" viewBox="0 0 24 36" fill="none" xmlns="http://www.w3.org/2000/svg">
<path d="M12 6.75C12.2984 6.75 12.5845 6.86853 12.7955 7.0795C13.0065 7.29048 13.125 7.57663 13.125 7.875V12.375C13.125 12.6734 13.0065 12.9595 12.7955 13.1705C12.5845 13.3815 12.2984 13.5 12 13.5C11.7016 13.5 11.4155 13.3815 11.2045 13.1705C10.9935 12.9595 10.875 12.6734 10.875 12.375V7.875C10.875 7.57663 10.9935 7.29048 11.2045 7.0795C11.4155 6.86853 11.7016 6.75 12 6.75ZM21 24.75C21 27.1369 20.0518 29.4261 18.364 31.114C16.6761 32.8018 14.3869 33.75 12 33.75C9.61305 33.75 7.32387 32.8018 5.63604 31.114C3.94821 29.4261 3 27.1369 3 24.75V11.25C3 8.86305 3.94821 6.57387 5.63604 4.88604C7.32387 3.19821 9.61305 2.25 12 2.25C14.3869 2.25 16.6761 3.19821 18.364 4.88604C20.0518 6.57387 21 8.86305 21 11.25V24.75ZM12 0C9.01631 0 6.15483 1.18526 4.04505 3.29505C1.93526 5.40483 0.75 8.26631 0.75 11.25V24.75C0.75 27.7337 1.93526 30.5952 4.04505 32.705C6.15483 34.8147 9.01631 36 12 36C14.9837 36 17.8452 34.8147 19.955 32.705C22.0647 30.5952 23.25 27.7337 23.25 24.75V11.25C23.25 8.26631 22.0647 5.40483 19.955 3.29505C17.8452 1.18526 14.9837 0 12 0V0Z" fill="white"/>
</svg>
