<svg width="411" height="361" viewBox="0 0 411 361" fill="none" xmlns="http://www.w3.org/2000/svg">
<g style="mix-blend-mode:lighten" opacity="0.6">
<path d="M181.791 335.72L186.066 321.595L181.703 316.949L167.338 320.332L171.683 324.958L179.883 323.049L177.446 331.094L181.791 335.72Z" fill="#8855F1"/>
<path d="M196.282 332.472L192.024 346.617L196.369 351.243L210.735 347.861L206.39 343.235L198.208 345.163L200.627 337.098L196.282 332.472Z" fill="#8855F1"/>
<path d="M228.784 330.909L233.06 316.783L228.715 312.157L214.331 315.52L218.676 320.146L226.876 318.237L224.439 326.283L228.784 330.909Z" fill="#8855F1"/>
<path d="M218.133 346.092L211.745 312.767L207.161 317.072L213.549 350.397L218.133 346.092Z" fill="#02D4E4"/>
<path d="M221.038 377.508L225.313 363.383L220.95 358.738L206.585 362.12L210.93 366.746L219.13 364.837L216.693 372.882L221.038 377.508Z" fill="#8855F1"/>
<path d="M258.73 234.496L254.455 248.622L258.818 253.267L273.183 249.885L268.838 245.259L260.638 247.168L263.075 239.122L258.73 234.496Z" fill="#8855F1"/>
<path d="M291.231 232.935L295.506 218.809L291.143 214.164L276.777 217.546L281.122 222.172L289.323 220.263L286.886 228.309L291.231 232.935Z" fill="#8855F1"/>
<path d="M280.581 248.117L274.193 214.791L269.609 219.097L275.997 252.422L280.581 248.117Z" fill="#02D4E4"/>
<path d="M250.964 281.115L246.706 295.26L251.051 299.886L265.417 296.504L261.072 291.877L252.89 293.806L255.309 285.741L250.964 281.115Z" fill="#8855F1"/>
<path d="M283.486 279.533L287.762 265.407L283.417 260.781L269.033 264.144L273.378 268.77L281.578 266.861L279.141 274.907L283.486 279.533Z" fill="#8855F1"/>
<path d="M272.835 294.717L266.447 261.391L261.863 265.696L268.251 299.022L272.835 294.717Z" fill="#02D4E4"/>
<path d="M203.97 285.926L199.695 300.052L204.058 304.697L218.423 301.315L214.078 296.689L205.878 298.598L208.315 290.553L203.97 285.926Z" fill="#8855F1"/>
<path d="M236.473 284.363L240.748 270.238L236.385 265.593L222.02 268.975L226.365 273.601L234.565 271.692L232.128 279.737L236.473 284.363Z" fill="#8855F1"/>
<path d="M225.821 299.547L219.433 266.222L214.868 270.509L221.237 303.852L225.821 299.547Z" fill="#02D4E4"/>
<path d="M305.837 229.578L301.598 243.705L305.943 248.331L320.29 244.967L315.945 240.341L307.762 242.269L310.181 234.204L305.837 229.578Z" fill="#8855F1"/>
<path d="M338.358 227.997L342.633 213.872L338.289 209.245L323.905 212.608L328.25 217.235L336.45 215.326L334.013 223.371L338.358 227.997Z" fill="#8855F1"/>
<path d="M327.707 243.181L321.319 209.855L316.735 214.16L323.123 247.486L327.707 243.181Z" fill="#02D4E4"/>
<path d="M352.849 224.749L348.574 238.874L352.937 243.52L367.302 240.137L362.957 235.511L354.775 237.439L357.194 229.375L352.849 224.749Z" fill="#8855F1"/>
<path d="M385.351 223.186L389.627 209.06L385.264 204.415L370.898 207.797L375.243 212.423L383.443 210.514L381.007 218.56L385.351 223.186Z" fill="#8855F1"/>
<path d="M374.701 238.371L368.313 205.045L363.748 209.333L370.136 242.658L374.701 238.371Z" fill="#02D4E4"/>
<path d="M345.085 271.368L340.847 285.494L345.192 290.121L359.539 286.757L355.194 282.13L347.011 284.058L349.43 275.994L345.085 271.368Z" fill="#8855F1"/>
<path d="M377.607 269.787L381.882 255.661L377.537 251.035L363.153 254.398L367.498 259.024L375.699 257.115L373.262 265.161L377.607 269.787Z" fill="#8855F1"/>
<path d="M366.956 284.97L360.567 251.645L355.984 255.95L362.372 289.275L366.956 284.97Z" fill="#02D4E4"/>
<path d="M298.091 276.177L293.816 290.303L298.179 294.948L312.544 291.566L308.199 286.94L300.017 288.868L302.436 280.804L298.091 276.177Z" fill="#8855F1"/>
<path d="M330.612 274.597L334.868 260.489L330.505 255.844L316.159 259.208L320.504 263.834L328.704 261.925L326.267 269.971L330.612 274.597Z" fill="#8855F1"/>
<path d="M319.943 289.8L313.574 256.456L308.99 260.761L315.379 294.087L319.943 289.8Z" fill="#02D4E4"/>
<path d="M243.275 327.661L239 341.786L243.362 346.432L257.728 343.05L253.383 338.423L245.201 340.351L247.62 332.287L243.275 327.661Z" fill="#8855F1"/>
<path d="M275.778 326.097L280.053 311.972L275.69 307.326L261.324 310.708L265.669 315.335L273.889 313.408L271.433 321.471L275.778 326.097Z" fill="#8855F1"/>
<path d="M265.127 341.283L258.739 307.957L254.174 312.245L260.562 345.57L265.127 341.283Z" fill="#02D4E4"/>
<path d="M290.27 322.85L286.013 336.995L290.358 341.621L304.723 338.239L300.378 333.613L292.196 335.541L294.615 327.476L290.27 322.85Z" fill="#8855F1"/>
<path d="M322.791 321.27L327.066 307.144L322.721 302.518L308.338 305.881L312.683 310.507L320.883 308.598L318.446 316.644L322.791 321.27Z" fill="#8855F1"/>
<path d="M312.14 336.453L305.752 303.127L301.168 307.433L307.556 340.758L312.14 336.453Z" fill="#02D4E4"/>
<path d="M315.044 367.906L319.302 353.761L314.957 349.135L300.573 352.498L304.918 357.124L313.137 355.197L310.681 363.261L315.044 367.906Z" fill="#8855F1"/>
<path d="M304.375 383.071L297.987 349.745L293.422 354.032L299.81 387.358L304.375 383.071Z" fill="#02D4E4"/>
<path d="M268.033 372.698L272.308 358.573L267.963 353.947L253.58 357.31L257.924 361.936L266.125 360.027L263.688 368.072L268.033 372.698Z" fill="#8855F1"/>
<path d="M257.382 387.882L250.994 354.556L246.41 358.861L252.798 392.187L257.382 387.882Z" fill="#02D4E4"/>
<path d="M337.397 317.913L333.14 332.057L337.485 336.684L351.869 333.321L347.506 328.675L339.323 330.603L341.742 322.539L337.397 317.913Z" fill="#8855F1"/>
<path d="M369.937 316.351L374.175 302.224L369.83 297.598L355.465 300.943L359.81 305.569L368.011 303.66L365.574 311.706L369.937 316.351Z" fill="#8855F1"/>
<path d="M359.248 331.533L352.879 298.19L348.295 302.495L354.683 335.821L359.248 331.533Z" fill="#02D4E4"/>
<path d="M384.391 313.101L380.152 327.228L384.497 331.854L398.862 328.509L394.499 323.864L386.316 325.792L388.735 317.727L384.391 313.101Z" fill="#8855F1"/>
<path d="M416.93 311.539L421.187 297.395L416.842 292.768L402.458 296.131L406.803 300.758L415.004 298.849L412.567 306.894L416.93 311.539Z" fill="#8855F1"/>
<path d="M406.262 326.705L399.874 293.379L395.29 297.685L401.678 331.01L406.262 326.705Z" fill="#02D4E4"/>
<path d="M376.645 359.7L372.387 373.845L376.732 378.471L391.116 375.108L386.753 370.463L378.571 372.391L380.99 364.327L376.645 359.7Z" fill="#8855F1"/>
<path d="M409.184 358.138L413.422 344.012L409.077 339.385L394.713 342.73L399.057 347.357L407.258 345.448L404.821 353.493L409.184 358.138Z" fill="#8855F1"/>
<path d="M398.497 373.323L392.128 339.979L387.544 344.284L393.932 377.61L398.497 373.323Z" fill="#02D4E4"/>
<path d="M362.172 362.968L366.429 348.823L362.084 344.197L347.7 347.56L352.045 352.186L360.246 350.277L357.809 358.323L362.172 362.968Z" fill="#8855F1"/>
<path d="M351.504 378.134L345.116 344.809L340.551 349.096L346.92 382.439L351.504 378.134Z" fill="#02D4E4"/>
<path d="M399.844 219.939L395.586 234.083L399.931 238.709L414.297 235.327L409.952 230.701L401.77 232.629L404.189 224.565L399.844 219.939Z" fill="#8855F1"/>
<path d="M421.695 233.559L415.325 200.216L410.742 204.521L417.13 237.847L421.695 233.559Z" fill="#02D4E4"/>
<path d="M392.098 266.538L387.84 280.683L392.185 285.309L406.569 281.946L402.206 277.301L394.024 279.229L396.443 271.164L392.098 266.538Z" fill="#8855F1"/>
<path d="M424.618 264.994L428.875 250.849L424.53 246.223L410.147 249.586L414.491 254.212L422.692 252.303L420.255 260.349L424.618 264.994Z" fill="#8855F1"/>
<path d="M413.948 280.158L407.56 246.833L402.995 251.12L409.384 284.446L413.948 280.158Z" fill="#02D4E4"/>
<path d="M313.66 182.906L309.384 197.032L313.747 201.677L328.113 198.295L323.768 193.669L315.568 195.578L318.004 187.533L313.66 182.906Z" fill="#8855F1"/>
<path d="M346.162 181.343L350.437 167.218L346.074 162.573L331.708 165.955L336.053 170.581L344.254 168.672L341.817 176.717L346.162 181.343Z" fill="#8855F1"/>
<path d="M335.51 196.527L329.141 163.184L324.557 167.489L330.945 200.814L335.51 196.527Z" fill="#02D4E4"/>
<path d="M368.532 131.371L364.256 145.496L368.619 150.142L382.985 146.759L378.64 142.133L370.44 144.042L372.877 135.997L368.532 131.371Z" fill="#8855F1"/>
<path d="M401.053 129.79L405.328 115.664L400.965 111.019L386.6 114.401L390.944 119.027L399.145 117.118L396.708 125.164L401.053 129.79Z" fill="#8855F1"/>
<path d="M390.384 144.99L384.015 111.646L379.431 115.952L385.819 149.277L390.384 144.99Z" fill="#02D4E4"/>
<path d="M415.544 126.541L411.286 140.686L415.631 145.312L429.997 141.93L425.652 137.304L417.451 139.25L419.889 131.167L415.544 126.541Z" fill="#8855F1"/>
<path d="M407.779 173.159L403.503 187.284L407.866 191.93L422.232 188.548L417.887 183.921L409.705 185.85L412.124 177.785L407.779 173.159Z" fill="#8855F1"/>
<path d="M429.632 186.78L423.263 153.436L418.679 157.741L425.067 191.067L429.632 186.78Z" fill="#02D4E4"/>
<path d="M360.785 177.97L356.528 192.115L360.873 196.741L375.239 193.359L370.894 188.733L362.711 190.661L365.13 182.596L360.785 177.97Z" fill="#8855F1"/>
<path d="M393.288 176.407L397.563 162.282L393.218 157.656L378.835 161.019L383.179 165.645L391.38 163.736L388.943 171.781L393.288 176.407Z" fill="#8855F1"/>
<path d="M382.636 191.591L376.248 158.265L371.664 162.57L378.052 195.896L382.636 191.591Z" fill="#02D4E4"/>
<path d="M173.797 382.553L178.053 368.446L173.708 363.82L159.343 367.165L163.688 371.791L171.889 369.882L169.452 377.927L173.797 382.553Z" fill="#8855F1"/>
<path d="M210.14 392.927L203.752 359.601L199.168 363.906L205.556 397.232L210.14 392.927Z" fill="#02D4E4"/>
<path d="M149.098 337.462L144.823 351.588L149.186 356.233L163.551 352.851L159.206 348.225L151.006 350.134L153.443 342.089L149.098 337.462Z" fill="#8855F1"/>
<path d="M170.949 351.083L164.561 317.757L159.997 322.045L166.366 355.388L170.949 351.083Z" fill="#02D4E4"/>
</g>
</svg>
