<svg width="24" height="29" viewBox="0 0 24 29" fill="none" xmlns="http://www.w3.org/2000/svg">
<path fill-rule="evenodd" clip-rule="evenodd" d="M5.66605 12.3346C5.66605 8.83683 8.50158 6.0013 11.9994 6.0013C15.4972 6.0013 18.3327 8.83683 18.3327 12.3346C18.3327 15.8324 15.4972 18.668 11.9994 18.668C8.50158 18.668 5.66605 15.8324 5.66605 12.3346ZM11.9994 8.0013C9.60615 8.0013 7.66605 9.9414 7.66605 12.3346C7.66605 14.7279 9.60615 16.668 11.9994 16.668C14.3926 16.668 16.3327 14.7279 16.3327 12.3346C16.3327 9.9414 14.3926 8.0013 11.9994 8.0013Z" fill="#8E98AE"/>
<path fill-rule="evenodd" clip-rule="evenodd" d="M0.698533 10.8104C1.17097 5.07896 5.96051 0.667969 11.7114 0.667969H12.2873C18.0383 0.667969 22.8278 5.07896 23.3002 10.8104C23.554 13.8893 22.603 16.9465 20.6474 19.3381L14.2567 27.1538C13.09 28.5806 10.9088 28.5806 9.74208 27.1538L3.35133 19.3381C1.39579 16.9465 0.444748 13.8893 0.698533 10.8104ZM11.7114 2.66797C7.00137 2.66797 3.0787 6.28061 2.69177 10.9747C2.48055 13.5372 3.27208 16.0816 4.89963 18.0721L11.2904 25.8878C11.6568 26.3359 12.3419 26.3359 12.7084 25.8878L19.0991 18.0721C20.7267 16.0816 21.5182 13.5372 21.307 10.9747C20.9201 6.2806 16.9974 2.66797 12.2873 2.66797H11.7114Z" fill="#8855F1"/>
</svg>
