<svg width="28" height="28" viewBox="0 0 28 28" fill="none" xmlns="http://www.w3.org/2000/svg">
<path d="M10 18L18 10" stroke="#8855F1" stroke-width="2.5" stroke-linecap="round" stroke-linejoin="round"/>
<path d="M10.6667 11.3333C11.0349 11.3333 11.3333 11.0349 11.3333 10.6667C11.3333 10.2985 11.0349 10 10.6667 10C10.2985 10 10 10.2985 10 10.6667C10 11.0349 10.2985 11.3333 10.6667 11.3333Z" fill="#8855F1" stroke="#8855F1" stroke-width="2.5" stroke-linecap="round" stroke-linejoin="round"/>
<path d="M17.3346 18.0013C17.7028 18.0013 18.0013 17.7028 18.0013 17.3346C18.0013 16.9664 17.7028 16.668 17.3346 16.668C16.9664 16.668 16.668 16.9664 16.668 17.3346C16.668 17.7028 16.9664 18.0013 17.3346 18.0013Z" fill="#8855F1" stroke="#8855F1" stroke-width="2.5" stroke-linecap="round" stroke-linejoin="round"/>
<path d="M4.66728 7.60062C4.66728 6.82265 4.97633 6.07654 5.52644 5.52644C6.07654 4.97633 6.82265 4.66728 7.60062 4.66728H8.93395C9.70848 4.66684 10.4514 4.36008 11.0006 3.81395L11.9339 2.88062C12.2065 2.60648 12.5306 2.38894 12.8876 2.24049C13.2446 2.09204 13.6274 2.01563 14.014 2.01562C14.4005 2.01563 14.7833 2.09204 15.1403 2.24049C15.4973 2.38894 15.8214 2.60648 16.094 2.88062L17.0273 3.81395C17.5765 4.36008 18.3194 4.66684 19.094 4.66728H20.4273C21.2053 4.66728 21.9514 4.97633 22.5015 5.52644C23.0516 6.07654 23.3606 6.82265 23.3606 7.60062V8.93395C23.3611 9.70848 23.6678 10.4514 24.214 11.0006L25.1473 11.9339C25.4214 12.2065 25.639 12.5306 25.7874 12.8876C25.9359 13.2446 26.0123 13.6274 26.0123 14.014C26.0123 14.4005 25.9359 14.7833 25.7874 15.1403C25.639 15.4973 25.4214 15.8214 25.1473 16.094L24.214 17.0273C23.6678 17.5765 23.3611 18.3194 23.3606 19.094V20.4273C23.3606 21.2053 23.0516 21.9514 22.5015 22.5015C21.9514 23.0516 21.2053 23.3606 20.4273 23.3606H19.094C18.3194 23.3611 17.5765 23.6678 17.0273 24.214L16.094 25.1473C15.8214 25.4214 15.4973 25.639 15.1403 25.7874C14.7833 25.9359 14.4005 26.0123 14.014 26.0123C13.6274 26.0123 13.2446 25.9359 12.8876 25.7874C12.5306 25.639 12.2065 25.4214 11.9339 25.1473L11.0006 24.214C10.4514 23.6678 9.70848 23.3611 8.93395 23.3606H7.60062C6.82265 23.3606 6.07654 23.0516 5.52644 22.5015C4.97633 21.9514 4.66728 21.2053 4.66728 20.4273V19.094C4.66684 18.3194 4.36008 17.5765 3.81395 17.0273L2.88062 16.094C2.60648 15.8214 2.38894 15.4973 2.24049 15.1403C2.09204 14.7833 2.01562 14.4005 2.01562 14.014C2.01563 13.6274 2.09204 13.2446 2.24049 12.8876C2.38894 12.5306 2.60648 12.2065 2.88062 11.9339L3.81395 11.0006C4.36008 10.4514 4.66684 9.70848 4.66728 8.93395V7.60062" stroke="#8855F1" stroke-width="2.5" stroke-linecap="round" stroke-linejoin="round"/>
</svg>
