<svg width="21" height="24" viewBox="0 0 21 24" fill="none" xmlns="http://www.w3.org/2000/svg">
<path d="M19.9808 0.504683C20.0902 0.586178 20.1791 0.692129 20.2403 0.814076C20.3014 0.936023 20.3333 1.07059 20.3332 1.20702V16.957C20.3332 16.9878 20.3316 17.0186 20.3285 17.0492C20.3734 17.9703 20.1052 18.8795 19.5675 19.6287C19.0298 20.3779 18.2544 20.9231 17.3674 21.1754C16.4804 21.4278 15.5341 21.3725 14.6825 21.0185C13.831 20.6645 13.1244 20.0326 12.6777 19.2258C12.231 18.4191 12.0705 17.4848 12.2225 16.5752C12.3744 15.6656 12.8298 14.8342 13.5144 14.2164C14.1991 13.5986 15.0727 13.2308 15.9931 13.1727C16.9134 13.1147 17.8263 13.3699 18.5832 13.8968V7.04968L8.6665 10.0247V19.2903C8.66655 19.3211 8.66499 19.3519 8.66183 19.3825C8.70673 20.3036 8.4385 21.2128 7.90083 21.962C7.36316 22.7113 6.5877 23.2564 5.70071 23.5088C4.81371 23.7611 3.86741 23.7058 3.01587 23.3518C2.16433 22.9978 1.45769 22.366 1.011 21.5592C0.564308 20.7524 0.403871 19.8181 0.555806 18.9086C0.707742 17.999 1.1631 17.1676 1.84775 16.5498C2.5324 15.932 3.40603 15.5641 4.32639 15.5061C5.24676 15.448 6.15967 15.7033 6.9165 16.2302V4.70702C6.91655 4.51899 6.97718 4.33597 7.08939 4.1851C7.2016 4.03422 7.35943 3.9235 7.5395 3.86935L19.2062 0.36935C19.3369 0.329896 19.475 0.321586 19.6096 0.345086C19.7441 0.368585 19.8712 0.423242 19.9808 0.504683ZM8.6665 8.19768L18.5832 5.22268V2.38302L8.6665 5.35802V8.19768ZM4.58316 17.2487C3.96433 17.2487 3.37083 17.4945 2.93325 17.9321C2.49566 18.3697 2.24983 18.9632 2.24983 19.582C2.24983 20.2009 2.49566 20.7943 2.93325 21.2319C3.37083 21.6695 3.96433 21.9153 4.58316 21.9153C5.202 21.9153 5.7955 21.6695 6.23308 21.2319C6.67067 20.7943 6.9165 20.2009 6.9165 19.582C6.9165 18.9632 6.67067 18.3697 6.23308 17.9321C5.7955 17.4945 5.202 17.2487 4.58316 17.2487ZM13.9165 17.2487C13.9165 17.8675 14.1623 18.461 14.5999 18.8986C15.0375 19.3362 15.631 19.582 16.2498 19.582C16.8687 19.582 17.4622 19.3362 17.8997 18.8986C18.3373 18.461 18.5832 17.8675 18.5832 17.2487C18.5832 16.6298 18.3373 16.0364 17.8997 15.5988C17.4622 15.1612 16.8687 14.9153 16.2498 14.9153C15.631 14.9153 15.0375 15.1612 14.5999 15.5988C14.1623 16.0364 13.9165 16.6298 13.9165 17.2487Z" fill="#8E98AE"/>
</svg>
