<svg width="21" height="23" viewBox="0 0 21 23" fill="none" xmlns="http://www.w3.org/2000/svg">
<path d="M18.375 0.25H2.625C2.02826 0.25 1.45597 0.487053 1.03401 0.90901C0.612053 1.33097 0.375 1.90326 0.375 2.5V4.75C0.375 5.34674 0.612053 5.91903 1.03401 6.34099C1.45597 6.76295 2.02826 7 2.625 7V19.375C2.625 20.2701 2.98058 21.1286 3.61351 21.7615C4.24645 22.3944 5.10489 22.75 6 22.75H15C15.8951 22.75 16.7536 22.3944 17.3865 21.7615C18.0194 21.1286 18.375 20.2701 18.375 19.375V7C18.9717 7 19.544 6.76295 19.966 6.34099C20.3879 5.91903 20.625 5.34674 20.625 4.75V2.5C20.625 1.90326 20.3879 1.33097 19.966 0.90901C19.544 0.487053 18.9717 0.25 18.375 0.25ZM16.125 16H9.375V11.5H16.125V16ZM16.125 9.25H8.25C7.95163 9.25 7.66548 9.36853 7.4545 9.5795C7.24353 9.79048 7.125 10.0766 7.125 10.375V17.125C7.125 17.4234 7.24353 17.7095 7.4545 17.9205C7.66548 18.1315 7.95163 18.25 8.25 18.25H16.125V19.375C16.125 19.6734 16.0065 19.9595 15.7955 20.1705C15.5845 20.3815 15.2984 20.5 15 20.5H6C5.70163 20.5 5.41548 20.3815 5.2045 20.1705C4.99353 19.9595 4.875 19.6734 4.875 19.375V7H16.125V9.25ZM2.625 4.75V2.5H18.375V4.75H2.625Z" fill="#8855F1"/>
</svg>
