<svg width="22" height="22" viewBox="0 0 22 22" fill="none" xmlns="http://www.w3.org/2000/svg">
<path d="M19.3199 5.45331C18.216 4.87313 16.9287 4.74867 15.7341 5.10664C15.6759 3.89165 15.1523 2.74567 14.2719 1.90637C13.3914 1.06708 12.2217 0.598877 11.0054 0.598877C9.78897 0.598877 8.61925 1.06708 7.73882 1.90637C6.85838 2.74567 6.33477 3.89165 6.2766 5.10664C5.08524 4.74786 3.80159 4.86032 2.69077 5.42081C1.87274 5.85077 1.19843 6.51075 0.751014 7.31936C0.303594 8.12797 0.102623 9.04986 0.172885 9.97132C0.243147 10.8928 0.581569 11.7735 1.14642 12.505C1.71126 13.2364 2.47784 13.7865 3.3516 14.0875C2.79389 14.881 2.49154 15.8259 2.48493 16.7958C2.48975 17.0682 2.5151 17.3398 2.56077 17.6083C2.7432 18.7085 3.31076 19.708 4.16209 20.4283C5.01341 21.1487 6.09307 21.543 7.20827 21.5408C7.43911 21.5566 7.67076 21.5566 7.9016 21.5408C9.13989 21.3457 10.2523 20.6728 10.9999 19.6666C11.7554 20.6566 12.8667 21.3133 14.0983 21.4975C14.3291 21.5133 14.5608 21.5133 14.7916 21.4975C15.6563 21.4965 16.5041 21.2581 17.2426 20.8085C17.9811 20.3588 18.582 19.715 18.9799 18.9473C19.3777 18.1796 19.5571 17.3174 19.4987 16.4547C19.4402 15.5921 19.146 14.762 18.6483 14.055C19.5263 13.7592 20.298 13.2118 20.8672 12.4808C21.4364 11.7497 21.7781 10.8675 21.8497 9.94373C21.9213 9.01999 21.7196 8.0956 21.2698 7.28561C20.82 6.47563 20.1419 5.81582 19.3199 5.38831V5.45331ZM9.2016 3.35164C9.68557 2.88814 10.3298 2.62941 10.9999 2.62941C11.6701 2.62941 12.3143 2.88814 12.7983 3.35164C13.1678 3.7217 13.4187 4.19341 13.519 4.70664C13.6193 5.21987 13.5645 5.75135 13.3616 6.23331L13.0799 6.87247L12.3649 7.50081C11.9253 7.34992 11.4647 7.26948 10.9999 7.26248C10.3993 7.26305 9.80535 7.38848 9.25577 7.63081L8.6491 6.23331C8.43886 5.75348 8.37911 5.22116 8.47775 4.70666C8.5764 4.19216 8.82879 3.71968 9.2016 3.35164V3.35164ZM2.59327 10.7616C2.35142 10.2295 2.29841 9.63071 2.443 9.06432C2.58758 8.49794 2.92111 7.99785 3.38844 7.64672C3.85578 7.29559 4.42894 7.11444 5.01318 7.13321C5.59743 7.15199 6.15778 7.36956 6.6016 7.74998L7.13243 8.21581L7.5116 9.08247C6.9689 9.80859 6.67279 10.6893 6.6666 11.5958C6.65375 11.7581 6.65375 11.9211 6.6666 12.0833H6.07077L5.16077 12.17C4.64028 12.2249 4.11543 12.1194 3.65655 11.8677C3.19767 11.616 2.82667 11.2301 2.59327 10.7616V10.7616ZM9.74327 17.3483C9.61285 17.9266 9.28712 18.4423 8.82094 18.8086C8.35475 19.1748 7.7766 19.3692 7.18384 19.3591C6.59108 19.3489 6.01994 19.1348 5.5666 18.7527C5.11326 18.3707 4.80542 17.8441 4.69493 17.2616C4.68455 17.1102 4.68455 16.9581 4.69493 16.8066C4.69886 16.3663 4.81791 15.9347 5.04026 15.5546C5.26261 15.1745 5.58053 14.8592 5.96243 14.64L6.51493 14.25L7.50077 14.1416C8.12212 15.006 9.03991 15.6115 10.0791 15.8425L9.74327 17.3483ZM10.9999 13.7625C10.5714 13.7625 10.1525 13.6354 9.7962 13.3973C9.43989 13.1592 9.16218 12.8209 8.99819 12.425C8.8342 12.029 8.7913 11.5934 8.8749 11.1731C8.9585 10.7528 9.16486 10.3668 9.46787 10.0637C9.77088 9.76073 10.1569 9.55437 10.5772 9.47077C10.9975 9.38717 11.4332 9.43008 11.8291 9.59407C12.225 9.75806 12.5634 10.0358 12.8015 10.3921C13.0395 10.7484 13.1666 11.1673 13.1666 11.5958C13.1666 12.1704 12.9383 12.7215 12.532 13.1279C12.1257 13.5342 11.5746 13.7625 10.9999 13.7625ZM17.3049 17.2508C17.1932 17.9118 16.8263 18.5025 16.2832 18.8956C15.7402 19.2887 15.0644 19.4528 14.4016 19.3525C13.8793 19.2789 13.3919 19.0475 13.0047 18.6893C12.6175 18.3312 12.3489 17.8633 12.2349 17.3483L12.0833 16.6983L12.3108 15.7016C13.3102 15.3762 14.1572 14.6985 14.6941 13.795L15.2358 14.12H15.3333L16.0483 14.5425C16.5128 14.8078 16.8833 15.211 17.1085 15.6962C17.3337 16.1815 17.4023 16.7248 17.3049 17.2508V17.2508ZM19.4066 10.7508C19.1935 11.1814 18.8648 11.5442 18.4573 11.7987C18.0498 12.0532 17.5795 12.1892 17.0991 12.1916H16.8391L16.1458 12.0833L15.3333 11.6391C15.3318 10.5858 14.9466 9.56913 14.2499 8.77914L14.7158 8.37831L15.3983 7.74998C15.8434 7.35428 16.4122 7.12562 17.0073 7.10315C17.6024 7.08068 18.1869 7.2658 18.6605 7.6268C19.1342 7.98781 19.4676 8.50225 19.6037 9.08204C19.7398 9.66183 19.6701 10.2709 19.4066 10.805V10.7508Z" fill="#8E98AE"/>
</svg>
