<svg width="27" height="27" viewBox="0 0 27 27" fill="none" xmlns="http://www.w3.org/2000/svg">
<path d="M9.57412 14.0406C9.35162 14.0406 9.13411 14.1065 8.94911 14.2302C8.7641 14.3538 8.61991 14.5295 8.53476 14.735C8.44961 14.9406 8.42733 15.1668 8.47074 15.385C8.51415 15.6033 8.62129 15.8037 8.77863 15.9611C8.93596 16.1184 9.13642 16.2255 9.35465 16.2689C9.57288 16.3124 9.79908 16.2901 10.0046 16.2049C10.2102 16.1198 10.3859 15.9756 10.5095 15.7906C10.6331 15.6056 10.6991 15.3881 10.6991 15.1656C10.6991 14.8672 10.5806 14.581 10.3696 14.3701C10.1586 14.1591 9.87249 14.0406 9.57412 14.0406ZM9.57412 9.00057C9.35162 9.00057 9.13411 9.06655 8.94911 9.19016C8.7641 9.31378 8.61991 9.48948 8.53476 9.69505C8.44961 9.90061 8.42733 10.1268 8.47074 10.345C8.51415 10.5633 8.62129 10.7637 8.77863 10.9211C8.93596 11.0784 9.13642 11.1855 9.35465 11.2289C9.57288 11.2724 9.79908 11.2501 10.0046 11.1649C10.2102 11.0798 10.3859 10.9356 10.5095 10.7506C10.6331 10.5656 10.6991 10.3481 10.6991 10.1256C10.6991 9.8272 10.5806 9.54105 10.3696 9.33007C10.1586 9.11909 9.87249 9.00057 9.57412 9.00057ZM13.5004 11.2506C13.202 11.2506 12.9159 11.3691 12.7049 11.5801C12.4939 11.791 12.3754 12.0772 12.3754 12.3756V13.5006C12.3754 13.7989 12.4939 14.0851 12.7049 14.2961C12.9159 14.507 13.202 14.6256 13.5004 14.6256C13.7987 14.6256 14.0849 14.507 14.2959 14.2961C14.5068 14.0851 14.6254 13.7989 14.6254 13.5006V12.3756C14.6254 12.0772 14.5068 11.791 14.2959 11.5801C14.0849 11.3691 13.7987 11.2506 13.5004 11.2506ZM23.0629 9.64181C22.6748 9.41852 22.2461 9.27467 21.8019 9.21866C21.3577 9.16265 20.9067 9.19559 20.4754 9.31556C20.0264 9.43582 19.6083 9.65061 19.2491 9.94557L6.19912 2.39682C6.0281 2.29808 5.8341 2.24609 5.63662 2.24609C5.43915 2.24609 5.24515 2.29808 5.07412 2.39682C4.90035 2.49449 4.75565 2.63659 4.65484 2.80857C4.55402 2.98054 4.50072 3.17622 4.50037 3.37557V18.1918C3.83646 18.4158 3.26082 18.8448 2.85644 19.417C2.45206 19.9891 2.23984 20.675 2.25037 21.3756C2.25006 22.2553 2.59326 23.1004 3.20686 23.7308C3.82046 24.3612 4.65596 24.7271 5.53537 24.7506H6.18787C9.8742 24.7419 13.4926 23.758 16.6757 21.8987C19.8588 20.0394 22.4933 17.371 24.3116 14.1643C24.7316 13.3971 24.8373 12.4967 24.6064 11.6531C24.3756 10.8094 23.8262 10.0884 23.0741 9.64181H23.0629ZM6.75037 5.32182L17.8766 11.7456C16.6423 13.5874 14.9921 15.1132 13.0594 16.1998C11.1266 17.2863 8.96546 17.9032 6.75037 18.0006V5.32182ZM22.3541 13.0618C20.684 16.0044 18.2449 18.4374 15.2981 20.1C12.3513 21.7627 9.00766 22.5925 5.62537 22.5006C5.32701 22.5006 5.04086 22.382 4.82988 22.1711C4.6189 21.9601 4.50037 21.6739 4.50037 21.3756C4.49949 21.2248 4.52892 21.0754 4.58689 20.9363C4.64487 20.7972 4.73022 20.6711 4.83787 20.5656C5.04922 20.3618 5.33183 20.2488 5.62537 20.2506H6.19912C9.08781 20.2494 11.9244 19.4812 14.4188 18.0244C16.9133 16.5677 18.9762 14.4746 20.3966 11.9593C20.4649 11.8359 20.5582 11.7281 20.6706 11.6429C20.783 11.5577 20.9119 11.4968 21.0491 11.4643C21.3328 11.3865 21.6357 11.4228 21.8929 11.5656C22.151 11.7043 22.3448 11.9383 22.433 12.2177C22.5213 12.4972 22.497 12.8 22.3654 13.0618H22.3541Z" fill="#8855F1"/>
</svg>
