<svg width="24" height="22" viewBox="0 0 24 22" fill="none" xmlns="http://www.w3.org/2000/svg">
<path d="M13.75 0.35H13.6V0.5V8.225H6.57459C6.29736 7.59516 5.94676 7.00012 5.52999 6.45224C4.5904 5.20374 2.9681 3.85 0.625 3.85H0.475V4V5.75V5.9H0.625C2.18365 5.9 3.18726 6.7329 3.89586 7.67256L3.89589 7.6726C4.53248 8.51629 4.80004 9.31205 4.85061 9.46727C4.92734 12.3144 6.52035 14.7936 8.83548 16.1546C8.29191 16.2646 7.78954 16.5352 7.39636 16.9367C6.88923 17.4545 6.6036 18.1495 6.6 18.8743V18.875C6.6 20.3972 7.85278 21.65 9.375 21.65C10.8972 21.65 12.15 20.3972 12.15 18.875C12.15 18.23 11.9308 17.6268 11.5588 17.1509C11.9925 17.2286 12.4322 17.2702 12.8734 17.275H12.875L15.5 17.275L15.5016 17.275C15.9428 17.2702 16.3825 17.2286 16.8162 17.1509C16.4442 17.6268 16.225 18.23 16.225 18.875C16.225 20.3972 17.4778 21.65 19 21.65C20.5222 21.65 21.775 20.3972 21.775 18.875L21.775 18.8743C21.7714 18.1495 21.4858 17.4545 20.9786 16.9367C20.5854 16.5352 20.0829 16.2645 19.5392 16.1545C21.6679 14.9018 23.178 12.7029 23.4689 10.1419L23.469 10.1415C23.497 9.88699 23.5223 9.62872 23.525 9.36089V9.35938V9.30756L23.5252 9.30369L23.5259 9.28287C23.5265 9.2648 23.5272 9.23847 23.5276 9.20464C23.5285 9.13739 23.5285 9.04044 23.525 8.91971V8.375V8.225H23.458C23.3839 7.38008 23.1932 6.15635 22.5804 4.86494L22.5804 4.86491C21.5159 2.62328 19.1028 0.35 14.625 0.35H13.75ZM20.7509 5.75994C21.2164 6.74289 21.3499 7.57976 21.4078 8.225H15.65V2.52344C17.1253 2.66729 18.2067 3.08697 19.0093 3.6515C19.8409 4.23649 20.382 4.98329 20.7509 5.75994ZM12.8741 15.225C9.95207 15.225 7.61881 13.0677 7.11755 10.275H21.2557C20.7544 13.0677 18.4212 15.225 15.4991 15.225H12.8741ZM9.375 18.15C9.78468 18.15 10.1 18.466 10.1 18.875C10.1 19.2847 9.78401 19.6 9.375 19.6C8.96532 19.6 8.65 19.284 8.65 18.875C8.65 18.4653 8.96599 18.15 9.375 18.15ZM19 18.15C19.4097 18.15 19.725 18.466 19.725 18.875C19.725 19.2847 19.409 19.6 19 19.6C18.5903 19.6 18.275 19.284 18.275 18.875C18.275 18.4653 18.591 18.15 19 18.15Z" fill="#8855F1" stroke="#8855F1" stroke-width="0.3"/>
</svg>
