<svg width="22" height="20" viewBox="0 0 22 20" fill="none" xmlns="http://www.w3.org/2000/svg">
<path d="M7.74935 0.25C7.74935 1.11195 8.09176 1.9386 8.70125 2.5481C9.31075 3.15759 10.1374 3.5 10.9993 3.5C11.8613 3.5 12.688 3.15759 13.2974 2.5481C13.9069 1.9386 14.2493 1.11195 14.2493 0.25H20.7493C21.0367 0.25 21.3122 0.364137 21.5154 0.567301C21.7185 0.770465 21.8327 1.04602 21.8327 1.33333V8.91667C21.8327 9.20399 21.7185 9.47954 21.5154 9.6827C21.3122 9.88586 21.0367 10 20.7493 10H18.5816L18.5827 18.6667C18.5827 18.954 18.4685 19.2295 18.2654 19.4327C18.0622 19.6359 17.7867 19.75 17.4993 19.75H4.49935C4.21203 19.75 3.93648 19.6359 3.73332 19.4327C3.53015 19.2295 3.41602 18.954 3.41602 18.6667L3.41493 9.99892L1.24935 10C0.962031 10 0.686481 9.88586 0.483317 9.6827C0.280152 9.47954 0.166016 9.20399 0.166016 8.91667V1.33333C0.166016 1.04602 0.280152 0.770465 0.483317 0.567301C0.686481 0.364137 0.962031 0.25 1.24935 0.25H7.74935ZM19.666 2.41558H15.9643L15.9458 2.46C15.535 3.37851 14.8766 4.16448 14.0442 4.72989C13.2119 5.29529 12.2386 5.61779 11.2333 5.66125L10.9993 5.66667C9.95328 5.66676 8.92955 5.36401 8.05179 4.79499C7.17403 4.22596 6.47977 3.41499 6.05285 2.46L6.03335 2.41667H2.33268V7.83333L5.5816 7.83225V17.5833H16.416L16.4149 7.83333L19.666 7.83225V2.41558Z" fill="#8E98AE"/>
</svg>
