<svg width="25" height="15" viewBox="0 0 25 15" fill="none" xmlns="http://www.w3.org/2000/svg">
<path d="M24.0148 1.63958C23.8311 1.53353 23.6227 1.4777 23.4106 1.4777C23.1985 1.4777 22.9901 1.53353 22.8064 1.63958L18.541 3.74208C18.5066 2.8039 18.1095 1.91566 17.4334 1.26432C16.7573 0.612989 15.8548 0.24937 14.916 0.250001H4.04102C3.07961 0.250001 2.15757 0.631919 1.47775 1.31174C0.797934 1.99156 0.416016 2.91359 0.416016 3.875V11.125C0.416016 12.0864 0.797934 13.0084 1.47775 13.6883C2.15757 14.3681 3.07961 14.75 4.04102 14.75H14.916C15.8548 14.7506 16.7573 14.387 17.4334 13.7357C18.1095 13.0843 18.5066 12.1961 18.541 11.2579L22.8427 13.4087C23.0074 13.4932 23.1893 13.5387 23.3743 13.5417C23.6006 13.5424 23.8225 13.4796 24.0148 13.3604C24.1889 13.2516 24.3324 13.1002 24.4318 12.9205C24.5312 12.7408 24.5831 12.5387 24.5827 12.3333V2.66667C24.5831 2.46132 24.5312 2.25925 24.4318 2.07954C24.3324 1.89984 24.1889 1.74842 24.0148 1.63958ZM16.1243 11.125C16.1243 11.4455 15.997 11.7528 15.7704 11.9794C15.5438 12.206 15.2365 12.3333 14.916 12.3333H4.04102C3.72055 12.3333 3.4132 12.206 3.1866 11.9794C2.95999 11.7528 2.83268 11.4455 2.83268 11.125V3.875C2.83268 3.55453 2.95999 3.24719 3.1866 3.02058C3.4132 2.79397 3.72055 2.66667 4.04102 2.66667H14.916C15.2365 2.66667 15.5438 2.79397 15.7704 3.02058C15.997 3.24719 16.1243 3.55453 16.1243 3.875V11.125ZM22.166 10.3758L18.541 8.56333V6.43667L22.166 4.62417V10.3758Z" fill="#8855F1"/>
</svg>
