<svg width="27" height="27" viewBox="0 0 27 27" fill="none" xmlns="http://www.w3.org/2000/svg">
<path d="M0.84375 24.4688H26.1562V26.1562H0.84375V24.4688Z" fill="#8855F1"/>
<path d="M24.03 8.02259C22.7967 7.67902 21.4855 7.70338 20.3382 8.09114L20.2911 8.10696L16.858 9.73856L6.83951 5.75564C6.40216 5.57992 5.92425 5.53056 5.46022 5.61319C4.99619 5.69581 4.56469 5.90709 4.21487 6.22297L2.87362 7.42521C2.73213 7.55206 2.62102 7.70915 2.54853 7.88482C2.47605 8.06048 2.44405 8.25021 2.45492 8.43993C2.46578 8.62966 2.51923 8.81449 2.6113 8.98073C2.70337 9.14698 2.83169 9.29035 2.98674 9.40022L9.19711 13.8013L6.81494 15.0492L4.92836 13.3254C4.56766 12.9965 4.11964 12.7787 3.63815 12.6983C3.15666 12.6178 2.66218 12.6781 2.21413 12.8719L1.18818 13.3167C1.02783 13.3862 0.883601 13.4882 0.764591 13.6162C0.645581 13.7441 0.554366 13.8954 0.49669 14.0603C0.439015 14.2253 0.41613 14.4004 0.429478 14.5747C0.442826 14.7489 0.492117 14.9185 0.574245 15.0728L4.41442 22.2883L25.3279 11.9801C26.5802 11.3907 26.7328 10.4484 26.4574 9.76213C26.1522 9.00128 25.2673 8.36726 24.03 8.02259ZM24.6048 10.4554L24.597 10.4591L5.13561 20.0515L2.27867 14.6831L2.88512 14.4201C3.03447 14.3555 3.1993 14.3354 3.35981 14.3622C3.52031 14.389 3.66965 14.4616 3.78988 14.5713L6.54979 17.093L12.4207 14.0176L4.39353 8.32897L5.34122 7.47953C5.45783 7.37425 5.60166 7.30383 5.75633 7.27629C5.91101 7.24874 6.0703 7.26519 6.21609 7.32375L16.9182 11.5784L20.9233 9.67496C21.7384 9.41082 22.7091 9.40259 23.595 9.65319C24.3245 9.85959 24.712 10.1594 24.8433 10.3167C24.7691 10.3714 24.6892 10.418 24.6049 10.4555L24.6048 10.4554Z" fill="#8855F1"/>
</svg>
