<svg width="20" height="22" viewBox="0 0 20 22" fill="none" xmlns="http://www.w3.org/2000/svg">
<path d="M16.5 4.50012H12.6108L15.1025 2.01929C15.2035 1.91828 15.2836 1.79836 15.3383 1.66639C15.393 1.53442 15.4211 1.39297 15.4211 1.25012C15.4211 1.10727 15.393 0.965823 15.3383 0.833849C15.2836 0.701876 15.2035 0.581961 15.1025 0.480953C15.0015 0.379944 14.8816 0.29982 14.7496 0.245155C14.6176 0.190489 14.4762 0.162354 14.3333 0.162354C14.0448 0.162354 13.7682 0.276957 13.5642 0.480953L10 4.00179L8.7325 1.83512C8.66137 1.71135 8.56655 1.6028 8.45347 1.51567C8.34039 1.42854 8.21125 1.36454 8.07343 1.32732C7.93561 1.2901 7.79182 1.28039 7.65024 1.29874C7.50867 1.3171 7.3721 1.36315 7.24833 1.43429C7.12456 1.50542 7.01601 1.60023 6.92889 1.71332C6.84176 1.8264 6.77776 1.95554 6.74054 2.09335C6.70331 2.23117 6.6936 2.37497 6.71196 2.51654C6.73031 2.65811 6.77637 2.79468 6.8475 2.91845L7.83333 4.50012H3.5C2.63805 4.50012 1.8114 4.84253 1.2019 5.45202C0.59241 6.06152 0.25 6.88817 0.25 7.75012V16.4168C0.25 17.2787 0.59241 18.1054 1.2019 18.7149C1.8114 19.3244 2.63805 19.6668 3.5 19.6668V20.7501C3.5 21.0374 3.61414 21.313 3.8173 21.5162C4.02047 21.7193 4.29602 21.8335 4.58333 21.8335C4.87065 21.8335 5.1462 21.7193 5.34937 21.5162C5.55253 21.313 5.66667 21.0374 5.66667 20.7501V19.6668H14.3333V20.7501C14.3333 21.0374 14.4475 21.313 14.6506 21.5162C14.8538 21.7193 15.1293 21.8335 15.4167 21.8335C15.704 21.8335 15.9795 21.7193 16.1827 21.5162C16.3859 21.313 16.5 21.0374 16.5 20.7501V19.6668C17.362 19.6668 18.1886 19.3244 18.7981 18.7149C19.4076 18.1054 19.75 17.2787 19.75 16.4168V7.75012C19.75 6.88817 19.4076 6.06152 18.7981 5.45202C18.1886 4.84253 17.362 4.50012 16.5 4.50012ZM17.5833 16.4168C17.5833 16.7041 17.4692 16.9797 17.266 17.1828C17.0629 17.386 16.7873 17.5001 16.5 17.5001H3.5C3.21268 17.5001 2.93713 17.386 2.73397 17.1828C2.5308 16.9797 2.41667 16.7041 2.41667 16.4168V7.75012C2.41667 7.4628 2.5308 7.18725 2.73397 6.98409C2.93713 6.78092 3.21268 6.66679 3.5 6.66679H16.5C16.7873 6.66679 17.0629 6.78092 17.266 6.98409C17.4692 7.18725 17.5833 7.4628 17.5833 7.75012V16.4168Z" fill="#8855F1"/>
</svg>
