<svg width="23" height="21" viewBox="0 0 23 21" fill="none" xmlns="http://www.w3.org/2000/svg">
<path d="M19.375 0.375H3.625C2.72989 0.375 1.87145 0.730579 1.23851 1.36351C0.605579 1.99645 0.25 2.85489 0.25 3.75V12.75C0.25 13.6451 0.605579 14.5036 1.23851 15.1365C1.87145 15.7694 2.72989 16.125 3.625 16.125H10.375V18.375H5.875C5.57663 18.375 5.29048 18.4935 5.0795 18.7045C4.86853 18.9155 4.75 19.2016 4.75 19.5C4.75 19.7984 4.86853 20.0845 5.0795 20.2955C5.29048 20.5065 5.57663 20.625 5.875 20.625H17.125C17.4234 20.625 17.7095 20.5065 17.9205 20.2955C18.1315 20.0845 18.25 19.7984 18.25 19.5C18.25 19.2016 18.1315 18.9155 17.9205 18.7045C17.7095 18.4935 17.4234 18.375 17.125 18.375H12.625V16.125H19.375C20.2701 16.125 21.1286 15.7694 21.7615 15.1365C22.3944 14.5036 22.75 13.6451 22.75 12.75V3.75C22.75 2.85489 22.3944 1.99645 21.7615 1.36351C21.1286 0.730579 20.2701 0.375 19.375 0.375ZM20.5 12.75C20.5 13.0484 20.3815 13.3345 20.1705 13.5455C19.9595 13.7565 19.6734 13.875 19.375 13.875H3.625C3.32663 13.875 3.04048 13.7565 2.8295 13.5455C2.61853 13.3345 2.5 13.0484 2.5 12.75V3.75C2.5 3.45163 2.61853 3.16548 2.8295 2.9545C3.04048 2.74353 3.32663 2.625 3.625 2.625H19.375C19.6734 2.625 19.9595 2.74353 20.1705 2.9545C20.3815 3.16548 20.5 3.45163 20.5 3.75V12.75Z" fill="#8E98AE"/>
</svg>
