<svg width="19" height="24" viewBox="0 0 19 24" fill="none" xmlns="http://www.w3.org/2000/svg">
<path d="M0.85 14.3749V14.375C0.85 16.7016 1.76081 18.9333 3.38275 20.5791C5.00477 22.225 7.20516 23.15 9.5 23.15C11.7948 23.15 13.9952 22.225 15.6172 20.5791C17.2392 18.9333 18.15 16.7016 18.15 14.375H18L18.15 14.3749C18.1491 12.6655 17.6558 10.9934 16.7306 9.56431C15.8053 8.13523 14.4884 7.01142 12.9415 6.33143L12.859 6.29518L12.7883 6.35095L10.9938 7.76545L10.7539 7.95456L11.0502 8.02876C12.4484 8.37883 13.6915 9.19337 14.5816 10.3433C15.4716 11.4933 15.9573 12.9126 15.9611 14.3754C15.9609 17.9936 13.0605 20.9333 9.5 20.9333C5.93941 20.9333 3.039 17.9935 3.03889 14.3752C3.0427 12.9125 3.52843 11.4933 4.41845 10.3433C5.30848 9.19337 6.55158 8.37883 7.94976 8.02876L8.24619 7.95454L8.00617 7.76543L6.54431 6.61362L6.54417 6.61351L6.21186 6.35104L6.14109 6.29514L6.05853 6.33143C4.51161 7.01142 3.19466 8.13523 2.2694 9.56431C1.34417 10.9934 0.850882 12.6655 0.85 14.3749ZM9.40706 6.82607L9.5 6.89944L9.59294 6.82607L14.3152 3.09815L14.4213 3.01435L14.3489 2.90012L12.46 -0.080297L12.4159 -0.15H12.3333H6.66667H6.58414L6.53997 -0.080297L4.65108 2.90012L4.57868 3.01435L4.68483 3.09815L7.51817 5.3349L9.40706 6.82607Z" fill="#8855F1" stroke="#8855F1" stroke-width="0.3"/>
</svg>
