<svg width="104" height="28" viewBox="0 0 104 28" fill="none" xmlns="http://www.w3.org/2000/svg">
<path d="M0.673828 6.41797C0.830078 6.20312 0.966797 6.06641 1.08398 6.00781C1.2207 5.92969 1.40625 5.89062 1.64062 5.89062C1.95312 5.89062 2.24609 5.97852 2.51953 6.1543C2.8125 6.33008 2.97852 6.58398 3.01758 6.91602C3.0957 7.46289 3.13477 8.01953 3.13477 8.58594C3.1543 9.13281 3.1543 9.68945 3.13477 10.2559C3.13477 10.8027 3.125 11.3594 3.10547 11.9258C3.10547 12.4727 3.125 13.0195 3.16406 13.5664C3.24219 14.8945 3.35938 16.2715 3.51562 17.6973C3.69141 19.123 3.7793 20.5 3.7793 21.8281C3.7793 22.2188 3.70117 22.5117 3.54492 22.707C3.38867 22.9023 3.08594 23 2.63672 23C2.26562 23 1.98242 22.873 1.78711 22.6191C1.5918 22.3652 1.44531 22.0625 1.34766 21.7109C1.26953 21.3594 1.2207 21.0078 1.20117 20.6562C1.18164 20.2852 1.17188 19.9922 1.17188 19.7773C1.17188 19.6211 1.15234 19.2988 1.11328 18.8105C1.09375 18.3027 1.06445 17.7168 1.02539 17.0527C1.00586 16.3691 0.976563 15.6562 0.9375 14.9141C0.898438 14.1523 0.859375 13.4395 0.820312 12.7754C0.78125 12.0918 0.742188 11.5059 0.703125 11.0176C0.683594 10.5098 0.673828 10.1777 0.673828 10.0215V8.20508V6.41797ZM13.5352 22.0039C13.2617 21.6133 13.0273 21.0762 12.832 20.3926C12.6562 19.6895 12.4805 18.957 12.3047 18.1953C12.1484 17.4141 12.002 16.6621 11.8652 15.9395C11.7285 15.1973 11.582 14.6113 11.4258 14.1816C11.2891 13.7324 11.1328 13.4785 10.957 13.4199C10.7812 13.3613 10.5762 13.625 10.3418 14.2109L7.79297 22.0625C7.69531 22.3359 7.57812 22.5312 7.44141 22.6484C7.30469 22.7461 7.08008 22.7949 6.76758 22.7949C6.61133 22.7949 6.44531 22.7754 6.26953 22.7363C6.09375 22.6777 5.92773 22.5996 5.77148 22.502C5.61523 22.4043 5.47852 22.2871 5.36133 22.1504C5.26367 22.0137 5.20508 21.8574 5.18555 21.6816C5.24414 21.4473 5.29297 21.0176 5.33203 20.3926C5.39062 19.7676 5.42969 19.0449 5.44922 18.2246C5.46875 17.4043 5.47852 16.5449 5.47852 15.6465C5.49805 14.7285 5.49805 13.8789 5.47852 13.0977C5.47852 12.2969 5.46875 11.6133 5.44922 11.0469C5.42969 10.4609 5.41016 10.0801 5.39062 9.9043C5.39062 9.70898 5.39062 9.51367 5.39062 9.31836C5.41016 9.10352 5.43945 8.9082 5.47852 8.73242C5.53711 8.55664 5.625 8.41992 5.74219 8.32227C5.87891 8.20508 6.08398 8.14648 6.35742 8.14648C6.72852 8.14648 7.07031 8.30273 7.38281 8.61523C7.71484 8.92773 7.88086 9.25977 7.88086 9.61133C7.88086 10.1191 7.85156 10.627 7.79297 11.1348C7.75391 11.623 7.73438 12.1211 7.73438 12.6289C7.73438 12.9414 7.73438 13.2051 7.73438 13.4199C7.73438 13.6348 7.77344 13.8984 7.85156 14.2109C7.91016 14.0547 8.00781 13.7812 8.14453 13.3906C8.28125 13 8.42773 12.5898 8.58398 12.1602C8.75977 11.7305 8.91602 11.3301 9.05273 10.959C9.18945 10.5684 9.28711 10.2949 9.3457 10.1387C9.48242 9.74805 9.6875 9.37695 9.96094 9.02539C10.2344 8.6543 10.5957 8.44922 11.0449 8.41016C11.3379 8.39062 11.6016 8.46875 11.8359 8.64453C12.0898 8.82031 12.3047 9.05469 12.4805 9.34766C12.6562 9.62109 12.8027 9.91406 12.9199 10.2266C13.0371 10.5195 13.125 10.7734 13.1836 10.9883L14.7656 18.2832L15.9961 21.623C16.0156 21.6426 16.0254 21.7012 16.0254 21.7988C16.0254 21.877 16.0254 21.9355 16.0254 21.9746C16.0254 22.209 15.9668 22.4434 15.8496 22.6777C15.752 22.8926 15.5664 23 15.293 23C14.9609 23 14.6191 22.9121 14.2676 22.7363C13.916 22.541 13.6719 22.2969 13.5352 22.0039ZM24.668 18.3711C24.6484 18.3711 24.5117 18.5859 24.2578 19.0156C24.0234 19.4453 23.7012 19.9141 23.291 20.4219C22.8809 20.9297 22.3926 21.3984 21.8262 21.8281C21.2793 22.2578 20.6934 22.4727 20.0684 22.4727C19.209 22.4727 18.4863 22.209 17.9004 21.6816C17.334 21.1543 17.0508 20.4316 17.0508 19.5137C17.0117 19.0449 17.0703 18.4883 17.2266 17.8438C17.4023 17.1992 17.6465 16.5352 17.959 15.8516C18.291 15.1484 18.6816 14.4746 19.1309 13.8301C19.5996 13.166 20.0977 12.5996 20.625 12.1309C21.1523 11.6426 21.6992 11.2812 22.2656 11.0469C22.8516 10.8125 23.4375 10.7734 24.0234 10.9297V10.5195C24.0234 10.0117 24.0039 9.49414 23.9648 8.9668C23.9453 8.41992 23.916 7.80469 23.877 7.12109C23.8574 6.41797 23.8281 5.61719 23.7891 4.71875C23.7695 3.80078 23.7598 2.70703 23.7598 1.4375C23.8184 1.22266 23.916 1.08594 24.0527 1.02734C24.209 0.949219 24.375 0.910156 24.5508 0.910156C25 0.910156 25.3516 1.05664 25.6055 1.34961C25.8789 1.64258 26.0449 2.00391 26.1035 2.43359C26.0645 3.09766 26.0449 3.78125 26.0449 4.48438C26.0645 5.16797 26.1035 5.94922 26.1621 6.82812C26.2207 7.70703 26.3086 8.70312 26.4258 9.81641C26.5625 10.9297 26.7285 12.248 26.9238 13.7715C27.1191 15.2754 27.3535 17.0137 27.627 18.9863C27.9004 20.9395 28.2227 23.2051 28.5938 25.7832V26.7793C28.5938 26.8965 28.5449 26.9844 28.4473 27.043C28.3691 27.1016 28.2617 27.1406 28.125 27.1602C28.0078 27.1992 27.8809 27.2188 27.7441 27.2188C27.627 27.2383 27.5391 27.248 27.4805 27.248C27.1875 27.248 26.875 27.1602 26.543 26.9844C26.2109 26.8281 26.0156 26.6035 25.957 26.3105L24.873 18.4883C24.873 18.4297 24.8438 18.4004 24.7852 18.4004C24.7461 18.3809 24.707 18.3711 24.668 18.3711ZM19.5117 19.0156C19.5117 19.0742 19.502 19.1816 19.4824 19.3379C19.4824 19.4746 19.4824 19.6211 19.4824 19.7773C19.502 19.9336 19.5312 20.0703 19.5703 20.1875C19.6094 20.3047 19.6875 20.3633 19.8047 20.3633C20.293 20.3828 20.791 20.1973 21.2988 19.8066C21.8262 19.416 22.3047 18.9375 22.7344 18.3711C23.1641 17.7852 23.5156 17.1602 23.7891 16.4961C24.082 15.832 24.2383 15.2363 24.2578 14.709C24.2969 14.1816 24.1699 13.7812 23.877 13.5078C23.6035 13.2148 23.125 13.1465 22.4414 13.3027C21.6016 14.0449 20.8984 14.8945 20.332 15.8516C19.7852 16.8086 19.5117 17.8633 19.5117 19.0156ZM35.1855 20.2168C35.0488 20.5098 34.9121 20.832 34.7754 21.1836C34.6387 21.5156 34.4824 21.8184 34.3066 22.0918C34.1309 22.3652 33.916 22.5996 33.6621 22.7949C33.4082 22.9707 33.0859 23.0586 32.6953 23.0586C32.0117 23.0586 31.4453 22.8926 30.9961 22.5605C30.5469 22.209 30.1758 21.7793 29.8828 21.2715C29.6094 20.7441 29.4141 20.1777 29.2969 19.5723C29.1797 18.9668 29.1211 18.4004 29.1211 17.873L29.3555 10.7832C29.3359 10.6465 29.3652 10.5098 29.4434 10.373C29.541 10.2168 29.6582 10.0801 29.7949 9.96289C29.9512 9.82617 30.1172 9.71875 30.293 9.64062C30.4883 9.5625 30.6641 9.52344 30.8203 9.52344C31.2695 9.52344 31.6504 9.66992 31.9629 9.96289C32.2754 10.2363 32.4316 10.5977 32.4316 11.0469V11.3398C32.2168 11.6914 32.0312 12.1504 31.875 12.7168C31.7188 13.2832 31.5918 13.8984 31.4941 14.5625C31.416 15.207 31.3672 15.8711 31.3477 16.5547C31.3281 17.2383 31.3477 17.8633 31.4062 18.4297C31.4844 18.9961 31.6016 19.4844 31.7578 19.8945C31.9141 20.2852 32.1191 20.5195 32.373 20.5977C32.4707 20.5977 32.6172 20.5488 32.8125 20.4512C33.0273 20.3535 33.252 20.168 33.4863 19.8945C33.7207 19.6211 33.9648 19.2402 34.2188 18.752C34.4727 18.2441 34.6973 17.5801 34.8926 16.7598C35.0879 15.9395 35.2344 14.9434 35.332 13.7715C35.4297 12.5996 35.459 11.1934 35.4199 9.55273C35.498 9.33789 35.6055 9.2207 35.7422 9.20117C35.8984 9.18164 36.0547 9.17188 36.2109 9.17188C36.3867 9.17188 36.5332 9.18164 36.6504 9.20117C36.7676 9.20117 36.8945 9.26953 37.0312 9.40625C37.1289 9.50391 37.2363 9.65039 37.3535 9.8457C37.4707 10.041 37.5293 10.1484 37.5293 10.168L38.0273 23.1465C38.0273 23.4395 37.9492 23.6836 37.793 23.8789C37.6367 24.0742 37.4121 24.1719 37.1191 24.1719C37.0215 24.1719 36.9043 24.1621 36.7676 24.1426C36.6309 24.123 36.4941 24.084 36.3574 24.0254C36.2207 23.9668 36.0938 23.8887 35.9766 23.791C35.8789 23.7129 35.8203 23.6152 35.8008 23.498L35.3027 20.5684L35.1855 20.2168ZM44.0625 21.8867C44.0625 21.7891 44.0625 21.7012 44.0625 21.623C44.082 21.5449 44.1309 21.4668 44.209 21.3887C44.4434 21.0957 44.707 20.793 45 20.4805C45.293 20.1484 45.5762 19.8262 45.8496 19.5137C46.123 19.1816 46.377 18.8398 46.6113 18.4883C46.8457 18.1367 47.041 17.7852 47.1973 17.4336V17.2578L43.3594 18.0488H42.9199C42.6465 18.0488 42.3047 18.0293 41.8945 17.9902C41.5039 17.9512 41.1133 17.873 40.7227 17.7559C40.3516 17.6191 40.0293 17.4336 39.7559 17.1992C39.502 16.9648 39.375 16.6523 39.375 16.2617C39.3945 15.8125 39.6289 15.3145 40.0781 14.7676C40.5273 14.2207 41.0547 13.6836 41.6602 13.1562C42.2656 12.6289 42.8711 12.1406 43.4766 11.6914C44.1016 11.2422 44.5996 10.8906 44.9707 10.6367C45.3809 10.4023 45.8691 10.2168 46.4355 10.0801C47.002 9.92383 47.5195 9.8457 47.9883 9.8457C48.3789 9.8457 48.7207 9.92383 49.0137 10.0801C49.3066 10.2168 49.4531 10.5 49.4531 10.9297C49.4531 11.1055 49.4336 11.2715 49.3945 11.4277C49.375 11.584 49.2578 11.6914 49.043 11.75C48.418 11.6914 47.832 11.7402 47.2852 11.8965C46.7383 12.0332 46.2207 12.248 45.7324 12.541C45.2441 12.834 44.7852 13.1855 44.3555 13.5957C43.9258 13.9863 43.5059 14.3965 43.0957 14.8262C42.9785 14.9629 42.832 15.1582 42.6562 15.4121C42.4805 15.6465 42.3926 15.7832 42.3926 15.8223V15.8516C42.9004 15.8516 43.3984 15.8027 43.8867 15.7051C44.3945 15.6074 44.8926 15.5098 45.3809 15.4121C45.8887 15.2949 46.3867 15.1875 46.875 15.0898C47.3828 14.9922 47.9004 14.9434 48.4277 14.9434C48.623 14.9434 48.8379 14.9629 49.0723 15.002C49.3066 15.0215 49.5215 15.0801 49.7168 15.1777C49.9316 15.2754 50.0977 15.4121 50.2148 15.5879C50.3516 15.7441 50.4199 15.9492 50.4199 16.2031C50.4199 16.5742 50.3223 16.9355 50.127 17.2871C49.9512 17.6191 49.6777 18.0293 49.3066 18.5176C48.9551 18.9863 48.4961 19.5625 47.9297 20.2461C47.3828 20.9297 46.7285 21.8086 45.9668 22.8828C45.9277 22.9414 45.8301 22.9805 45.6738 23C45.5371 23.0195 45.4199 23.0293 45.3223 23.0293C45.0488 23.0293 44.7656 22.9121 44.4727 22.6777C44.1992 22.4434 44.0625 22.1797 44.0625 21.8867ZM54.5215 14.4453C54.248 14.4453 54.0039 14.5137 53.7891 14.6504C53.5742 14.7871 53.3203 14.8555 53.0273 14.8555C52.9883 14.8555 52.8809 14.8555 52.7051 14.8555C52.5488 14.8359 52.4512 14.8262 52.4121 14.8262C52.334 14.7285 52.2461 14.6504 52.1484 14.5918C52.0508 14.5332 51.9531 14.4746 51.8555 14.416C51.7578 14.3379 51.6699 14.25 51.5918 14.1523C51.5332 14.0547 51.5039 13.918 51.5039 13.7422C51.5039 13.4492 51.6211 13.2148 51.8555 13.0391C52.0898 12.8438 52.3633 12.6777 52.6758 12.541C52.9883 12.4043 53.3008 12.2773 53.6133 12.1602C53.9453 12.043 54.209 11.9062 54.4043 11.75V10.4609C54.4043 9.01562 54.3359 7.57031 54.1992 6.125C54.0625 4.66016 53.9941 3.21484 53.9941 1.78906C53.9941 1.39844 54.0918 1.14453 54.2871 1.02734C54.4824 0.910156 54.7461 0.851562 55.0781 0.851562C55.4688 0.851562 55.752 0.96875 55.9277 1.20312C56.123 1.41797 56.2598 1.69141 56.3379 2.02344C56.416 2.33594 56.4551 2.67773 56.4551 3.04883C56.4551 3.40039 56.4648 3.70313 56.4844 3.95703C56.4844 4.21094 56.5039 4.66016 56.543 5.30469C56.582 5.94922 56.6211 6.63281 56.6602 7.35547C56.6992 8.07812 56.7383 8.76172 56.7773 9.40625C56.8164 10.0508 56.8457 10.5 56.8652 10.7539C56.9434 10.7344 57.0898 10.6855 57.3047 10.6074C57.5391 10.5098 57.7832 10.4219 58.0371 10.3438C58.291 10.2461 58.5254 10.1582 58.7402 10.0801C58.9746 10.002 59.1406 9.94336 59.2383 9.9043C59.7461 9.68945 60.2734 9.45508 60.8203 9.20117C61.3672 8.92773 61.9238 8.79102 62.4902 8.79102C62.8809 8.79102 63.1738 8.92773 63.3691 9.20117C63.584 9.45508 63.6914 9.75781 63.6914 10.1094C63.6914 10.3633 63.5938 10.5488 63.3984 10.666C63.2031 10.7832 62.998 10.8906 62.7832 10.9883L57.4512 12.9805C57.3926 13.0195 57.334 13.0586 57.2754 13.0977C57.2168 13.1172 57.1582 13.1562 57.0996 13.2148V14.1523C57.0996 14.8359 57.1094 15.5488 57.1289 16.291C57.168 17.0137 57.2363 17.7168 57.334 18.4004C57.4316 18.9863 57.5391 19.5625 57.6562 20.1289C57.7734 20.6953 57.832 21.2715 57.832 21.8574C57.832 22.0332 57.7734 22.2676 57.6562 22.5605C57.5391 22.8535 57.3535 23 57.0996 23C56.5723 23 56.1426 22.8438 55.8105 22.5312C55.4785 22.2188 55.293 21.7988 55.2539 21.2715C55.1562 20.2559 55.0488 19.1426 54.9316 17.9316C54.834 16.7207 54.7363 15.5586 54.6387 14.4453H54.5215ZM65.9473 21.7402C65.9082 21.0371 65.8398 20.0996 65.7422 18.9277C65.6641 17.7363 65.5664 16.5059 65.4492 15.2363C65.3516 13.9668 65.2441 12.7656 65.127 11.6328C65.0098 10.5 64.9121 9.62109 64.834 8.99609C64.834 8.74219 64.9512 8.57617 65.1855 8.49805C65.4199 8.41992 65.6445 8.38086 65.8594 8.38086C66.1328 8.38086 66.416 8.45898 66.709 8.61523C67.0215 8.77148 67.2168 8.98633 67.2949 9.25977C67.2949 9.33789 67.3047 9.48438 67.3242 9.69922C67.3438 9.89453 67.3535 10.0996 67.3535 10.3145C67.373 10.5293 67.3926 10.7441 67.4121 10.959C67.4316 11.1543 67.4414 11.291 67.4414 11.3691C67.4414 11.4863 67.4414 11.5742 67.4414 11.6328C67.4414 11.6914 67.4414 11.75 67.4414 11.8086C67.4414 11.8477 67.4512 11.8965 67.4707 11.9551C67.4902 12.0137 67.5195 12.1113 67.5586 12.248C67.5977 12.209 67.6367 12.1602 67.6758 12.1016C67.7344 12.043 67.7734 12.0039 67.793 11.9844C68.1055 11.5352 68.4082 11.1445 68.7012 10.8125C68.9941 10.4609 69.2969 10.1387 69.6094 9.8457C69.9219 9.5332 70.2637 9.21094 70.6348 8.87891C71.0254 8.52734 71.4746 8.12695 71.9824 7.67773C72.0996 7.58008 72.1875 7.51172 72.2461 7.47266C72.3047 7.41406 72.3535 7.375 72.3926 7.35547C72.4512 7.31641 72.5098 7.29688 72.5684 7.29688C72.627 7.27734 72.7051 7.26758 72.8027 7.26758C73.1348 7.26758 73.4668 7.38477 73.7988 7.61914C74.1504 7.83398 74.3262 8.13672 74.3262 8.52734C74.3262 8.66406 74.2773 8.81055 74.1797 8.9668C74.082 9.10352 73.9648 9.24023 73.8281 9.37695C73.6914 9.49414 73.5449 9.60156 73.3887 9.69922C73.252 9.79688 73.125 9.86523 73.0078 9.9043C72.5 10.3535 71.9629 10.8711 71.3965 11.457C70.8301 12.0234 70.3027 12.6387 69.8145 13.3027C69.3262 13.9668 68.9258 14.6602 68.6133 15.3828C68.3008 16.1055 68.1445 16.8281 68.1445 17.5508C68.1445 18.2148 68.1934 18.8691 68.291 19.5137C68.3887 20.1582 68.4375 20.8125 68.4375 21.4766V22.502C68.2812 22.6582 68.1445 22.7852 68.0273 22.8828C67.9102 22.9805 67.7441 23.0293 67.5293 23.0293C67.1973 23.0293 66.875 22.8926 66.5625 22.6191C66.25 22.3262 66.0449 22.0332 65.9473 21.7402ZM76.4648 21.8867C76.2695 19.9336 76.1035 18.2637 75.9668 16.877C75.8301 15.4902 75.7129 14.3281 75.6152 13.3906C75.5176 12.4531 75.4297 11.7109 75.3516 11.1641C75.293 10.5977 75.2441 10.1777 75.2051 9.9043C75.166 9.61133 75.1367 9.41602 75.1172 9.31836C75.0977 9.2207 75.0879 9.16211 75.0879 9.14258V9.02539C75.0879 8.81055 75.1758 8.63477 75.3516 8.49805C75.5469 8.3418 75.7422 8.26367 75.9375 8.26367C76.2305 8.26367 76.543 8.3125 76.875 8.41016C77.2266 8.50781 77.4609 8.71289 77.5781 9.02539C77.7539 9.98242 77.8711 10.9492 77.9297 11.9258C78.0078 12.9023 78.0664 13.8789 78.1055 14.8555C78.1641 15.8125 78.2324 16.7793 78.3105 17.7559C78.4082 18.7324 78.5742 19.6992 78.8086 20.6562C78.8086 20.6953 78.8184 20.7734 78.8379 20.8906C78.877 21.0078 78.9062 21.1348 78.9258 21.2715C78.9648 21.4082 78.9941 21.5352 79.0137 21.6523C79.0332 21.7695 79.043 21.8477 79.043 21.8867V21.9453C79.043 21.9648 79.0527 21.9844 79.0723 22.0039C79.0723 22.2383 78.9648 22.4727 78.75 22.707C78.5352 22.9414 78.3105 23.0391 78.0762 23C78.0176 22.9805 77.8711 22.9512 77.6367 22.9121C77.4219 22.8535 77.2754 22.8047 77.1973 22.7656C77.1387 22.7461 77.0605 22.707 76.9629 22.6484C76.8652 22.5703 76.7676 22.4922 76.6699 22.4141C76.5918 22.3359 76.5234 22.248 76.4648 22.1504C76.4062 22.0527 76.4062 21.9648 76.4648 21.8867ZM74.8242 0.529297C74.8242 0.392578 74.9316 0.275391 75.1465 0.177734C75.3809 0.0605469 75.5566 0.00195312 75.6738 0.00195312C75.9668 0.00195312 76.2891 0.0898438 76.6406 0.265625C77.0117 0.421875 77.1973 0.666016 77.1973 0.998047C77.1973 1.33008 77.1484 1.55469 77.0508 1.67188C76.9727 1.78906 76.7676 1.84766 76.4355 1.84766C76.084 1.84766 75.7227 1.73047 75.3516 1.49609C75 1.26172 74.8242 0.939453 74.8242 0.529297ZM92.4023 14.6797C92.3633 15.0312 92.3145 15.3047 92.2559 15.5C92.2168 15.6953 92.1387 15.8711 92.0215 16.0273C91.9043 16.1836 91.7383 16.3496 91.5234 16.5254C91.3086 16.6816 91.0156 16.916 90.6445 17.2285C90.2734 17.5215 89.8145 17.9121 89.2676 18.4004C88.7207 18.8887 88.0566 19.5234 87.2754 20.3047C86.9629 20.5977 86.6406 20.9004 86.3086 21.2129C85.9766 21.5254 85.625 21.8086 85.2539 22.0625C84.9023 22.2969 84.5312 22.4922 84.1406 22.6484C83.75 22.8047 83.3398 22.8828 82.9102 22.8828C82.0703 22.8828 81.4551 22.5996 81.0645 22.0332C80.6738 21.4668 80.4785 20.8125 80.4785 20.0703C80.4785 19.582 80.4883 19.1719 80.5078 18.8398C80.5469 18.5078 80.625 18.0781 80.7422 17.5508C80.5273 17.3555 80.3418 17.1895 80.1855 17.0527C80.0293 16.8965 79.9512 16.6914 79.9512 16.4375C79.9512 16.2031 80 16.0469 80.0977 15.9688C80.2148 15.8906 80.3418 15.8418 80.4785 15.8223C80.6348 15.7832 80.7812 15.7441 80.918 15.7051C81.0547 15.666 81.1523 15.5879 81.2109 15.4707C81.25 15.3535 81.3184 15.1387 81.416 14.8262C81.5332 14.5137 81.6504 14.1914 81.7676 13.8594C81.8848 13.5078 81.9922 13.1855 82.0898 12.8926C82.207 12.5801 82.2852 12.3652 82.3242 12.248C82.4609 11.916 82.6074 11.584 82.7637 11.252C82.9395 10.9004 83.1348 10.5879 83.3496 10.3145C83.584 10.041 83.8477 9.81641 84.1406 9.64062C84.4531 9.46484 84.8145 9.37695 85.2246 9.37695C85.459 9.37695 85.7422 9.48438 86.0742 9.69922C86.4258 9.91406 86.7578 10.1777 87.0703 10.4902C87.3828 10.7832 87.6465 11.0957 87.8613 11.4277C88.0762 11.7598 88.1836 12.043 88.1836 12.2773C88.1836 12.5703 88.1152 12.8438 87.9785 13.0977C87.8418 13.332 87.666 13.5566 87.4512 13.7715C87.2559 13.9668 87.041 14.1523 86.8066 14.3281C86.5723 14.5039 86.3574 14.6699 86.1621 14.8262C86.1426 14.8262 86.1035 14.8457 86.0449 14.8848C85.9863 14.9238 85.9375 14.9531 85.8984 14.9727C85.8789 14.9922 85.8301 15.041 85.752 15.1191C85.6934 15.1777 85.625 15.2461 85.5469 15.3242C85.4688 15.4023 85.3906 15.4805 85.3125 15.5586C85.2539 15.6367 85.2148 15.6855 85.1953 15.7051C85.1367 15.7637 85.0195 15.8613 84.8438 15.998C84.6875 16.1152 84.5117 16.252 84.3164 16.4082C84.1211 16.5449 83.9355 16.6816 83.7598 16.8184C83.6035 16.9355 83.4961 17.0137 83.4375 17.0527L83.3203 17.2871C83.2812 17.3652 83.2422 17.541 83.2031 17.8145C83.1836 18.0684 83.1543 18.3613 83.1152 18.6934C83.0762 19.0254 83.0371 19.3672 82.998 19.7188C82.9785 20.0508 82.9688 20.3242 82.9688 20.5391C82.9688 20.5586 82.9785 20.5781 82.998 20.5977C83.0371 20.6367 83.0664 20.6562 83.0859 20.6562C83.2422 20.6562 83.3887 20.5879 83.5254 20.4512C83.6621 20.3145 83.8086 20.2168 83.9648 20.1582L88.6523 15.8223L89.8535 13.9766C89.9512 13.8398 90.1367 13.6934 90.4102 13.5371C90.7031 13.3613 90.9961 13.2734 91.2891 13.2734C91.582 13.2539 91.8359 13.3418 92.0508 13.5371C92.2852 13.7324 92.4023 14.1133 92.4023 14.6797ZM85.957 12.3945C86.0547 12.3164 86.0938 12.1992 86.0742 12.043C86.0547 11.8867 85.9961 11.75 85.8984 11.6328C85.8203 11.5156 85.7129 11.4473 85.5762 11.4277C85.4395 11.3887 85.3125 11.457 85.1953 11.6328C85.1367 11.7109 85.0293 11.8672 84.873 12.1016C84.7363 12.3359 84.5898 12.5801 84.4336 12.834C84.2969 13.0684 84.1797 13.2734 84.082 13.4492C83.9844 13.625 83.9648 13.6934 84.0234 13.6543L85.957 12.3945ZM97.6172 21.8867C97.6172 21.7891 97.6172 21.7012 97.6172 21.623C97.6367 21.5449 97.6855 21.4668 97.7637 21.3887C97.998 21.0957 98.2617 20.793 98.5547 20.4805C98.8477 20.1484 99.1309 19.8262 99.4043 19.5137C99.6777 19.1816 99.9316 18.8398 100.166 18.4883C100.4 18.1367 100.596 17.7852 100.752 17.4336V17.2578L96.9141 18.0488H96.4746C96.2012 18.0488 95.8594 18.0293 95.4492 17.9902C95.0586 17.9512 94.668 17.873 94.2773 17.7559C93.9062 17.6191 93.584 17.4336 93.3105 17.1992C93.0566 16.9648 92.9297 16.6523 92.9297 16.2617C92.9492 15.8125 93.1836 15.3145 93.6328 14.7676C94.082 14.2207 94.6094 13.6836 95.2148 13.1562C95.8203 12.6289 96.4258 12.1406 97.0312 11.6914C97.6562 11.2422 98.1543 10.8906 98.5254 10.6367C98.9355 10.4023 99.4238 10.2168 99.9902 10.0801C100.557 9.92383 101.074 9.8457 101.543 9.8457C101.934 9.8457 102.275 9.92383 102.568 10.0801C102.861 10.2168 103.008 10.5 103.008 10.9297C103.008 11.1055 102.988 11.2715 102.949 11.4277C102.93 11.584 102.812 11.6914 102.598 11.75C101.973 11.6914 101.387 11.7402 100.84 11.8965C100.293 12.0332 99.7754 12.248 99.2871 12.541C98.7988 12.834 98.3398 13.1855 97.9102 13.5957C97.4805 13.9863 97.0605 14.3965 96.6504 14.8262C96.5332 14.9629 96.3867 15.1582 96.2109 15.4121C96.0352 15.6465 95.9473 15.7832 95.9473 15.8223V15.8516C96.4551 15.8516 96.9531 15.8027 97.4414 15.7051C97.9492 15.6074 98.4473 15.5098 98.9355 15.4121C99.4434 15.2949 99.9414 15.1875 100.43 15.0898C100.938 14.9922 101.455 14.9434 101.982 14.9434C102.178 14.9434 102.393 14.9629 102.627 15.002C102.861 15.0215 103.076 15.0801 103.271 15.1777C103.486 15.2754 103.652 15.4121 103.77 15.5879C103.906 15.7441 103.975 15.9492 103.975 16.2031C103.975 16.5742 103.877 16.9355 103.682 17.2871C103.506 17.6191 103.232 18.0293 102.861 18.5176C102.51 18.9863 102.051 19.5625 101.484 20.2461C100.938 20.9297 100.283 21.8086 99.5215 22.8828C99.4824 22.9414 99.3848 22.9805 99.2285 23C99.0918 23.0195 98.9746 23.0293 98.877 23.0293C98.6035 23.0293 98.3203 22.9121 98.0273 22.6777C97.7539 22.4434 97.6172 22.1797 97.6172 21.8867Z" fill="#898989"/>
</svg>
