<svg id="Layer_1" data-name="Layer 1" xmlns="http://www.w3.org/2000/svg" viewBox="0 0 158.96 45.65"><defs><style>.cls-1,.cls-5{fill:#fff;}.cls-2{fill:#8754f0;}.cls-3{fill:#35b9cf;}.cls-4,.cls-5{isolation:isolate;}.cls-5{font-size:12px;font-family:Bull-Medium, Bull;font-weight:500;}.cls-6{letter-spacing:-0.02em;}.cls-7{letter-spacing:-0.02em;}.cls-8{letter-spacing:-0.01em;}.cls-9{letter-spacing:0em;}</style></defs><path class="cls-1" d="M59.85,17.67a14,14,0,1,0,14,14,14,14,0,0,0-14-14h0m0,21.2a7.24,7.24,0,1,1,7.24-7.23,7.23,7.23,0,0,1-7.24,7.23" transform="translate(0 0.04)"/><path class="cls-2" d="M7.84,25.17,0,29.69v3.89L7.84,38.1V34.21L3.37,31.64l4.47-2.58Z" transform="translate(0 0.04)"/><path class="cls-1" d="M34.14,35.25a7.26,7.26,0,1,1,0-7.22h7.23a14,14,0,1,0,0,7.22Z" transform="translate(0 0.04)"/><path class="cls-1" d="M91,18.36H78.34V44.91H91a12.64,12.64,0,0,0,12.66-12.64h0V31A12.65,12.65,0,0,0,91,18.36h0M96.64,32a6.42,6.42,0,0,1-6.42,6.42H85.51V24.9h4.71a6.42,6.42,0,0,1,6.42,6.42Z" transform="translate(0 0.04)"/><path class="cls-1" d="M124.48,18.35,118.58,28l-5.9-9.62h-8.24l10.75,17v9.61H122V35.32l10.74-17Z" transform="translate(0 0.04)"/><path class="cls-2" d="M151.14,25.17v3.89l4.46,2.58-4.46,2.57V38.1L159,33.58V29.69Z" transform="translate(0 0.04)"/><path class="cls-3" d="M136.71,40.73l11.54-18.19h-4L132.72,40.73Z" transform="translate(0 0.04)"/><g class="cls-4"><text class="cls-5" transform="translate(14 10.04)">p<tspan class="cls-6" x="7.57" y="0">o</tspan><tspan class="cls-7" x="14.59" y="0">w</tspan><tspan x="24.47" y="0">e</tspan><tspan class="cls-8" x="31.46" y="0">r</tspan><tspan class="cls-9" x="35.71" y="0">ed </tspan><tspan class="cls-6" x="53.54" y="0">b</tspan><tspan x="60.85" y="0">y</tspan></text></g></svg>