<svg fill="none" height="59" viewBox="0 0 58 59" width="58" xmlns="http://www.w3.org/2000/svg"><rect fill="#fcc204" height="58" rx="10" width="58" y=".832031"/><path d="m24.7499 27.1666c-.3757 0-.736.1493-1.0017.415s-.4149.626-.4149 1.0017v2.8333c0 .3758.1492.7361.4149 1.0018s.626.4149 1.0017.4149.7361-.1492 1.0018-.4149c.2656-.2657.4149-.626.4149-1.0018v-2.8333c0-.3757-.1493-.736-.4149-1.0017-.2657-.2657-.6261-.415-1.0018-.415zm17 1.4167c.3757 0 .7361-.1492 1.0018-.4149.2656-.2657.4149-.626.4149-1.0018v-5.6666c0-.3757-.1493-.7361-.4149-1.0018-.2657-.2656-.6261-.4149-1.0018-.4149h-25.5c-.3757 0-.736.1493-1.0017.4149-.2657.2657-.4149.6261-.4149 1.0018v5.6666c0 .3758.1492.7361.4149 1.0018s.626.4149 1.0017.4149.7361.1493 1.0018.4149c.2656.2657.4149.6261.4149 1.0018s-.1493.736-.4149 1.0017c-.2657.2657-.6261.4149-1.0018.4149s-.736.1493-1.0017.415-.4149.626-.4149 1.0017v5.6667c0 .3757.1492.736.4149 1.0017s.626.4149 1.0017.4149h25.5c.3757 0 .7361-.1492 1.0018-.4149.2656-.2657.4149-.626.4149-1.0017v-5.6667c0-.3757-.1493-.736-.4149-1.0017-.2657-.2657-.6261-.415-1.0018-.415s-.736-.1492-1.0017-.4149-.4149-.626-.4149-1.0017.1492-.7361.4149-1.0018c.2657-.2656.626-.4149 1.0017-.4149zm-1.4166-2.5783c-.8205.2978-1.5294.841-2.0304 1.5557-.5009.7148-.7697 1.5664-.7697 2.4393 0 .8728.2688 1.7245.7697 2.4392.501.7148 1.2099 1.258 2.0304 1.5558v3.0883h-14.1667c0-.3757-.1493-.736-.4149-1.0017-.2657-.2657-.6261-.415-1.0018-.415s-.736.1493-1.0017.415-.4149.626-.4149 1.0017h-5.6667v-3.0883c.8205-.2978 1.5293-.841 2.0303-1.5558.501-.7147.7697-1.5664.7697-2.4392 0-.8729-.2687-1.7245-.7697-2.4393-.501-.7147-1.2098-1.2579-2.0303-1.5557v-3.0884h5.6667c0 .3758.1492.7361.4149 1.0018s.626.4149 1.0017.4149.7361-.1492 1.0018-.4149c.2656-.2657.4149-.626.4149-1.0018h14.1667z" fill="#fff"/></svg>