<svg width="189" height="34" viewBox="0 0 189 34" fill="none" xmlns="http://www.w3.org/2000/svg">
<path d="M71.1564 0.00292986C67.8713 0.003403 64.6601 0.983927 61.9289 2.82051C59.1977 4.6571 57.069 7.26727 55.8122 10.321C54.5554 13.3747 54.2268 16.7347 54.868 19.9763C55.5092 23.2179 57.0913 26.1954 59.4144 28.5323C61.7375 30.8693 64.6972 32.4607 67.9192 33.1053C71.1412 33.7499 74.4808 33.4188 77.5158 32.1539C80.5508 30.889 83.1448 28.747 84.9699 25.9988C86.7949 23.2506 87.7691 20.0197 87.7691 16.7146C87.7691 14.5198 87.3393 12.3465 86.5044 10.3188C85.6696 8.29104 84.4458 6.44866 82.9032 4.89681C81.3605 3.34496 79.5291 2.11404 77.5136 1.27434C75.4981 0.434642 73.3379 0.00261566 71.1564 0.00292986ZM71.1564 25.3724C69.4545 25.3722 67.7909 24.8642 66.3759 23.9127C64.9609 22.9613 63.8581 21.609 63.207 20.027C62.5558 18.4449 62.3856 16.7042 62.7178 15.0248C63.0499 13.3454 63.8696 11.8028 65.0731 10.5921C66.2767 9.38142 67.81 8.55696 69.4792 8.22299C71.1485 7.88902 72.8787 8.06055 74.451 8.71587C76.0234 9.3712 77.3673 10.4809 78.3128 11.9047C79.2583 13.3284 79.7629 15.0023 79.7629 16.7146C79.7626 19.0109 78.8557 21.213 77.2417 22.8367C75.6277 24.4603 73.4388 25.3724 71.1564 25.3724Z" fill="#0F0E5E"/>
<path d="M9.31047 8.98267L0.00012207 14.3905V19.04L9.31047 24.4455V19.796L4.00317 16.7171L9.31047 13.631V8.98267Z" fill="#8754F0"/>
<path d="M40.5812 21.0328C39.6358 22.6852 38.1747 23.9773 36.4246 24.7086C34.6746 25.4399 32.7335 25.5695 30.9027 25.0772C29.072 24.5849 27.454 23.4983 26.2999 21.9861C25.1458 20.4739 24.5202 18.6206 24.5202 16.7141C24.5202 14.8075 25.1458 12.9543 26.2999 11.442C27.454 9.92983 29.072 8.84324 30.9027 8.35096C32.7335 7.85868 34.6746 7.98824 36.4246 8.71954C38.1747 9.45084 39.6358 10.743 40.5812 12.3953H49.1759C48.1343 8.47744 45.7124 5.07424 42.3615 2.81995C39.0106 0.565657 34.9593 -0.385923 30.9627 0.142549C26.966 0.67102 23.2967 2.64349 20.6386 5.69236C17.9804 8.74122 16.5148 12.6585 16.5148 16.7141C16.5148 20.7697 17.9804 24.6869 20.6386 27.7358C23.2967 30.7847 26.966 32.7571 30.9627 33.2856C34.9593 33.8141 39.0106 32.8625 42.3615 30.6082C45.7124 28.3539 48.1343 24.9507 49.1759 21.0328H40.5812Z" fill="#0F0E5E"/>
<path d="M108.185 0.830759V0.816406H93.1383V32.595H107.605C107.798 32.595 107.989 32.6093 108.185 32.6093C110.161 32.6103 112.118 32.2196 113.943 31.4598C115.769 30.6999 117.428 29.5856 118.826 28.1807C120.223 26.7757 121.332 25.1074 122.089 23.2712C122.846 21.435 123.236 19.4668 123.237 17.479V15.9682C123.237 13.9798 122.848 12.0108 122.091 10.1738C121.335 8.33679 120.226 6.66772 118.828 5.26196C117.43 3.85621 115.771 2.74132 113.945 1.98099C112.119 1.22067 110.162 0.829816 108.185 0.830759ZM114.894 17.1106C114.894 19.1471 114.089 21.0999 112.657 22.5396C111.226 23.9793 109.284 24.7879 107.26 24.7876H101.657V8.65847H107.26C109.285 8.65879 111.226 9.46809 112.658 10.9084C114.089 12.3487 114.894 14.3021 114.894 16.3391V17.1106Z" fill="#0F0E5E"/>
<path d="M147.992 0.816406L140.978 12.3343L133.963 0.816406H124.164L136.942 21.1237V32.6129H145.015V21.1237L157.791 0.816406H147.992Z" fill="#0F0E5E"/>
<path d="M179.683 8.98267V13.6298L184.988 16.7159L179.683 19.7948V24.4443L188.993 19.0388V14.3905L179.683 8.98267Z" fill="#8754F0"/>
<path d="M162.533 27.5914L176.247 5.83789H171.505L157.791 27.5914H162.533Z" fill="#35B9CF"/>
</svg>
