<?xml version="1.0" encoding="utf-8"?>
<!-- Generator: Adobe Illustrator 24.3.0, SVG Export Plug-In . SVG Version: 6.00 Build 0)  -->
<svg version="1.1" id="Layer_1" xmlns="http://www.w3.org/2000/svg" xmlns:xlink="http://www.w3.org/1999/xlink" x="0px" y="0px"
	 viewBox="0 0 512 133.75" style="enable-background:new 0 0 512 133.75;" xml:space="preserve">
<style type="text/css">
	.st0{fill:#EE2626;}
</style>
<g id="Logo_Slogan_Red_3_">
	<g>
		<path class="st0" d="M199.82,75.93h-44.19h-0.27h-3.02h-2.44c-6.14,0-11.14-5-11.14-11.13c0-0.64,0.05-1.29,0.17-1.91
			c0,0,0,0,0-0.01l0.05-0.26c0,0,0,0,0-0.01c0.11-0.57,0.27-1.13,0.48-1.65l0.01,0c0.1-0.25,0.2-0.49,0.29-0.73
			c0.03-0.06,0.04-0.12,0.07-0.18l0.03-0.07l0.01-0.02h0.01c0-0.01,0-0.02,0.01-0.04c0,0,0-0.01,0.01-0.02c0,0,0-0.01,0.01-0.01
			c0.01-0.01,0.01-0.03,0.02-0.04l0.59-1.37c0-0.01,0.01-0.01,0.01-0.02l0,0l0.03-0.08c0.03-0.06,0.05-0.11,0.08-0.18c0,0,0,0,0,0
			c0.01-0.03,0.02-0.05,0.04-0.08c0.68-1.47,1.46-2.93,2.32-4.36c0.22-0.36,0.44-0.72,0.66-1.07c0.02-0.03,0.03-0.05,0.05-0.08
			l0.08-0.13c2.52-3.9,5.63-7.48,9.23-10.67h0.01l0-0.01l0.29-0.26c2.1-1.86,4.45-3.62,6.98-5.27h0.02l0,0l0.4-0.26
			c5.59-3.57,10.34-5.34,11.62-5.79c-0.25,0.4-0.47,0.82-0.65,1.24c-0.68,1.46-1.1,2.99-1.23,4.55c0,0,0,0,0,0c0,0,0,0,0,0
			l-0.03,0.25l0,0h0.01c-0.16,1.79,0.08,3.61,0.68,5.27c0,0,0,0,0,0c0.02,0.06,0.04,0.11,0.06,0.18l0.03,0.08l0,0.01h0.01
			c1,2.58,2.85,4.6,5.22,5.71c1.33,0.62,2.74,0.91,4.17,0.91c4.13,0,8.31-2.45,10.68-6.62l0-0.01l0.04-0.07
			c0.03-0.06,0.06-0.11,0.1-0.19c0,0,0,0,0,0c0.11-0.21,0.24-0.45,0.36-0.73c0.68-1.45,1.1-2.99,1.23-4.54l0.01-0.12v-0.01
			l0.02-0.12c0.09-1.23,0.03-2.43-0.21-3.57c-0.09-0.51-0.23-1.02-0.4-1.51c-0.06-0.2-0.12-0.37-0.21-0.56
			c-0.02-0.08-0.05-0.16-0.09-0.24c-0.17-0.39-0.35-0.77-0.56-1.13c-0.4-0.74-0.9-1.41-1.48-2.02c-0.34-0.37-0.72-0.72-1.12-1.03
			c-0.6-0.48-1.25-0.88-1.96-1.2c-0.27-0.12-0.55-0.24-0.83-0.34c-0.17-0.06-0.33-0.11-0.5-0.17c-0.07-0.02-0.15-0.04-0.21-0.06
			c-0.43-0.12-0.86-0.21-1.29-0.27l-1.75-0.13l0.01-0.12l0.01-0.09c-0.03,0-3.5-0.33-8.82,0.08l-0.43,0.04
			c-0.74,0.06-1.5,0.13-2.29,0.22c-0.02,0-0.03,0-0.05,0c-8.98,1.01-21.07,3.99-32.25,12.09c0,0,0,0-0.01,0l-0.03,0.02
			c-0.1,0.08-0.21,0.15-0.31,0.23c0,0,0,0-0.01,0c-2.2,1.61-4.29,3.38-6.25,5.27c0,0,0,0-0.01,0h-0.01l-0.03,0.03
			c-0.07,0.07-0.15,0.14-0.22,0.22c0,0,0,0-0.01,0.01c-4.72,4.62-8.75,10.14-11.99,16.39c0,0,0,0,0,0
			c-0.01,0.02-0.02,0.04-0.03,0.06l-0.1,0.19l0,0c-0.1,0.21-0.22,0.41-0.32,0.63l-0.01,0.01c0,0,0,0,0,0
			c-0.42,0.84-0.84,1.72-1.24,2.63l0,0.01l-0.01,0.01l-0.02,0.04l0,0.01c-0.13,0.26-0.26,0.54-0.37,0.82
			c-0.01,0.03-0.03,0.05-0.04,0.08l0.01,0c-0.19,0.5-1.27,3.47-1.32,6.31c0,0.02,0.01,0.04,0.01,0.06c-0.06,0.63-0.1,1.27-0.1,1.92
			c0,1.67,0.21,3.33,0.61,4.93l0,0.01l0.04,0.16c0.01,0.03,0.02,0.06,0.02,0.09h0.01c0,0,0,0,0,0.01c0.61,2.33,1.65,4.52,3.08,6.47
			h-0.02l0.09,0.12l0.1,0.13c0.21,0.28,0.41,0.54,0.63,0.81c0.05,0.06,0.09,0.11,0.15,0.17c0.21,0.25,0.41,0.49,0.64,0.73
			c0.23,0.25,0.48,0.5,0.73,0.74c0.15,0.15,0.29,0.28,0.44,0.4c0.1,0.1,0.21,0.21,0.32,0.28c0.16,0.16,0.31,0.29,0.48,0.41
			c0.1,0.09,0.22,0.19,0.33,0.27c0.2,0.16,0.4,0.31,0.61,0.46c0.54,0.39,1.1,0.77,1.68,1.1c0.18,0.1,0.36,0.21,0.55,0.3
			c0.41,0.23,0.84,0.45,1.28,0.63c0.21,0.1,0.44,0.2,0.65,0.28c0.2,0.09,0.4,0.18,0.61,0.24c0.04,0.03,0.09,0.04,0.15,0.06
			c0.31,0.11,0.62,0.23,0.94,0.31c0.06,0.03,0.12,0.05,0.19,0.06c0.23,0.07,0.46,0.13,0.68,0.19c0.18,0.06,0.36,0.1,0.55,0.15
			c0.32,0.07,0.65,0.15,1,0.21c0.33,0.06,0.67,0.11,1.01,0.16l0.23,0.02c0.48,0.05,0.97,0.09,1.45,0.11
			c0.26,0.01,0.53,0.02,0.79,0.02c0.22,0,0.44-0.01,0.66-0.02l57.34,0.13h0.28h0l0,0l0.09-0.25l0,0l0,0l2.92-7.94l0-0.01l0.09-0.25
			l0-0.01L200,76.2l0-0.01l0.03-0.08l0.04-0.1l0.02-0.07h0l0-0.01H199.82z M117.93,62.89L117.93,62.89
			c-0.01,0.03-0.02,0.07-0.04,0.11c0,0,0,0,0,0L117.93,62.89z"/>
		<path class="st0" d="M116.49,48c0.17-0.38,0.32-0.78,0.46-1.18c0.05-0.15,0.1-0.3,0.15-0.45c0.35-1.11,0.58-2.25,0.7-3.43
			c0.01-0.17,0.02-0.32,0.04-0.49c0.02-0.21,0.03-0.42,0.03-0.64l0.01-0.12v-0.01v-0.12v-0.37c0-1.67-0.23-3.32-0.69-4.9l0,0
			l-0.05-0.17c-0.01-0.03-0.02-0.05-0.03-0.08c0,0,0,0,0,0c-1.63-5.24-5.55-9.23-10.47-11.06c-0.16-0.05-0.31-0.11-0.48-0.17
			c-0.72-0.24-1.45-0.44-2.21-0.58c-0.16-0.03-0.3-0.06-0.46-0.08c-0.6-0.1-1.22-0.17-1.85-0.21h-0.06c-0.03,0-0.05,0-0.08,0
			l-0.74-0.26h-0.1v0l-0.16,0H83.48h0H83.2h0H64.43h0h-0.28h0H34.53l-0.18,0v0h-0.09l0,0h0l-0.03,0.08l-0.06,0.17l0,0l-9.28,12.09
			l0,0l-0.03,0.08l-0.04,0.1l-0.03,0.07h0l0,0h0.27h34.46h0h0.28h0h18.76h0h0.27h0.01h5.18h0.27l1.88-0.01h0.01h1.09v0.01h2.62
			c0.02,0,0.03,0,0.04,0h0.03c2.82,0.5,5.19,2.55,6.09,5.27l0.08,0.26h0.01l0,0.01l0,0c0.02,0.05,1.09,3.05-1.09,6.77
			c-0.21,0.31-0.42,0.63-0.64,0.94c-0.01,0.02-0.03,0.04-0.04,0.06c-0.12,0.17-0.24,0.34-0.36,0.5c-0.01,0.01-0.02,0.03-0.03,0.04
			c-0.01,0-0.01,0.01-0.01,0.01c-0.02,0.02-0.04,0.05-0.05,0.07c-0.27,0.36-0.54,0.72-0.83,1.06c-0.33,0.41-0.68,0.83-1.05,1.24
			c-0.28,0.32-0.57,0.64-0.87,0.94c-0.36,0.37-0.73,0.75-1.1,1.1c-0.03,0.03-0.05,0.05-0.08,0.08l-0.01,0.01l-0.1,0.1
			c-1.35,1.27-2.79,2.44-4.3,3.47l-0.38,0.26l-0.01,0c0,0,0,0-0.01,0c-2.67,1.77-5.56,3.17-8.56,4.16h-0.01
			c-0.01,0-0.01,0-0.02,0.01l-0.83,0.26c-0.01,0-0.01,0-0.02,0.01h-0.01c-1.78,0.54-3.63,0.92-5.5,1.16
			c-0.57,0.07-1.13,0.12-1.7,0.17l0.49-1.33h0.01l0-0.01l0.09-0.26l0-0.01h0.01l1.52-4.16l0,0l0.09-0.26l6.04-16.39l0-0.01
			l0.05-0.14l0.04-0.12h0l0,0h-0.19v0l-0.09,0H57.84l-0.18,0v0h-0.09l0,0h0l-0.03,0.08l-0.06,0.17l0,0.01L51.43,58.2l-0.09,0.26l0,0
			l-0.89,2.43h-0.01l-0.08,0.23v0.01l-0.55,1.49l0,0.01l-0.1,0.26l0,0.01l-2.56,6.96l-0.09,0.25l-2.15,5.84l0,0.01l-0.09,0.25
			l0,0.01l-2.38,6.47l-0.09,0.26l0,0.01l-2.92,7.94l0,0.01l-0.03,0.08l-0.03,0.1l-0.03,0.07h0l0,0h0.27h18.78h0.28h0.01l0,0
			l0.09-0.25l0,0l0,0l2.92-7.94l0-0.01l0.09-0.26l2.38-6.47l0-0.01l0.09-0.25l0-0.01l0.97-2.62V73.3c0.59,0.03,1.22,0.04,1.85,0.04
			c12.43,0,24.44-3.62,34.77-10.45h0.02l0.01-0.01l0.37-0.26c0,0,0.01,0,0.01-0.01h0.01c1.89-1.25,3.73-2.65,5.5-4.16
			c0.1,0,5.22-4.42,7.34-7.83c0.05-0.08,0.09-0.16,0.12-0.23c0.15-0.24,0.31-0.46,0.45-0.71c0.09-0.16,0.18-0.31,0.27-0.48
			c0.13-0.25,0.26-0.51,0.37-0.77C116.36,48.3,116.43,48.15,116.49,48z M96.27,41.81c0,0.01,0,0.02,0.01,0.03l-0.11-0.03H96.27z"/>
		<path class="st0" d="M459.09,82.45h-0.25h-20.06l2.44-6.64l0.04-0.13l0.05-0.14l2.04-5.55h0.01l0.13-0.36l2.74-7.46h0.01l0-0.01
			l0.09-0.27l0-0.01h0.01l1.56-4.26l0,0l0.1-0.27l6.2-16.81l0.1-0.27l4.06-11.01h-17.46v0l0,0h-0.09l-0.09,0.26l0,0l-3.96,10.74
			l0,0.01l-0.09,0.26l0,0.01l-6.2,16.81l0,0l-0.09,0.26l0,0l-1.56,4.26h-0.01l0,0.01l-0.09,0.27l0,0.01h-0.01l-4.92,13.37
			l-0.05,0.14l-0.04,0.13l-2.23,6.06l-0.21,0.58h-0.05h-0.13h-19.43l2.44-6.64l0.04-0.13l0.05-0.14l0.43-1.14l1.74-4.74l0.12-0.34
			l2.64-7.15h0.01l0-0.01l0.09-0.27l0-0.01h0.01l1.56-4.26l0,0l0.1-0.27l6.2-16.81l0-0.01l0.1-0.27l3.96-10.74l0,0l0.05-0.15
			l0.04-0.11h0l0,0h-0.19v0l-0.09,0h-16.98l-0.19,0v0h-0.09l0,0h0l-0.03,0.08l-0.06,0.18l0,0l-3.98,10.74l0,0.01l-0.09,0.26l0,0.01
			l-6.18,16.81l0,0l-0.03,0.09l-0.06,0.18l0,0l-1.57,4.26h-0.01l0,0.01l-0.09,0.27l0,0.01h-0.01l-4.92,13.37l0,0.01l-0.1,0.27
			l-1.96,5.35l-0.48,1.29h-0.02h-11.82h-0.27h-7.33l2.44-6.64l0-0.01l0.09-0.26l0-0.01l1.63-4.41l0.13-0.34l0.4-1.09h0.01l0.01-0.03
			l0.13-0.33l2.61-7.16h0.01l0-0.01l0.09-0.27l0-0.01h0.01l1.57-4.26l0,0l0.05-0.15l0.04-0.11h0l0,0h-0.19v0l-0.09,0h-12.89h0h-0.28
			h0h-12.15l-0.19,0v0h-0.09h-3.2h-0.4l-2,0.27c-0.01,0-0.03,0-0.04,0c-4.03,0.57-7.77,2.06-10.99,4.26
			c-0.14,0.09-0.27,0.18-0.39,0.28c-3.28,2.32-6.01,5.37-7.93,8.91c0,0.01-0.01,0.01-0.01,0.02c-0.54,0.98-1.01,2.01-1.41,3.07
			l-0.19,0.5l-0.07,0.18l0,0c0,0-0.38,0.97-0.44,1.11l-0.11,0.3c0,0.01-0.01,0.03-0.02,0.04c-0.01,0.02-0.01,0.03-0.02,0.04
			c-0.05,0.12-0.09,0.24-0.12,0.36l0,0c0,0.02-0.01,0.04-0.02,0.07c0,0,0,0,0,0l-0.02,0.09c-0.17,0.56-0.29,1.13-0.36,1.71
			c0,0,0,0,0,0c-0.04,0.29-0.06,0.57-0.07,0.87c-0.02,0.18-0.02,0.37-0.02,0.55c0,0.43,0.02,0.85,0.07,1.28c0,0,0,0,0,0.01v0.03
			c0.03,0.26,0.07,0.52,0.13,0.79c0.01,0.12,0.04,0.22,0.06,0.34h-0.28h-0.27h-1.05h0h-0.28h0h-2.39h-0.32h-10.84l2.44-6.64l0-0.01
			l0.09-0.26l0-0.01l2.44-6.64l0.1-0.27c2.01-4.8,1.87-5.92,1.87-5.92l-0.01,0.01c0-0.05,0.01-0.1,0.01-0.16
			c0-0.13,0-0.26-0.01-0.39l-0.03-0.28c-0.15-1.14-0.66-2.18-1.46-2.97c0.01-0.01,0-0.01,0-0.01c0,0,0,0,0,0
			c-0.03-0.04-0.07-0.07-0.11-0.11l-0.09-0.07h-0.01h-0.01c-0.54-0.51-1.18-0.88-1.87-1.11c-0.01,0-0.01,0-0.02,0
			c-0.52-0.18-1.05-0.26-1.61-0.26c-1.08,0-2.13,0.09-3.14,0.26c-0.01,0-0.03,0-0.04,0c-2.98,0.47-5.57,1.53-7.45,2.51
			c0,0,0,0-0.01,0c-0.61,0.32-1.15,0.62-1.6,0.9l-0.18,0.1l0,0c-0.01,0.01-0.02,0.01-0.03,0.02c0,0,0,0,0,0l0,0
			c-0.34,0.2-0.59,0.37-0.78,0.5c-0.18,0.12-0.28,0.2-0.33,0.23l-13.82,10.42l1.82-5.19c0.13-0.34,0.3-0.73,0.49-1.17
			c0.53-1.21,0.75-2.15,0.83-2.56c0-0.02,0.01-0.03,0.01-0.05c0-0.01,0-0.02,0-0.02c0-0.01,0-0.01,0-0.02
			c0.02-0.09,0.02-0.14,0.02-0.14l-0.01,0.01c0.02-0.12,0.04-0.24,0.04-0.37c0.01-0.09,0.01-0.16,0.01-0.24
			c0-0.07-0.01-0.13-0.01-0.2v-0.2l-0.01-0.14l-0.01-0.14h-0.02c-0.16-1.28-0.77-2.42-1.75-3.26c0,0,0,0,0,0
			c-0.04-0.03-0.09-0.07-0.13-0.11l-0.07-0.06h-0.01h0c-0.47-0.36-1-0.65-1.56-0.83c-0.01,0-0.01,0-0.02,0
			c-0.5-0.16-1.02-0.25-1.55-0.26l-0.06-0.01v0h0h-0.67v0l-0.11,0.01c-1.03,0.01-2.04,0.1-3.01,0.26c-0.01,0-0.03,0-0.04,0
			c-3.05,0.49-5.69,1.6-7.5,2.52c-0.01,0.01-0.02,0.01-0.04,0.02c-0.48,0.24-0.87,0.46-1.21,0.67l-0.45,0.25l-0.37,0.24
			c-0.48,0.3-0.76,0.5-0.84,0.56c-0.01,0.01-0.04,0.03-0.04,0.03l0.01,0.01l-0.2,0.23l-0.01,0.01l-17.09,12.77l4.7-12.77h0.01
			l0-0.01l0.09-0.27l0-0.01h0.01l1.56-4.26l0,0l0.05-0.15l0.04-0.11h0l0,0h-0.19v0l-0.09,0h-17.49l-0.19,0v0h-0.09l0,0h0l-0.03,0.09
			l-0.06,0.18l0,0l-1.57,4.26h-0.01l0,0.01l-0.09,0.27l0,0.01h-0.01l-4.92,13.37l0,0.01l-0.09,0.26l0,0.01l-2.44,6.63l-0.1,0.27
			l0,0.01l-3,8.14l0,0.01l-0.03,0.08l-0.04,0.11l-0.03,0.07h0l0,0.01h0.28h2.09h0h0.44h0h12.24h0.45h0l0.01-0.01l0.01-0.01
			l0.02-0.02l0,0l0.32-0.23l0.01-0.01l2.78-2.08l0,0l0.38-0.29h0h0.01l7.73-5.77l0.01-0.01l0.34-0.26h0.01l0.01-0.01l3.36-2.52
			l0.01-0.01l0.26-0.19h0.01l5.23-3.91l0.01-0.01l0.03-0.02l0.31-0.24l0.01-0.01l0.82-0.63l-0.22,0.63l0,0.01l-0.09,0.26l0,0.01
			l-2.44,6.63l0,0.01l-0.09,0.26l0,0.01l-0.84,2.29v0.01l-0.01,0.01v0.02l-0.01,0.02c-0.06,0.15-0.12,0.29-0.16,0.43
			c0,0,0,0.01,0,0.02c-0.05,0.17-0.09,0.34-0.12,0.51c-0.01,0.04-0.01,0.07-0.02,0.11c0,0.01,0,0.03,0,0.04
			c-0.03,0.24-0.1,0.9,0.06,1.53c0,0.02,0.01,0.02,0.02,0.04c0.16,0.76,0.52,1.45,1.05,2c0,0,0,0,0,0c0.01,0.02,0.03,0.04,0.05,0.06
			v0.01l0.04,0.04c0.03,0.03,0.05,0.05,0.08,0.07c0,0,0,0,0,0c0.43,0.42,0.94,0.73,1.5,0.93c0,0,0.01,0,0.01,0.01
			c0.45,0.17,0.93,0.25,1.42,0.26c0.02,0,0.04,0.01,0.06,0.01c0.02,0,0.04,0,0.05-0.01h3.62c0.02,0,0.03,0,0.05,0.01h0.29
			c0.1,0,0.2,0.01,0.3,0.01s0.2,0,0.3-0.01h0.28h0.01c0.41-0.02,0.82-0.06,1.22-0.14c0.24-0.03,0.48-0.08,0.71-0.13
			c0.23-0.05,0.46-0.11,0.69-0.18c0.5-0.15,0.99-0.33,1.47-0.55c0.23-0.11,0.47-0.21,0.69-0.35c0.01-0.01,0.02-0.01,0.03-0.02
			c0.46-0.24,0.9-0.52,1.31-0.83l-0.01,0.01l0.05-0.04c0,0,0,0,0.01,0l3.7-2.76l0.25-0.17l0.13-0.09l4.21-3.15l0.01-0.01l0.35-0.26
			h0l0.01-0.01l8.86-6.63h0.19l-2.44,6.63l0,0.01l-0.09,0.26l0,0.01l-0.76,2.34c-0.13,0.29-0.24,0.59-0.3,0.92c0,0,0,0.01,0,0.01
			c-0.03,0.18-0.05,0.36-0.06,0.55c-0.01,0.07-0.01,0.16-0.01,0.23c0,0.14,0.01,0.29,0.02,0.43c0.02,0.23,0.06,0.47,0.13,0.7
			c0.02,0.07,0.04,0.14,0.06,0.21c0.04,0.15,0.11,0.31,0.18,0.46c0.04,0.1,0.08,0.18,0.14,0.28c0.05,0.1,0.11,0.2,0.17,0.3
			c0.45,0.68,1.08,1.24,1.84,1.58c0.11,0.04,0.2,0.08,0.31,0.13c0.13,0.05,0.27,0.1,0.4,0.13c0.34,0.1,0.71,0.14,1.08,0.14h12.85h0
			h0.28h0h7.99h0.01h0.28c0.1,0,0.2,0.01,0.3,0.01c0.1,0,0.2,0,0.3-0.01h0.29c0.02,0,0.04,0,0.05-0.01
			c0.61-0.03,1.22-0.12,1.82-0.26c0.01,0,0.01,0,0.02-0.01c1.06-0.23,2.08-0.62,3.02-1.15c0,0,0,0,0,0l0.01,0v0.01l0.05-0.03
			l0.28-0.14h0.02l0.02-0.04c1.25-0.78,2.32-1.79,3.17-2.97c0,0,0,0,0,0l0.16-0.21c0,0-0.01-0.01-0.01-0.01
			c0.12-0.18,0.26-0.35,0.37-0.54c0.1-0.13,0.17-0.26,0.24-0.38v-0.01c0.27-0.46,0.49-0.94,0.68-1.44c0,0.01,0,0.02,0.01,0.03
			c1.04,2.76,3.17,4.97,5.8,6.17c0.5,0.23,1.02,0.41,1.55,0.57l0.45,0.16c0.01,0,0.02,0,0.03,0.01c0.16,0.03,0.33,0.06,0.5,0.09
			c0.02,0,0.04,0,0.07,0.01c0.45,0.08,0.9,0.14,1.35,0.17c0.02,0,0.04,0,0.06,0.01h0.28c0.1,0,0.19,0.01,0.29,0.01
			c0.08,0,0.15,0,0.23,0c0.14,0.01,0.3,0.01,0.44,0.01c0.17,0,0.34,0,0.5-0.01c0.64-0.01,1.26-0.06,1.88-0.14
			c0.29-0.03,0.57-0.07,0.85-0.13c0.17-0.02,0.34-0.05,0.5-0.09c0.05-0.01,0.1-0.02,0.15-0.03h0h0.01c0.05-0.01,0.1-0.02,0.15-0.03
			c3.36-0.71,6.39-2.31,8.87-4.52c-0.01,0.05-0.01,0.11-0.02,0.17c-0.01,0.14-0.02,0.28-0.02,0.41c0,0.22,0.02,0.46,0.05,0.67
			c0.02,0.12,0.04,0.22,0.06,0.33c0.02,0.07,0.03,0.14,0.05,0.21c0.04,0.14,0.1,0.28,0.15,0.41c0.04,0.11,0.09,0.2,0.14,0.31
			c0.15,0.29,0.33,0.56,0.54,0.82c0.06,0.09,0.14,0.17,0.21,0.24c0.07,0.09,0.16,0.17,0.24,0.23c0.09,0.08,0.18,0.16,0.28,0.23
			c0.29,0.22,0.61,0.4,0.95,0.54c0.05,0.03,0.12,0.05,0.17,0.07l0.38,0.13l0.14,0.02c0,0,0,0,0,0h0l0.12,0.03h0l0.79,0.08
			c0.02,0,0.03,0.01,0.04,0.01h12.02h0h0.28h0.01h9.41h0.29h1.65h0.01h0.28c0.1,0,0.2,0.01,0.3,0.01c0.1,0,0.2,0,0.3-0.01h0.29
			c0.02,0,0.04,0,0.05-0.01c0.62-0.03,1.24-0.12,1.83-0.26c0.01,0,0.01,0,0.02-0.01c2.81-0.63,5.27-2.32,6.88-4.74
			c0.07-0.12,0.15-0.23,0.21-0.35c-0.02,0.09-0.04,0.19-0.05,0.28c0,0,0,0.01,0,0.01c0,0.01,0,0.02,0,0.02l-0.06,0.54v0.16
			c0,0.14,0.01,0.29,0.02,0.43c0.02,0.23,0.06,0.47,0.13,0.7c0.02,0.07,0.04,0.14,0.06,0.21c0.04,0.15,0.11,0.31,0.18,0.46
			c0.04,0.1,0.09,0.18,0.14,0.28c0.05,0.1,0.11,0.2,0.17,0.3c0.17,0.24,0.36,0.49,0.57,0.7c0.1,0.1,0.2,0.19,0.31,0.28
			c0.11,0.1,0.22,0.18,0.33,0.26c0.12,0.07,0.23,0.15,0.36,0.21c0.13,0.07,0.26,0.14,0.38,0.19c0.05,0.02,0.12,0.04,0.18,0.07
			c0.14,0.04,0.28,0.1,0.43,0.13c0.34,0.1,0.7,0.14,1.07,0.14h10.99h0h0.28h0.01h11.35h0.01h0.28c0.1,0,0.2,0.01,0.3,0.01
			s0.2,0,0.3-0.01h0.29c0.02,0,0.03,0,0.05-0.01c0.62-0.03,1.24-0.13,1.83-0.26c0.01,0,0.01,0,0.02-0.01
			c2.95-0.67,5.51-2.54,7.09-5.09c0.01-0.02,0.03-0.05,0.04-0.07c-0.04,0.15-0.09,0.29-0.11,0.44c0,0,0,0,0,0.01l0,0.01l-0.01,0.01
			c-0.01,0.04-0.01,0.1-0.01,0.14c-0.01,0.09-0.03,0.18-0.03,0.28c-0.01,0.05-0.01,0.13-0.01,0.19c0,0.08,0,0.17,0.01,0.25
			c0,0,0,0,0,0c0,0,0,0,0,0c0.1,1.75,1.25,3.23,2.84,3.82c0,0,0.01,0,0.01,0.01c0.45,0.16,0.93,0.25,1.43,0.26
			c0.02,0,0.04,0.01,0.06,0.01h11.15h0h0.28h0.01h11.98h0.01h0.28c0.1,0,0.2,0.01,0.3,0.01s0.2,0,0.3-0.01h0.29
			c0.02,0,0.04,0,0.05-0.01c0.63-0.03,1.25-0.12,1.85-0.26c0.01,0,0.01,0,0.02-0.01c3-0.67,5.55-2.53,7.11-5.12
			c0,0,0-0.01,0.01-0.01c0.55-0.91,0.99-1.92,1.26-3.01C459.06,82.64,459.09,82.45,459.09,82.45z M346.47,62.17h1.89h0.31h9.94
			l-4.92,13.37l0,0.01l-0.09,0.26l0,0.01l-2.44,6.64h-2.04h-1.06h-0.32h-1.33h-1.49c-0.23,0-0.48-0.02-0.7-0.05
			c-0.72-0.13-1.39-0.45-1.95-0.92l-0.05-0.04l-0.19-0.17c-1.35-1.36-1.21-3.32-0.83-4.77l0.08-0.21l0.02-0.05l0.01-0.02l0.13-0.33
			l0,0l0.02-0.06l0-0.01h-0.04l0.02-0.03c0.01-0.02,0.03-0.04,0.04-0.05h0.01l-0.03,0.08l0.05-0.12h-0.01v-0.01l0.05-0.13l0-0.01
			L346.47,62.17z M263.77,61.84l-0.03,0.06h-0.05L263.77,61.84z M260.7,90.86c0.05-0.01,0.09-0.03,0.13-0.05h0.01
			c0.07,0.02,0.14,0.04,0.21,0.05H260.7z"/>
	</g>
	<g>
		<path class="st0" d="M477.34,84.3h1.73c0.49,0,0.83,0.09,1.01,0.27c0.18,0.18,0.27,0.54,0.28,1.08l0.01,0.79
			c0,0.25,0.03,0.49,0.07,0.73c0.02,0.11,0.06,0.27,0.11,0.45h1.96v-0.21c-0.17-0.1-0.28-0.26-0.33-0.48
			c-0.03-0.14-0.05-0.4-0.05-0.79v-0.57c0-0.59-0.08-1.04-0.24-1.33c-0.16-0.29-0.44-0.51-0.83-0.67c0.47-0.16,0.8-0.44,1.01-0.83
			c0.2-0.39,0.3-0.79,0.3-1.19c0-0.33-0.05-0.63-0.16-0.89c-0.1-0.26-0.25-0.5-0.43-0.71c-0.22-0.26-0.48-0.46-0.79-0.59
			c-0.31-0.13-0.76-0.21-1.34-0.22h-4.05v8.48h1.73V84.3z M477.34,80.62h1.96c0.36,0,0.64,0.05,0.82,0.15
			c0.32,0.18,0.49,0.52,0.49,1.04c0,0.48-0.17,0.79-0.5,0.95c-0.19,0.09-0.47,0.14-0.85,0.14h-1.91V80.62z"/>
		<path class="st0" d="M479.06,91.07c4.23,0,7.67-3.44,7.67-7.67c0-4.23-3.44-7.67-7.67-7.67c-4.23,0-7.67,3.44-7.67,7.67
			C471.39,87.63,474.83,91.07,479.06,91.07z M479.06,76.83c3.62,0,6.57,2.95,6.57,6.57c0,3.62-2.95,6.57-6.57,6.57
			c-3.62,0-6.57-2.95-6.57-6.57C472.49,79.78,475.44,76.83,479.06,76.83z"/>
	</g>
	<g>
		<g>
			<path class="st0" d="M165.56,111.75v-1.72h-6.95v-8.71h0.82v7.96h4.97v-7.96h0.83v7.96h1.1v2.47H165.56z"/>
			<path class="st0" d="M172.3,107.37h-3.66l-0.97,2.67h-0.87l3.26-8.71h0.82l3.25,8.71h-0.87L172.3,107.37z M168.89,106.65h3.16
				l-1.56-4.31h-0.04L168.89,106.65z"/>
			<path class="st0" d="M177.57,105.68v-0.03l-3-4.32h1l2.54,3.7h0.03l2.56-3.7h0.95l-3.06,4.36v0.02l3.01,4.33h-0.99l-2.53-3.68
				h-0.03l-2.56,3.68h-0.94L177.57,105.68z"/>
			<path class="st0" d="M188.79,102.68h-0.07l-5.07,7.35h-0.81v-8.71h0.81v7.37h0.07l5.07-7.37h0.81v8.71h-0.81V102.68z"/>
			<path class="st0" d="M198.96,110.03v-7.14h-0.04l-3.03,7.1h-0.72l-3.02-7.1h-0.04v7.14h-0.77v-8.71h0.95l3.23,7.62h0.04
				l3.22-7.62h0.95v8.71H198.96z"/>
			<path class="st0" d="M206.3,110.03v-7.96h-2.87v-0.75h6.58v0.75h-2.88v7.96H206.3z"/>
			<path class="st0" d="M216.42,110.03h-5.25v-8.71h5.25v0.75h-4.43v3.13h4.21v0.74h-4.21v3.34h4.43V110.03z"/>
			<path class="st0" d="M220.37,105.68v-0.03l-3-4.32h1l2.54,3.7h0.03l2.56-3.7h0.95l-3.06,4.36v0.02l3.01,4.33h-0.99l-2.53-3.68
				h-0.03l-2.56,3.68h-0.94L220.37,105.68z"/>
			<path class="st0" d="M231.54,110.03v-4.08h-5.09v4.08h-0.82v-8.71h0.82v3.87h5.09v-3.87h0.83v8.71H231.54z"/>
			<path class="st0" d="M241.68,105.68c0,2.76-1.53,4.49-3.96,4.49c-2.43,0-3.95-1.73-3.95-4.49c0-2.76,1.53-4.49,3.95-4.49
				C240.15,101.19,241.68,102.93,241.68,105.68z M234.61,105.68c0,2.28,1.2,3.72,3.11,3.72c1.91,0,3.11-1.44,3.11-3.72
				c0-2.29-1.21-3.73-3.11-3.73C235.81,101.95,234.61,103.4,234.61,105.68z"/>
			<path class="st0" d="M248.07,110.03v-7.96h-3.48l-0.3,4.88c-0.13,2.05-0.69,3.13-2.01,3.13c-0.17,0-0.31-0.04-0.39-0.06v-0.74
				c0.05,0.02,0.2,0.04,0.33,0.04c0.85,0,1.2-0.81,1.3-2.41l0.33-5.59h5.07v8.71H248.07z"/>
			<path class="st0" d="M258.21,105.68c0,2.76-1.53,4.49-3.96,4.49c-2.43,0-3.95-1.73-3.95-4.49c0-2.76,1.53-4.49,3.95-4.49
				S258.21,102.93,258.21,105.68z M251.14,105.68c0,2.28,1.2,3.72,3.11,3.72s3.11-1.44,3.11-3.72c0-2.29-1.21-3.73-3.11-3.73
				S251.14,103.4,251.14,105.68z"/>
			<path class="st0" d="M259.61,110.03v-8.71h5.08v0.75h-4.25v7.95H259.61z"/>
			<path class="st0" d="M271.91,102.68h-0.07l-5.07,7.35h-0.81v-8.71h0.81v7.37h0.07l5.07-7.37h0.81v8.71h-0.81V102.68z"/>
			<path class="st0" d="M274.21,111.7l0.58-2.91h0.85l-0.76,2.91H274.21z"/>
			<path class="st0" d="M286.23,111.75v-1.72h-6.95v-8.71h0.82v7.96h4.97v-7.96h0.83v7.96h1.1v2.47H286.23z"/>
			<path class="st0" d="M292.97,107.37h-3.66l-0.97,2.67h-0.87l3.26-8.71h0.82l3.25,8.71h-0.87L292.97,107.37z M289.56,106.65h3.16
				l-1.56-4.31h-0.04L289.56,106.65z"/>
			<path class="st0" d="M298.24,105.68v-0.03l-3-4.32h1l2.54,3.7h0.03l2.56-3.7h0.95l-3.06,4.36v0.02l3.01,4.33h-0.99l-2.53-3.68
				h-0.03l-2.56,3.68h-0.94L298.24,105.68z"/>
			<path class="st0" d="M309.46,102.68h-0.07l-5.07,7.35h-0.81v-8.71h0.81v7.37h0.07l5.07-7.37h0.81v8.71h-0.81V102.68z"/>
			<path class="st0" d="M317.57,110.03v-7.96h-3.48l-0.3,4.88c-0.13,2.05-0.69,3.13-2.01,3.13c-0.17,0-0.31-0.04-0.39-0.06v-0.74
				c0.05,0.02,0.2,0.04,0.33,0.04c0.85,0,1.2-0.81,1.3-2.41l0.33-5.59h5.07v8.71H317.57z"/>
			<path class="st0" d="M320.15,110.03v-8.71h5.08v0.75h-4.25v7.95H320.15z"/>
			<path class="st0" d="M330.15,107.37h-3.66l-0.97,2.67h-0.87l3.26-8.71h0.82l3.25,8.71h-0.87L330.15,107.37z M326.74,106.65h3.16
				l-1.56-4.31h-0.04L326.74,106.65z"/>
			<path class="st0" d="M337.88,107.37h-3.66l-0.97,2.67h-0.87l3.26-8.71h0.82l3.25,8.71h-0.87L337.88,107.37z M334.48,106.65h3.16
				l-1.56-4.31h-0.04L334.48,106.65z"/>
			<path class="st0" d="M346.71,110.03v-4.08h-5.09v4.08h-0.82v-8.71h0.82v3.87h5.09v-3.87h0.83v8.71H346.71z"/>
			<path class="st0" d="M354.84,110.03h-3.02v-8.71h5v0.75h-4.18v2.82h2.2c1.66,0,2.8,1.04,2.8,2.58
				C357.63,108.99,356.5,110.03,354.84,110.03z M354.64,109.28c1.35,0,2.14-0.67,2.14-1.82s-0.8-1.83-2.14-1.83h-2.01v3.64H354.64z"
				/>
			<path class="st0" d="M363.77,107.37h-3.66l-0.97,2.67h-0.87l3.26-8.71h0.82l3.25,8.71h-0.87L363.77,107.37z M360.36,106.65h3.16
				l-1.56-4.31h-0.04L360.36,106.65z"/>
			<path class="st0" d="M369.65,101.33c1.67,0,2.79,1.09,2.79,2.71c0,1.62-1.14,2.71-2.8,2.71h-2.14v3.28h-0.82v-8.71H369.65z
				 M367.51,106.01h1.95c1.34,0,2.14-0.74,2.14-1.98c0-1.24-0.8-1.97-2.14-1.97h-1.95V106.01z"/>
			<path class="st0" d="M377.85,107.37h-3.66l-0.97,2.67h-0.87l3.26-8.71h0.82l3.25,8.71h-0.87L377.85,107.37z M374.44,106.65h3.16
				l-1.56-4.31H376L374.44,106.65z"/>
			<path class="st0" d="M385.58,107.37h-3.66l-0.97,2.67h-0.87l3.26-8.71h0.82l3.25,8.71h-0.87L385.58,107.37z M382.17,106.65h3.16
				l-1.56-4.31h-0.04L382.17,106.65z"/>
			<path class="st0" d="M394.41,110.03v-4.08h-5.09v4.08h-0.82v-8.71h0.82v3.87h5.09v-3.87h0.83v8.71H394.41z"/>
			<path class="st0" d="M396.98,101.33h0.82v3.37h2.22c1.67,0,2.8,1.08,2.8,2.67c0,1.59-1.13,2.67-2.79,2.67h-3.05V101.33z
				 M399.84,109.28c1.35,0,2.14-0.71,2.14-1.92c0-1.21-0.8-1.93-2.14-1.93h-2.03v3.85H399.84z M404.07,110.03v-8.71h0.82v8.71
				H404.07z"/>
			<path class="st0" d="M409.21,111.75h-0.77v-2.47h0.62c0.63-0.33,0.87-1.15,0.94-2.32l0.34-5.64h5.23v7.96h1.1v2.47h-0.77v-1.72
				h-6.7V111.75z M410.12,109.24v0.04h4.62v-7.21h-3.66l-0.3,4.92C410.71,108.01,410.58,108.75,410.12,109.24z"/>
			<path class="st0" d="M417.4,107.55h0.84c0.28,1.13,1.35,1.85,2.73,1.85c1.78,0,2.94-1.35,3-3.46h-4.12v-0.75h4.1
				c-0.11-1.98-1.27-3.25-2.97-3.25c-1.32,0-2.46,0.84-2.73,2.03h-0.84c0.28-1.65,1.76-2.8,3.58-2.8c2.36,0,3.84,1.75,3.84,4.49
				c0,2.76-1.47,4.49-3.84,4.49C419.09,110.17,417.74,109.19,417.4,107.55z"/>
			<path class="st0" d="M431.21,110.03v-7.96h-3.48l-0.3,4.88c-0.13,2.05-0.69,3.13-2.01,3.13c-0.17,0-0.31-0.04-0.39-0.06v-0.74
				c0.05,0.02,0.2,0.04,0.33,0.04c0.85,0,1.2-0.81,1.3-2.41l0.33-5.59h5.07v8.71H431.21z"/>
			<path class="st0" d="M433.79,110.03v-8.71h5.08v0.75h-4.25v7.95H433.79z"/>
			<path class="st0" d="M442.52,110.03v-3.76l-3.12-4.94h0.94l2.58,4.13h0.03l2.58-4.13h0.94l-3.12,4.94v3.76H442.52z"/>
			<path class="st0" d="M449.87,110.03v-3.76l-3.12-4.94h0.94l2.58,4.13h0.03l2.58-4.13h0.94l-3.12,4.94v3.76H449.87z"/>
			<path class="st0" d="M457.8,101.33c1.67,0,2.79,1.09,2.79,2.71c0,1.62-1.14,2.71-2.8,2.71h-2.14v3.28h-0.82v-8.71H457.8z
				 M455.66,106.01h1.95c1.34,0,2.14-0.74,2.14-1.98c0-1.24-0.8-1.97-2.14-1.97h-1.95V106.01z"/>
		</g>
	</g>
</g>
</svg>
