<svg clip-rule="evenodd" fill-rule="evenodd" height="3.83973in" image-rendering="optimizeQuality" shape-rendering="geometricPrecision" text-rendering="geometricPrecision" viewBox="0 0 8806 3381" width="10in" xmlns="http://www.w3.org/2000/svg"><g fill="#fdbb45"><path d="m951 714s55-85 165-89c111-4 2458-577 2458-577s432-149 475 276l-49 778h-342l47-736c-10 2-18 4-24 6-9 3-17 5-27 7-410 100-820 199-1230 297-272 65-544 130-817 193-95 22-191 44-287 65-38 8-81 18-123 24 26 48 53 96 79 144h-389c-86-157-142-261-142-261l-234-397-473-210s-59-75-30-157c30-83 96-87 159-66 64 21 514 214 514 214zm2959 1585c-33 211-298 255-298 255l-153 34h-1c127 18 224 127 224 259 0 144-117 261-261 261s-261-117-261-261c0-90 44-168 112-215l-891 209s-79 6-76 31c0 1-1 1-1 2 102 36 175 133 175 246 0 144-117 261-261 261-145 0-262-117-262-261 0-30 6-60 16-87-20-201 143-378 326-430 184-52 1143-267 1306-304zm-876 0c-401 96-857 218-857 218s-257 98-443-42c-32-24-82-87-142-176z"/><path d="m4111 2955c114-239 214-358 301-358 38 0 58 27 58 82 0 24-9 77-26 159l-29 143c55-116 113-209 172-279 60-70 111-105 155-105 48 0 71 28 71 84 0 20-7 66-21 138l-15 73c-9 45-13 77-13 99 0 38 13 57 40 57 61 0 154-113 279-337l39 22c-136 266-256 400-358 400-65 0-97-43-97-128 0-28 6-74 19-136l13-66c9-44 14-71 14-82 0-13-7-20-21-20-34 0-95 68-183 203-80 122-120 193-120 210 0 2 1 6 2 10-4 1-12 3-23 6-4 2-11 3-21 3-29 0-43-14-43-42 0-9 4-35 14-77 3-16 7-32 10-50l20-100c15-72 22-115 22-130 0-21-8-31-23-31-34 0-84 61-150 182s-99 193-99 217c0 6 2 13 7 19-17 8-33 12-47 12-33 0-49-18-49-53 0-5 5-51 14-138l11-100c4-36 6-68 6-98 0-38-8-65-23-83 36-13 62-20 77-20 28 0 42 16 42 49 0 12-4 55-12 130zm1285-123c-40 83-90 154-149 212s-110 88-154 88c-33 0-60-15-80-45s-30-69-30-118c0-99 30-185 89-260 60-75 129-112 208-112 47 0 99 14 154 44 8-29 42-44 100-44 4 0 10 0 19 1-18 27-32 64-41 112l-8 40c-10 45-14 97-14 157 0 68 16 103 48 103 34 0 80-28 139-85s117-129 174-217l37 25c-58 104-125 191-200 260s-139 104-193 104c-68 0-102-57-102-170 0-23 1-55 3-95zm22-113c-66-43-121-64-164-64-48 0-89 28-123 86-35 58-52 126-52 205 0 64 20 96 62 96 45 0 131-99 258-296 2-3 8-12 19-27zm860 18c-65 123-130 220-196 290-65 70-123 105-174 105-37 0-67-15-89-43-23-28-34-65-34-111 0-26 5-62 14-109l93-471c-12 2-23 3-32 3-72 0-108-31-108-93v-11c38 22 80 33 128 33 47 0 89-12 124-36l-109 568c-10 51-15 86-15 105 0 53 20 80 59 80 38 0 76-22 114-64 38-43 101-133 188-272zm393 0c-65 123-131 220-196 290-66 70-124 105-175 105-37 0-66-15-89-43s-34-65-34-111c0-26 5-62 14-109l93-471c-12 2-22 3-32 3-72 0-108-31-108-93v-11c38 22 81 33 128 33s89-12 124-36l-109 568c-9 51-14 86-14 105 0 53 19 80 58 80 38 0 76-22 114-64 38-43 101-133 188-272zm-105 270 34-7c22-4 39-7 49-7 28 0 41 15 41 43 0 12-1 25-4 41l-7 33-21 3c-31 6-49 9-55 9-22 0-33-12-33-35 0-6 0-12 1-19l3-12c1-5 2-11 2-17 0-13-4-23-10-32zm449-52c113-239 214-358 301-358 38 0 58 27 58 82 0 24-9 77-26 159l-29 143c55-116 113-209 172-279 60-70 111-105 155-105 47 0 71 28 71 84 0 20-7 66-21 138l-15 73c-9 45-13 77-13 99 0 38 13 57 40 57 61 0 153-113 279-337l39 22c-136 266-256 400-358 400-65 0-97-43-97-128 0-28 6-74 19-136l13-66c9-44 14-71 14-82 0-13-7-20-21-20-34 0-95 68-183 203-80 122-120 193-120 210 0 2 1 6 2 10-4 1-12 3-23 6-4 2-11 3-21 3-29 0-44-14-44-42 0-9 5-35 15-77 3-16 7-32 10-50l20-100c15-72 22-115 22-130 0-21-8-31-23-31-34 0-84 61-150 182s-99 193-99 217c0 6 2 13 7 19-17 8-33 12-47 12-33 0-49-18-49-53 0-5 5-51 14-138l11-100c4-36 6-68 6-98 0-38-8-65-23-83 36-13 62-20 77-20 28 0 41 16 41 49 0 12-3 55-11 130zm1037-5c112-236 212-353 301-353 70 0 105 69 105 207l1 57c0 65 3 111 10 136 6 25 19 38 37 38 27 0 58-21 92-64s91-129 168-259l40 24c-69 130-131 226-186 289s-104 95-147 95c-40 0-69-19-85-58-16-38-24-105-24-200v-41c0-51-3-87-10-108s-18-31-35-31c-41 0-108 82-200 247-23 41-38 67-44 78-24 43-36 73-36 92 0 7 2 15 6 21-19 8-34 12-47 12-31 0-47-18-47-53 0-10 4-55 12-136l11-102c4-43 7-77 7-101 0-33-8-59-23-78 6-3 17-7 33-12 19-7 35-11 46-11 25 0 37 18 37 54 0 19-2 51-7 97-1 10-2 20-3 29z" fill-rule="nonzero"/><path d="m952 1471-25 154h433l-27 176h-434l-30 191h481l-27 176h-690l138-873h657l-28 176zm4828 0h-245l28-176h695l-27 176h-243l-110 697h-209zm-756 0-25 154h433l-27 176h-434l-30 191h481l-28 176h-690l139-873h657l-28 176zm-875 178 235 519h187l139-873h-197l-81 517-235-517h-188l-138 873h196zm-741-178-25 154h433l-27 176h-434l-30 191h481l-27 176h-690l138-873h657l-28 176zm-344 189c-3-60-15-122-41-177-22-47-53-89-95-120-36-28-77-49-122-57-24-5-49-7-74-8-33-2-66-3-99-3h-241l-139 873h316c65 0 135-4 197-21 57-15 106-44 149-83 51-45 87-104 112-167 31-75 41-156 37-237zm-232 164c-15 41-36 82-67 114-22 21-48 42-79 49-17 4-35 7-52 8-27 2-53 3-79 3h-67l84-529h85c33 0 80 2 111 14 26 10 44 31 58 54 20 35 27 82 29 121 2 56-3 113-23 166zm-696 185c-18-36-36-71-56-105-18-30-41-68-68-98 64-12 126-38 167-88 44-53 61-115 58-183-3-50-15-99-44-141-25-36-58-64-99-79-48-16-105-20-155-20h-387l-139 873h209l55-346h55c20 0 50 1 68 9 17 7 32 24 43 38 11 15 22 34 31 51 15 30 30 61 44 92 15 31 29 61 42 92 7 17 15 35 21 52l4 12h225l-11-25c-20-45-41-90-63-134zm-205-359c-21 4-43 6-64 7-31 2-63 3-94 3h-70l29-189h175c26 0 75 1 98 16 17 11 23 29 24 49 1 27-8 51-25 72-19 23-44 36-73 42z"/></g></svg>