<svg viewBox="0 0 1032.9 167.05" xmlns="http://www.w3.org/2000/svg"><g fill="#fff"><path d="m580.19 156-9.29-2.78a2.66 2.66 0 0 1 -2.12-2.35v-138.25c0-3-3.24-5.42-7.25-5.42h-17.53c-3.29 0-6.17 1.66-7 4l-37 104.8a5.85 5.85 0 0 1 -5.09 3c-3.66 0-4.87-.53-6.37-4.28l-43.07-103.66c-1-2.31-3.78-3.86-7-3.86h-15.47c-3.23 0-5.84 2-5.84 4.37v150.48c0 2.42 2.61 4.38 5.84 4.38h12.52c3.22 0 5.85-2 5.85-4.38l-2.73-100.15c0-1.55 2.93-1.84 3.41-.33 6.77 21.57 38.69 104.64 41.51 104.85 5.47.41 17.86.6 23.1 0 2.09-.23 3.53-2.81 19.81-55.13 5.29-17 10.76-34.62 11.82-36.1.8-1 2.93-1.48 5.14-1.11 2.46.41 5.22 1.93 5.58 4.93.72 5.9.09 76.5 0 84.53a3.1 3.1 0 0 0 1.35 2.48 5.55 5.55 0 0 0 3.34 1h24.73c2.59 0 4.69-1.57 4.69-3.51v-4.28a3.68 3.68 0 0 0 -2.93-3.23z"/><path d="m916.14 156-9.29-2.78a2.66 2.66 0 0 1 -2.12-2.35v-138.25c0-3-3.24-5.42-7.25-5.42h-17.55c-3.29 0-6.17 1.66-7 4l-36.93 104.8a5.85 5.85 0 0 1 -5.09 3c-3.66 0-4.87-.53-6.37-4.28l-43.12-103.66c-1-2.31-3.78-3.86-7-3.86h-15.42c-3.22 0-5.84 2-5.84 4.37v150.48c0 2.42 2.62 4.38 5.84 4.38h12.5c3.22 0 5.84-2 5.84-4.38l-2.76-100.15c0-1.55 2.94-1.84 3.42-.33 6.77 21.57 38.69 104.64 41.51 104.85 5.47.41 17.85.6 23.09 0 2.1-.23 3.54-2.81 19.81-55.13 5.3-17 10.77-34.62 11.83-36.1.8-1 2.93-1.48 5.14-1.11 2.46.41 5.22 1.93 5.58 4.93.72 5.9.09 76.5 0 84.53a3.1 3.1 0 0 0 1.35 2.48 5.55 5.55 0 0 0 3.34 1h24.75c2.59 0 4.69-1.57 4.69-3.51v-4.28a3.68 3.68 0 0 0 -2.95-3.23z"/><path d="m398.07 7.2h-26.55a5.62 5.62 0 0 0 -3.34 1 3.1 3.1 0 0 0 -1.35 2.49v106.1a14.11 14.11 0 0 1 -.94-2l-43.11-103.59c-1-2.31-3.78-3.87-7-3.87h-15.44c-3.23 0-5.84 2-5.84 4.38v150.48c0 2.41 2.61 4.37 5.84 4.37h12.53c3.22 0 5.84-2 5.84-4.37l-3.19-103.07c0-1.73 3.25-2.11 3.89-.44 7.75 20.2 23.86 62.2 28.86 75.28 10.5 27.51 12.85 32.39 15.67 32.6 2.32.17 5.89.3 9.61.35a13.6 13.6 0 0 1 -1.78.14h9.78c2.78 0 5-1.69 5-3.77v-140.83a1.23 1.23 0 0 1 1-1.08l11.58-3.47a2.25 2.25 0 0 0 1.8-2v-6.56c.01-1.18-1.28-2.14-2.86-2.14z"/><path d="m1030 7.2h-26.55a5.62 5.62 0 0 0 -3.34 1 3.1 3.1 0 0 0 -1.35 2.49v106.1a14.11 14.11 0 0 1 -.94-2l-43.08-103.59c-1-2.31-3.78-3.87-7-3.87h-15.44c-3.23 0-5.84 2-5.84 4.38v150.48c0 2.41 2.61 4.37 5.84 4.37h12.53c3.22 0 5.84-2 5.84-4.37l-3.19-103.07c-.05-1.73 3.25-2.11 3.89-.44 7.75 20.2 23.86 62.2 28.86 75.28 10.5 27.51 12.85 32.39 15.67 32.6 2.32.17 5.89.3 9.61.35a13.74 13.74 0 0 1 -1.78.14h9.78c2.78 0 5-1.69 5-3.77v-140.83a1.23 1.23 0 0 1 1-1.08l11.57-3.47a2.25 2.25 0 0 0 1.81-2v-6.56c.01-1.18-1.28-2.14-2.89-2.14z"/><path d="m623.21 71.68h40c11.64 0 21.11-7.09 21.11-15.81v-19c0-14.48-15.73-26.26-35.07-26.26h-18.67c-22 0-39.9 13.4-39.9 29.87v52.42c0 17.18 18.66 31.15 41.6 31.15h20c17.69 0 32.07-10.77 32.07-24v-3.38c0-3.94-4-7.16-9.21-7.34-8.4-.34-14.46 2.67-17 8.39-1.66 3.75-4.84 6.49-9.45 8.15a35.8 35.8 0 0 1 -19.63.71c-5.36-1.47-15.35-4.21-18.58-24.18a8.07 8.07 0 0 1 3.13-7.47 15.05 15.05 0 0 1 9.6-3.25zm39.54-20c-1.86 1.64-4.52 2.47-7.89 2.47h-36.86c-1.53-.28-13.15-2.73-10.67-13.51 2.4-10.48 11.09-15.86 28.17-17.43 14.74-1.35 28.54 6.71 30.15 14.28 1.29 6.25.25 11.42-2.9 14.18z"/></g><path d="m665.17 149.31h-59.78c-4.22 0-7.66 2.58-7.66 5.74v6.26c0 3.16 3.44 5.74 7.66 5.74h59.78c4.23 0 7.67-2.58 7.67-5.74v-6.26c0-3.16-3.44-5.74-7.67-5.74z" fill="#ffcc6b"/><path d="m254.38 52.78a22.82 22.82 0 0 0 -13.71 2.78c-4 2.44-5.49 6.67-3.41 10a7 7 0 0 0 1.06 1.44c3 3 4.58 6.18 4.58 9.27v83.22c0 4.19 4.55 7.6 10.15 7.6h8a10.85 10.85 0 0 0 6.5-2 6.1 6.1 0 0 0 2.65-4.87c-.16-17.22-.6-74.19.05-84.2.75-12.02.11-21.96-15.87-23.24z" fill="#fff"/><ellipse cx="254.05" cy="24.05" fill="#ee2b58" rx="17.76" ry="15.23"/><ellipse cx="712.36" cy="151.82" fill="#53c3c0" rx="17.76" ry="15.22"/><path d="m186.56 0h-22.71c-21.14 0-38.34 12.88-38.34 28.7v114c0 13.4 14.57 24.31 32.47 24.31h30.93c16 0 28.94-9.72 28.94-21.67v-121.91c0-12.92-14.03-23.43-31.29-23.43zm8.58 137.17c0 7.42-8.06 13.46-18 13.46h-12.14c-10.56 0-19.16-6.43-19.16-14.34v-100c0-10.33 11.23-18.74 25-18.74h6.27c9.91 0 18 6 18 13.46z" fill="#fff"/><path d="m93.24 2h-2.09c-5.81 0-10.54 3.51-10.54 7.86v130.84a11.12 11.12 0 0 1 -6.8 8.09c-5.9 2.58-14.84 1.87-26.54-2.1-22.72-7.71-22.86-25.5-22.94-36.14 0-5.35-.07-8.3-2.87-8.87-3.14-.64-11-1.73-16.41 2-5.05 3.56-6.33 10.32-3.76 20.04 5.71 21.59 18.84 43.33 72.09 43.33q4.22 0 8.76-.19c11.5 0 20.85-7 20.85-15.61v-141.98c.01-4.03-4.37-7.27-9.75-7.27z" fill="#fff"/></svg>