<svg width="18" height="18" viewBox="0 0 18 18" fill="none" xmlns="http://www.w3.org/2000/svg">
<path d="M9.0001 6.13619C7.42315 6.13619 6.13624 7.4231 6.13624 9.00005C6.13624 10.577 7.42315 11.8639 9.0001 11.8639C10.5771 11.8639 11.864 10.577 11.864 9.00005C11.864 7.4231 10.5771 6.13619 9.0001 6.13619ZM17.5896 9.00005C17.5896 7.81411 17.6003 6.63892 17.5337 5.45513C17.4671 4.08013 17.1534 2.85982 16.148 1.85435C15.1403 0.846733 13.9222 0.535209 12.5472 0.468608C11.3612 0.402006 10.186 0.412748 9.00225 0.412748C7.81631 0.412748 6.64112 0.402006 5.45733 0.468608C4.08233 0.535209 2.86202 0.848881 1.85655 1.85435C0.84893 2.86197 0.537407 4.08013 0.470805 5.45513C0.404203 6.64107 0.414946 7.81626 0.414946 9.00005C0.414946 10.1838 0.404203 11.3612 0.470805 12.545C0.537407 13.92 0.851079 15.1403 1.85655 16.1458C2.86416 17.1534 4.08233 17.4649 5.45733 17.5315C6.64327 17.5981 7.81846 17.5874 9.00225 17.5874C10.1882 17.5874 11.3634 17.5981 12.5472 17.5315C13.9222 17.4649 15.1425 17.1512 16.148 16.1458C17.1556 15.1381 17.4671 13.92 17.5337 12.545C17.6024 11.3612 17.5896 10.186 17.5896 9.00005ZM9.0001 13.4065C6.56163 13.4065 4.59366 11.4385 4.59366 9.00005C4.59366 6.56158 6.56163 4.59361 9.0001 4.59361C11.4386 4.59361 13.4065 6.56158 13.4065 9.00005C13.4065 11.4385 11.4386 13.4065 9.0001 13.4065ZM13.587 5.44224C13.0177 5.44224 12.5579 4.98247 12.5579 4.41314C12.5579 3.8438 13.0177 3.38404 13.587 3.38404C14.1564 3.38404 14.6161 3.8438 14.6161 4.41314C14.6163 4.54833 14.5898 4.68223 14.5381 4.80716C14.4865 4.93209 14.4107 5.04561 14.3151 5.1412C14.2195 5.2368 14.106 5.31259 13.981 5.36425C13.8561 5.41591 13.7222 5.44241 13.587 5.44224Z" fill="white"/>
</svg>
