<svg width="20" height="24" viewBox="0 0 20 24" fill="none" xmlns="http://www.w3.org/2000/svg">
<path d="M17.0003 1.24238C16.941 0.979201 16.7924 0.744696 16.5797 0.578779C16.367 0.412862 16.1033 0.325789 15.8336 0.33238H4.16698C3.89729 0.325789 3.63365 0.412862 3.42094 0.578779C3.20822 0.744696 3.05958 0.979201 3.00031 1.24238L0.666978 11.7424C0.628343 11.9146 0.629269 12.0933 0.669685 12.265C0.710102 12.4368 0.788955 12.5972 0.900311 12.734C1.01257 12.8725 1.15506 12.9834 1.31685 13.0583C1.47865 13.1331 1.65543 13.1698 1.83364 13.1657H6.43031C6.47723 13.5528 6.5006 13.9424 6.50031 14.3324C6.51123 17.0823 5.43328 19.7248 3.50198 21.6824C3.34144 21.8462 3.23273 22.0536 3.18944 22.2788C3.14615 22.5041 3.1702 22.737 3.25859 22.9487C3.34697 23.1603 3.49577 23.3412 3.68638 23.4687C3.877 23.5962 4.10097 23.6648 4.33031 23.6657H15.6703C15.8997 23.6648 16.1236 23.5962 16.3142 23.4687C16.5049 23.3412 16.6537 23.1603 16.742 22.9487C16.8304 22.737 16.8545 22.5041 16.8112 22.2788C16.7679 22.0536 16.6592 21.8462 16.4986 21.6824C14.5673 19.7248 13.4894 17.0823 13.5003 14.3324C13.5 13.9424 13.5234 13.5528 13.5703 13.1657H14.667V15.499C14.667 15.8085 14.7899 16.1052 15.0087 16.324C15.2275 16.5428 15.5242 16.6657 15.8336 16.6657C16.1431 16.6657 16.4398 16.5428 16.6586 16.324C16.8774 16.1052 17.0003 15.8085 17.0003 15.499V13.1657H18.167C18.3413 13.1663 18.5135 13.1278 18.671 13.0531C18.8284 12.9784 18.9672 12.8694 19.077 12.734C19.1883 12.5972 19.2672 12.4368 19.3076 12.265C19.348 12.0933 19.3489 11.9146 19.3103 11.7424L17.0003 1.24238ZM6.75698 21.3324C8.11859 19.2522 8.84057 16.8185 8.83364 14.3324C8.83364 13.9474 8.83364 13.5507 8.77531 13.1657H11.2253C11.2253 13.5507 11.167 13.9474 11.167 14.3324C11.16 16.8185 11.882 19.2522 13.2436 21.3324H6.75698ZM3.25698 10.8324L5.10031 2.66571H14.9003L16.7086 10.8324H3.25698Z" fill="#8E98AE"/>
</svg>
