<svg width="30" height="30" viewBox="0 0 30 30" fill="none" xmlns="http://www.w3.org/2000/svg">
<path d="M27.75 15C27.3743 15 27.014 15.1493 26.7483 15.4149C26.4826 15.6806 26.3334 16.041 26.3334 16.4167V24.9167C26.3334 25.2924 26.1841 25.6527 25.9184 25.9184C25.6528 26.1841 25.2924 26.3333 24.9167 26.3333H5.08337C4.70765 26.3333 4.34732 26.1841 4.08164 25.9184C3.81596 25.6527 3.66671 25.2924 3.66671 24.9167V5.08335C3.66671 4.70763 3.81596 4.34729 4.08164 4.08161C4.34732 3.81594 4.70765 3.66668 5.08337 3.66668H13.5834C13.9591 3.66668 14.3194 3.51743 14.5851 3.25175C14.8508 2.98607 15 2.62574 15 2.25002C15 1.87429 14.8508 1.51396 14.5851 1.24828C14.3194 0.982604 13.9591 0.833349 13.5834 0.833349H5.08337C3.9562 0.833349 2.8752 1.28112 2.07817 2.07815C1.28114 2.87517 0.833374 3.95618 0.833374 5.08335V24.9167C0.833374 26.0439 1.28114 27.1249 2.07817 27.9219C2.8752 28.7189 3.9562 29.1667 5.08337 29.1667H24.9167C26.0439 29.1667 27.1249 28.7189 27.9219 27.9219C28.7189 27.1249 29.1667 26.0439 29.1667 24.9167V16.4167C29.1667 16.041 29.0175 15.6806 28.7518 15.4149C28.4861 15.1493 28.1258 15 27.75 15ZM6.50004 16.0767V22.0833C6.50004 22.4591 6.6493 22.8194 6.91497 23.0851C7.18065 23.3508 7.54098 23.5 7.91671 23.5H13.9234C14.1098 23.5011 14.2946 23.4654 14.4672 23.3949C14.6398 23.3244 14.7968 23.2205 14.9292 23.0892L24.7325 13.2717L28.7559 9.33335C28.8887 9.20165 28.994 9.04497 29.066 8.87233C29.1379 8.6997 29.1749 8.51453 29.1749 8.32752C29.1749 8.1405 29.1379 7.95533 29.066 7.7827C28.994 7.61006 28.8887 7.45338 28.7559 7.32168L22.7492 1.24418C22.6175 1.1114 22.4608 1.00601 22.2882 0.934086C22.1156 0.862163 21.9304 0.825134 21.7434 0.825134C21.5564 0.825134 21.3712 0.862163 21.1986 0.934086C21.0259 1.00601 20.8692 1.1114 20.7375 1.24418L16.7425 5.25335L6.91087 15.0708C6.77958 15.2032 6.6757 15.3602 6.6052 15.5328C6.5347 15.7054 6.49896 15.8902 6.50004 16.0767ZM21.7434 4.24752L25.7525 8.25668L23.7409 10.2683L19.7317 6.25918L21.7434 4.24752ZM9.33337 16.6575L17.7342 8.25668L21.7434 12.2658L13.3425 20.6667H9.33337V16.6575Z" fill="white"/>
</svg>
