<svg width="26" height="16" viewBox="0 0 26 16" fill="none" xmlns="http://www.w3.org/2000/svg">
<path d="M13 0.5C5.875 0.5 0.5 3.1875 0.5 6.75C0.5 9.8125 4.4875 12.225 10.1375 12.85L9.6125 13.3625C9.49534 13.4787 9.40235 13.617 9.33889 13.7693C9.27542 13.9216 9.24275 14.085 9.24275 14.25C9.24275 14.415 9.27542 14.5784 9.33889 14.7307C9.40235 14.883 9.49534 15.0213 9.6125 15.1375C9.7287 15.2547 9.86695 15.3477 10.0193 15.4111C10.1716 15.4746 10.335 15.5072 10.5 15.5072C10.665 15.5072 10.8284 15.4746 10.9807 15.4111C11.133 15.3477 11.2713 15.2547 11.3875 15.1375L13.8875 12.6375C14.0013 12.5186 14.0905 12.3784 14.15 12.225C14.275 11.9207 14.275 11.5793 14.15 11.275C14.0905 11.1216 14.0013 10.9814 13.8875 10.8625L11.3875 8.3625C11.1521 8.12712 10.8329 7.99489 10.5 7.99489C10.1671 7.99489 9.84788 8.12712 9.6125 8.3625C9.37712 8.59788 9.24489 8.91712 9.24489 9.25C9.24489 9.58288 9.37712 9.90212 9.6125 10.1375L9.7625 10.275C5.5 9.675 3 8 3 6.75C3 5.225 6.9 3 13 3C19.1 3 23 5.225 23 6.75C23 7.7875 21.1875 9.25 17.7375 10C17.5742 10.0313 17.4188 10.0948 17.2804 10.1869C17.1419 10.279 17.0233 10.3978 16.9313 10.5363C16.8393 10.6748 16.7759 10.8303 16.7448 10.9936C16.7137 11.157 16.7154 11.3249 16.75 11.4875C16.7841 11.6485 16.8497 11.8013 16.9431 11.9369C17.0364 12.0725 17.1556 12.1884 17.2938 12.2778C17.432 12.3672 17.5865 12.4285 17.7485 12.458C17.9104 12.4876 18.0766 12.4849 18.2375 12.45C22.8 11.45 25.5 9.325 25.5 6.75C25.5 3.1875 20.125 0.5 13 0.5Z" fill="white"/>
</svg>
