<svg width="29" height="29" viewBox="0 0 29 29" fill="none" xmlns="http://www.w3.org/2000/svg">
<path d="M9.75 18.25L18.25 9.75" stroke="white" stroke-width="2.5" stroke-linecap="round" stroke-linejoin="round"/>
<path d="M10.4583 11.1667C10.8495 11.1667 11.1667 10.8495 11.1667 10.4583C11.1667 10.0671 10.8495 9.75 10.4583 9.75C10.0671 9.75 9.75 10.0671 9.75 10.4583C9.75 10.8495 10.0671 11.1667 10.4583 11.1667Z" fill="white" stroke="white" stroke-width="2.5" stroke-linecap="round" stroke-linejoin="round"/>
<path d="M17.5418 18.2494C17.933 18.2494 18.2502 17.9322 18.2502 17.541C18.2502 17.1498 17.933 16.8327 17.5418 16.8327C17.1506 16.8327 16.8335 17.1498 16.8335 17.541C16.8335 17.9322 17.1506 18.2494 17.5418 18.2494Z" fill="white" stroke="white" stroke-width="2.5" stroke-linecap="round" stroke-linejoin="round"/>
<path d="M4.08325 7.19964C4.08325 6.37305 4.41162 5.58031 4.99611 4.99582C5.58059 4.41133 6.37333 4.08297 7.19992 4.08297H8.61659C9.43953 4.0825 10.2289 3.75657 10.8124 3.17631L11.8041 2.18464C12.0937 1.89337 12.4381 1.66223 12.8173 1.50451C13.1966 1.34678 13.6033 1.26559 14.0141 1.26559C14.4248 1.26559 14.8316 1.34678 15.2108 1.50451C15.5901 1.66223 15.9345 1.89337 16.2241 2.18464L17.2158 3.17631C17.7993 3.75657 18.5886 4.0825 19.4116 4.08297H20.8283C21.6548 4.08297 22.4476 4.41133 23.0321 4.99582C23.6166 5.58031 23.9449 6.37305 23.9449 7.19964V8.61631C23.9454 9.43925 24.2713 10.2286 24.8516 10.8121L25.8433 11.8038C26.1345 12.0934 26.3657 12.4378 26.5234 12.8171C26.6811 13.1963 26.7623 13.603 26.7623 14.0138C26.7623 14.4246 26.6811 14.8313 26.5234 15.2105C26.3657 15.5898 26.1345 15.9342 25.8433 16.2238L24.8516 17.2155C24.2713 17.799 23.9454 18.5884 23.9449 19.4113V20.828C23.9449 21.6546 23.6166 22.4473 23.0321 23.0318C22.4476 23.6163 21.6548 23.9446 20.8283 23.9446H19.4116C18.5886 23.9451 17.7993 24.271 17.2158 24.8513L16.2241 25.843C15.9345 26.1342 15.5901 26.3654 15.2108 26.5231C14.8316 26.6808 14.4248 26.762 14.0141 26.762C13.6033 26.762 13.1966 26.6808 12.8173 26.5231C12.4381 26.3654 12.0937 26.1342 11.8041 25.843L10.8124 24.8513C10.2289 24.271 9.43953 23.9451 8.61659 23.9446H7.19992C6.37333 23.9446 5.58059 23.6163 4.99611 23.0318C4.41162 22.4473 4.08325 21.6546 4.08325 20.828V19.4113C4.08278 18.5884 3.75686 17.799 3.17659 17.2155L2.18492 16.2238C1.89365 15.9342 1.66251 15.5898 1.50479 15.2105C1.34707 14.8313 1.26587 14.4246 1.26587 14.0138C1.26587 13.603 1.34707 13.1963 1.50479 12.8171C1.66251 12.4378 1.89365 12.0934 2.18492 11.8038L3.17659 10.8121C3.75686 10.2286 4.08278 9.43925 4.08325 8.61631V7.19964" stroke="white" stroke-width="2.5" stroke-linecap="round" stroke-linejoin="round"/>
</svg>
