<svg width="24" height="24" viewBox="0 0 24 24" fill="none" xmlns="http://www.w3.org/2000/svg">
<path d="M21.2283 16.095H15.9433C15.6339 16.095 15.3371 16.218 15.1184 16.4368C14.8996 16.6555 14.7766 16.9523 14.7766 17.2617C14.7766 17.5711 14.8996 17.8679 15.1184 18.0867C15.3371 18.3055 15.6339 18.4284 15.9433 18.4284H18.7433C17.4564 19.7732 15.7968 20.7026 13.9777 21.097C12.1586 21.4914 10.2631 21.3329 8.53472 20.6418C6.80638 19.9507 5.32416 18.7587 4.2785 17.2187C3.23284 15.6788 2.67152 13.8614 2.66665 12C2.66665 11.6906 2.54373 11.3939 2.32494 11.1751C2.10615 10.9563 1.8094 10.8334 1.49998 10.8334C1.19056 10.8334 0.893814 10.9563 0.675022 11.1751C0.456229 11.3939 0.333313 11.6906 0.333313 12C0.339481 14.2783 1.01257 16.5049 2.26952 18.4051C3.52646 20.3052 5.31226 21.7958 7.40651 22.6928C9.50077 23.5898 11.8118 23.854 14.0545 23.4528C16.2972 23.0516 18.3733 22.0025 20.0266 20.435V22.5C20.0266 22.8095 20.1496 23.1062 20.3684 23.325C20.5871 23.5438 20.8839 23.6667 21.1933 23.6667C21.5027 23.6667 21.7995 23.5438 22.0183 23.325C22.2371 23.1062 22.36 22.8095 22.36 22.5V17.25C22.3571 16.9486 22.2377 16.66 22.0267 16.4447C21.8157 16.2294 21.5296 16.1041 21.2283 16.095ZM12 0.333374C9.0091 0.341905 6.13572 1.49877 3.97331 3.56504V1.50004C3.97331 1.19062 3.8504 0.893875 3.6316 0.675083C3.41281 0.45629 3.11607 0.333374 2.80665 0.333374C2.49723 0.333374 2.20048 0.45629 1.98169 0.675083C1.7629 0.893875 1.63998 1.19062 1.63998 1.50004V6.75004C1.63998 7.05946 1.7629 7.35621 1.98169 7.575C2.20048 7.79379 2.49723 7.91671 2.80665 7.91671H8.05665C8.36607 7.91671 8.66281 7.79379 8.8816 7.575C9.1004 7.35621 9.22331 7.05946 9.22331 6.75004C9.22331 6.44062 9.1004 6.14388 8.8816 5.92508C8.66281 5.70629 8.36607 5.58337 8.05665 5.58337H5.25665C6.54286 4.23922 8.20142 3.31012 10.0194 2.91533C11.8375 2.52054 13.732 2.67808 15.4599 3.36771C17.1877 4.05735 18.67 5.24762 19.7166 6.78575C20.7631 8.32387 21.3261 10.1397 21.3333 12C21.3333 12.3095 21.4562 12.6062 21.675 12.825C21.8938 13.0438 22.1906 13.1667 22.5 13.1667C22.8094 13.1667 23.1061 13.0438 23.3249 12.825C23.5437 12.6062 23.6666 12.3095 23.6666 12C23.6666 10.468 23.3649 8.95087 22.7786 7.5354C22.1923 6.11994 21.3329 4.83381 20.2496 3.75046C19.1662 2.66711 17.8801 1.80775 16.4646 1.22145C15.0492 0.635141 13.5321 0.333374 12 0.333374Z" fill="white"/>
</svg>
