<svg width="30" height="20" viewBox="0 0 30 20" fill="none" xmlns="http://www.w3.org/2000/svg">
<path d="M24.095 6.04745C23.2285 4.05818 21.7334 2.40803 19.839 1.35C17.9446 0.291977 15.7555 -0.115521 13.6073 0.189988C11.4591 0.495496 9.47035 1.49715 7.94604 3.04136C6.42174 4.58558 5.44597 6.58712 5.16836 8.73911C3.81769 9.06257 2.63284 9.87079 1.83882 11.0103C1.0448 12.1498 0.696913 13.5412 0.861218 14.9203C1.02552 16.2994 1.69058 17.5702 2.73009 18.4912C3.7696 19.4123 5.11117 19.9195 6.50003 19.9166H22.0834C23.7824 19.9119 25.4232 19.2967 26.7065 18.183C27.9897 17.0694 28.8299 15.5316 29.0738 13.8501C29.3177 12.1686 28.9491 10.4554 28.0351 9.0231C27.1211 7.59076 25.7228 6.53467 24.095 6.04745V6.04745ZM22.0834 17.0833H6.50003C5.74858 17.0833 5.02791 16.7848 4.49656 16.2534C3.96521 15.7221 3.66669 15.0014 3.66669 14.2499C3.66669 13.4985 3.96521 12.7778 4.49656 12.2465C5.02791 11.7151 5.74858 11.4166 6.50003 11.4166C6.87575 11.4166 7.23609 11.2674 7.50176 11.0017C7.76744 10.736 7.91669 10.3757 7.91669 9.99995C7.92031 8.32442 8.51777 6.70443 9.60291 5.42777C10.6881 4.15111 12.1906 3.30046 13.8437 3.02693C15.4967 2.75341 17.1932 3.07472 18.6318 3.93379C20.0703 4.79286 21.1577 6.13406 21.7009 7.71911C21.784 7.95991 21.9305 8.17385 22.1249 8.3384C22.3194 8.50294 22.5546 8.61201 22.8059 8.65411C23.8443 8.84572 24.7742 9.41703 25.4144 10.2567C26.0546 11.0965 26.3593 12.1444 26.2691 13.1965C26.179 14.2486 25.7004 15.2294 24.9266 15.9479C24.1528 16.6665 23.1392 17.0712 22.0834 17.0833V17.0833Z" fill="white"/>
</svg>
