<svg width="30" height="30" viewBox="0 0 30 30" fill="none" xmlns="http://www.w3.org/2000/svg">
<path d="M28.2034 11.5292L25.5259 10.6367L26.7867 8.11505C26.9145 7.8511 26.9573 7.554 26.9091 7.26472C26.8608 6.97545 26.7241 6.70827 26.5175 6.50005L23.5 3.48255C23.2907 3.273 23.021 3.13434 22.7287 3.08606C22.4365 3.03778 22.1365 3.0823 21.8709 3.21338L19.3492 4.47421L18.4567 1.79671C18.3625 1.51762 18.1835 1.27485 17.9449 1.10219C17.7062 0.929528 17.4196 0.835567 17.125 0.833379H12.875C12.578 0.832612 12.2883 0.925206 12.0468 1.09807C11.8053 1.27094 11.6242 1.51533 11.5292 1.79671L10.6367 4.47421L8.11505 3.21338C7.8511 3.08557 7.554 3.04282 7.26472 3.09103C6.97545 3.13924 6.70827 3.27604 6.50005 3.48255L3.48255 6.50005C3.273 6.70938 3.13434 6.97913 3.08606 7.27136C3.03778 7.56359 3.0823 7.8636 3.21338 8.12921L4.47421 10.6509L1.79671 11.5434C1.51762 11.6376 1.27485 11.8166 1.10219 12.0552C0.929528 12.2939 0.835567 12.5805 0.833379 12.875V17.125C0.832612 17.422 0.925206 17.7118 1.09807 17.9533C1.27094 18.1948 1.51533 18.3758 1.79671 18.4709L4.47421 19.3634L3.21338 21.885C3.08557 22.149 3.04282 22.4461 3.09103 22.7354C3.13924 23.0246 3.27604 23.2918 3.48255 23.5L6.50005 26.5175C6.70938 26.7271 6.97913 26.8658 7.27136 26.914C7.56359 26.9623 7.8636 26.9178 8.12921 26.7867L10.6509 25.5259L11.5434 28.2034C11.6384 28.4848 11.8195 28.7292 12.061 28.902C12.3025 29.0749 12.5922 29.1675 12.8892 29.1667H17.1392C17.4362 29.1675 17.7259 29.0749 17.9674 28.902C18.2089 28.7292 18.39 28.4848 18.485 28.2034L19.3775 25.5259L21.8992 26.7867C22.1615 26.9113 22.4557 26.9523 22.742 26.9042C23.0283 26.856 23.293 26.721 23.5 26.5175L26.5175 23.5C26.7271 23.2907 26.8658 23.021 26.914 22.7287C26.9623 22.4365 26.9178 22.1365 26.7867 21.8709L25.5259 19.3492L28.2034 18.4567C28.4825 18.3625 28.7252 18.1835 28.8979 17.9449C29.0706 17.7062 29.1645 17.4196 29.1667 17.125V12.875C29.1675 12.578 29.0749 12.2883 28.902 12.0468C28.7292 11.8053 28.4848 11.6242 28.2034 11.5292ZM26.3334 16.105L24.6334 16.6717C24.2425 16.7985 23.8838 17.0088 23.5823 17.2881C23.2808 17.5674 23.0436 17.9089 22.8873 18.2889C22.7309 18.669 22.6592 19.0786 22.6769 19.4891C22.6946 19.8997 22.8015 20.3015 22.99 20.6667L23.7975 22.2817L22.2392 23.84L20.6667 22.99C20.3034 22.809 19.9055 22.7082 19.4998 22.6944C19.0942 22.6805 18.6903 22.754 18.3155 22.9099C17.9407 23.0657 17.6038 23.3002 17.3275 23.5976C17.0512 23.8949 16.8421 24.2482 16.7142 24.6334L16.1475 26.3334H13.895L13.3284 24.6334C13.2016 24.2425 12.9912 23.8838 12.712 23.5823C12.4327 23.2808 12.0912 23.0436 11.7111 22.8873C11.3311 22.7309 10.9215 22.6592 10.5109 22.6769C10.1004 22.6946 9.69854 22.8015 9.33338 22.99L7.71838 23.7975L6.16005 22.2392L7.01005 20.6667C7.1986 20.3015 7.30545 19.8997 7.32319 19.4891C7.34094 19.0786 7.26915 18.669 7.11281 18.2889C6.95647 17.9089 6.71931 17.5674 6.4178 17.2881C6.11629 17.0088 5.75763 16.7985 5.36671 16.6717L3.66671 16.105V13.895L5.36671 13.3284C5.75763 13.2016 6.11629 12.9912 6.4178 12.712C6.71931 12.4327 6.95647 12.0912 7.11281 11.7111C7.26915 11.3311 7.34094 10.9215 7.32319 10.5109C7.30545 10.1004 7.1986 9.69854 7.01005 9.33338L6.20255 7.76088L7.76088 6.20255L9.33338 7.01005C9.69854 7.1986 10.1004 7.30545 10.5109 7.32319C10.9215 7.34094 11.3311 7.26915 11.7111 7.11281C12.0912 6.95647 12.4327 6.71931 12.712 6.4178C12.9912 6.11629 13.2016 5.75763 13.3284 5.36671L13.895 3.66671H16.105L16.6717 5.36671C16.7985 5.75763 17.0088 6.11629 17.2881 6.4178C17.5674 6.71931 17.9089 6.95647 18.2889 7.11281C18.669 7.26915 19.0786 7.34094 19.4891 7.32319C19.8997 7.30545 20.3015 7.1986 20.6667 7.01005L22.2817 6.20255L23.84 7.76088L22.99 9.33338C22.809 9.69668 22.7082 10.0946 22.6944 10.5003C22.6805 10.9059 22.754 11.3098 22.9099 11.6846C23.0657 12.0594 23.3002 12.3963 23.5976 12.6726C23.8949 12.9488 24.2482 13.158 24.6334 13.2859L26.3334 13.8525V16.105ZM15 9.33338C13.8793 9.33338 12.7837 9.66572 11.8518 10.2884C10.9199 10.911 10.1936 11.7961 9.76473 12.8315C9.33583 13.867 9.22361 15.0063 9.44226 16.1056C9.66091 17.2048 10.2006 18.2145 10.9931 19.007C11.7856 19.7995 12.7953 20.3392 13.8945 20.5578C14.9938 20.7765 16.1331 20.6643 17.1686 20.2354C18.204 19.8065 19.089 19.0802 19.7117 18.1483C20.3344 17.2164 20.6667 16.1208 20.6667 15C20.6667 13.4972 20.0697 12.0558 19.007 10.9931C17.9443 9.9304 16.5029 9.33338 15 9.33338ZM15 17.8334C14.4397 17.8334 13.8919 17.6672 13.4259 17.3559C12.96 17.0445 12.5968 16.602 12.3824 16.0843C12.1679 15.5666 12.1118 14.9969 12.2212 14.4473C12.3305 13.8977 12.6003 13.3928 12.9966 12.9966C13.3928 12.6003 13.8977 12.3305 14.4473 12.2212C14.9969 12.1118 15.5666 12.1679 16.0843 12.3824C16.602 12.5968 17.0445 12.96 17.3559 13.4259C17.6672 13.8919 17.8334 14.4397 17.8334 15C17.8334 15.7515 17.5349 16.4722 17.0035 17.0035C16.4722 17.5349 15.7515 17.8334 15 17.8334Z" fill="white"/>
</svg>
