<svg width="34" height="35" viewBox="0 0 34 35" fill="none" xmlns="http://www.w3.org/2000/svg">
<path d="M19.8333 12.9179C19.8333 11.7443 20.7847 10.7929 21.9583 10.7929C23.1319 10.7929 24.0833 11.7443 24.0833 12.9179C24.0833 14.0915 23.1319 15.0429 21.9583 15.0429C20.7847 15.0429 19.8333 14.0915 19.8333 12.9179Z" fill="white"/>
<path fill-rule="evenodd" clip-rule="evenodd" d="M10.2957 6.76753C14.7568 6.37973 19.2432 6.37973 23.7043 6.76753L25.8438 6.95352C27.891 7.13147 29.5495 8.6893 29.855 10.7214C30.4977 14.995 30.4977 19.3408 29.855 23.6145C29.5495 25.6465 27.891 27.2043 25.8438 27.3823L23.7043 27.5683C19.2432 27.9561 14.7568 27.9561 10.2957 27.5683L8.15616 27.3823C6.10898 27.2043 4.45053 25.6465 4.14496 23.6145C3.5023 19.3408 3.5023 14.995 4.14496 10.7214C4.45053 8.6893 6.10898 7.13147 8.15616 6.95352L10.2957 6.76753ZM23.5203 8.88455C19.1816 8.5074 14.8184 8.5074 10.4797 8.88455L8.34019 9.07053C7.27155 9.16343 6.40584 9.97662 6.24633 11.0374C5.88149 13.4636 5.73445 15.9142 5.8052 18.3601L11.2903 12.875C11.4973 12.668 11.7804 12.5556 12.0729 12.5642C12.3654 12.5728 12.6414 12.7017 12.8358 12.9204L18.037 18.7717L21.6223 17.5766C22.0233 17.443 22.4653 17.5597 22.7481 17.8738L27.7335 23.4132C27.7411 23.3753 27.7479 23.337 27.7537 23.2985C28.3648 19.2343 28.3648 15.1015 27.7537 11.0374C27.5942 9.97662 26.7284 9.16343 25.6598 9.07053L23.5203 8.88455ZM26.3785 25.0842L21.6341 19.8126L18.0443 21.0092C17.6411 21.1436 17.1966 21.0248 16.9142 20.7071L11.9962 15.1743L5.98426 21.1862C6.05337 21.8919 6.14073 22.5962 6.24633 23.2985C6.40584 24.3592 7.27155 25.1724 8.34019 25.2653L10.4797 25.4513C14.8184 25.8284 19.1816 25.8284 23.5203 25.4513L25.6598 25.2653C25.913 25.2433 26.1548 25.1808 26.3785 25.0842Z" fill="white"/>
</svg>
