<svg width="26" height="30" viewBox="0 0 26 30" fill="none" xmlns="http://www.w3.org/2000/svg">
<path d="M21.5 7.91667H21.0042C21.3275 7.25475 21.497 6.52832 21.5 5.79167C21.5043 4.80471 21.2131 3.83906 20.6639 3.01901C20.1147 2.19896 19.3326 1.56205 18.4184 1.19025C17.5041 0.818451 16.4995 0.728789 15.5339 0.932803C14.5682 1.13682 13.6857 1.62517 13 2.335C12.3143 1.62517 11.4318 1.13682 10.4661 0.932803C9.50048 0.728789 8.49587 0.818451 7.58161 1.19025C6.66735 1.56205 5.8853 2.19896 5.3361 3.01901C4.78691 3.83906 4.49571 4.80471 4.5 5.79167C4.50302 6.52832 4.67252 7.25475 4.99583 7.91667H4.5C3.37283 7.91667 2.29183 8.36444 1.4948 9.16147C0.697767 9.9585 0.25 11.0395 0.25 12.1667V15C0.25 15.3757 0.399255 15.7361 0.664932 16.0017C0.930609 16.2674 1.29094 16.4167 1.66667 16.4167H3.08333V24.9167C3.08333 26.0438 3.5311 27.1248 4.32813 27.9219C5.12516 28.7189 6.20616 29.1667 7.33333 29.1667H18.6667C19.7938 29.1667 20.8748 28.7189 21.6719 27.9219C22.4689 27.1248 22.9167 26.0438 22.9167 24.9167V16.4167H24.3333C24.7091 16.4167 25.0694 16.2674 25.3351 16.0017C25.6007 15.7361 25.75 15.3757 25.75 15V12.1667C25.75 11.0395 25.3022 9.9585 24.5052 9.16147C23.7082 8.36444 22.6272 7.91667 21.5 7.91667ZM11.5833 26.3333H7.33333C6.95761 26.3333 6.59728 26.1841 6.3316 25.9184C6.06592 25.6527 5.91667 25.2924 5.91667 24.9167V16.4167H11.5833V26.3333ZM11.5833 13.5833H3.08333V12.1667C3.08333 11.7909 3.23259 11.4306 3.49827 11.1649C3.76394 10.8993 4.12428 10.75 4.5 10.75H11.5833V13.5833ZM11.5833 7.91667H9.45833C9.03805 7.91667 8.6272 7.79204 8.27775 7.55854C7.92829 7.32504 7.65593 6.99316 7.49509 6.60487C7.33425 6.21658 7.29217 5.78931 7.37416 5.3771C7.45616 4.96489 7.65854 4.58625 7.95573 4.28907C8.25292 3.99188 8.63156 3.78949 9.04377 3.7075C9.45598 3.62551 9.88324 3.66759 10.2715 3.82842C10.6598 3.98926 10.9917 4.26163 11.2252 4.61108C11.4587 4.96054 11.5833 5.37138 11.5833 5.79167V7.91667ZM14.4167 5.79167C14.4167 5.37138 14.5413 4.96054 14.7748 4.61108C15.0083 4.26163 15.3402 3.98926 15.7285 3.82842C16.1168 3.66759 16.544 3.62551 16.9562 3.7075C17.3684 3.78949 17.7471 3.99188 18.0443 4.28907C18.3415 4.58625 18.5438 4.96489 18.6258 5.3771C18.7078 5.78931 18.6657 6.21658 18.5049 6.60487C18.3441 6.99316 18.0717 7.32504 17.7223 7.55854C17.3728 7.79204 16.962 7.91667 16.5417 7.91667H14.4167V5.79167ZM20.0833 24.9167C20.0833 25.2924 19.9341 25.6527 19.6684 25.9184C19.4027 26.1841 19.0424 26.3333 18.6667 26.3333H14.4167V16.4167H20.0833V24.9167ZM22.9167 13.5833H14.4167V10.75H21.5C21.8757 10.75 22.2361 10.8993 22.5017 11.1649C22.7674 11.4306 22.9167 11.7909 22.9167 12.1667V13.5833Z" fill="white"/>
</svg>
