<svg width="24" height="29" viewBox="0 0 24 29" fill="none" xmlns="http://www.w3.org/2000/svg">
<path d="M23.1492 9.3513C23.0436 9.10865 22.8722 8.90042 22.6544 8.75019C22.4366 8.59996 22.181 8.51374 21.9167 8.5013H15.4284L17.2275 1.7863C17.2848 1.57618 17.2929 1.35567 17.2511 1.14191C17.2094 0.928153 17.1189 0.726905 16.9867 0.553804C16.8547 0.382366 16.6852 0.243433 16.4912 0.147662C16.2972 0.0518898 16.0839 0.0018239 15.8675 0.00130387H5.95086C5.63103 -0.00965155 5.31691 0.0880035 5.05967 0.278364C4.80243 0.468725 4.61721 0.740575 4.5342 1.04964L0.73753 15.2163C0.680229 15.4264 0.672148 15.6469 0.713917 15.8607C0.755686 16.0745 0.846178 16.2757 0.978363 16.4488C1.11179 16.6221 1.28355 16.7622 1.48018 16.8581C1.6768 16.9539 1.89296 17.003 2.1117 17.0013H7.5942L5.03003 26.5496C4.94602 26.8575 4.96843 27.1848 5.09364 27.4783C5.21885 27.7719 5.43952 28.0146 5.71989 28.1671C6.00026 28.3196 6.3239 28.3729 6.63838 28.3185C6.95285 28.264 7.23973 28.105 7.45253 27.8671L22.8942 10.8671C23.0781 10.6658 23.1999 10.4157 23.2452 10.1468C23.2904 9.87793 23.2571 9.60171 23.1492 9.3513ZM9.28003 21.648L10.7959 15.9813C10.8532 15.7712 10.8612 15.5507 10.8195 15.3369C10.7777 15.1232 10.6872 14.9219 10.555 14.7488C10.4231 14.5774 10.2536 14.4384 10.0596 14.3427C9.86557 14.2469 9.65221 14.1968 9.43586 14.1963H3.99586L7.02753 2.83464H14.0117L12.2125 9.54964C12.1548 9.76363 12.148 9.9882 12.1928 10.2053C12.2377 10.4223 12.3328 10.6259 12.4706 10.7995C12.6084 10.9731 12.785 11.112 12.9862 11.2049C13.1874 11.2979 13.4077 11.3423 13.6292 11.3346H18.6867L9.28003 21.648Z" fill="white"/>
</svg>
