<svg width="20" height="29" viewBox="0 0 20 29" fill="none" xmlns="http://www.w3.org/2000/svg">
<path d="M9.99998 0.00131226C7.36992 0.00131226 4.84757 1.0461 2.98784 2.90584C1.1281 4.76557 0.083313 7.28792 0.083313 9.91798V18.418C0.083313 21.048 1.1281 23.5704 2.98784 25.4301C4.84757 27.2899 7.36992 28.3346 9.99998 28.3346C12.63 28.3346 15.1524 27.2899 17.0121 25.4301C18.8719 23.5704 19.9166 21.048 19.9166 18.418V9.91798C19.9166 7.28792 18.8719 4.76557 17.0121 2.90584C15.1524 1.0461 12.63 0.00131226 9.99998 0.00131226ZM2.91665 9.91798C2.91631 8.28505 3.48017 6.70216 4.5128 5.4372C5.54542 4.17224 6.98338 3.3029 8.58331 2.97631V11.3346H2.91665V9.91798ZM17.0833 18.418C17.0833 20.2966 16.337 22.0983 15.0087 23.4267C13.6803 24.755 11.8786 25.5013 9.99998 25.5013C8.12136 25.5013 6.31969 24.755 4.99131 23.4267C3.66292 22.0983 2.91665 20.2966 2.91665 18.418V14.168H17.0833V18.418ZM17.0833 11.3346H11.4166V2.97631C13.0166 3.3029 14.4545 4.17224 15.4872 5.4372C16.5198 6.70216 17.0836 8.28505 17.0833 9.91798V11.3346Z" fill="white"/>
</svg>
