<svg width="30" height="30" viewBox="0 0 30 30" fill="none" xmlns="http://www.w3.org/2000/svg">
<path d="M11.4583 12.875H15C15.3757 12.875 15.736 12.7257 16.0017 12.4601C16.2674 12.1944 16.4167 11.8341 16.4167 11.4583C16.4167 11.0826 16.2674 10.7223 16.0017 10.4566C15.736 10.1909 15.3757 10.0417 15 10.0417H13.5833V9.33333C13.5833 8.95761 13.4341 8.59727 13.1684 8.33159C12.9027 8.06592 12.5424 7.91666 12.1667 7.91666C11.7909 7.91666 11.4306 8.06592 11.1649 8.33159C10.8992 8.59727 10.75 8.95761 10.75 9.33333V10.1125C9.88926 10.2873 9.12417 10.7756 8.60325 11.4828C8.08234 12.1899 7.84276 13.0654 7.93103 13.9393C8.0193 14.8131 8.42911 15.623 9.08092 16.2117C9.73273 16.8004 10.58 17.1259 11.4583 17.125H12.875C13.0629 17.125 13.243 17.1996 13.3759 17.3325C13.5087 17.4653 13.5833 17.6455 13.5833 17.8333C13.5833 18.0212 13.5087 18.2014 13.3759 18.3342C13.243 18.467 13.0629 18.5417 12.875 18.5417H9.33332C8.9576 18.5417 8.59727 18.6909 8.33159 18.9566C8.06591 19.2223 7.91666 19.5826 7.91666 19.9583C7.91666 20.3341 8.06591 20.6944 8.33159 20.9601C8.59727 21.2257 8.9576 21.375 9.33332 21.375H10.75V22.0833C10.75 22.4591 10.8992 22.8194 11.1649 23.0851C11.4306 23.3507 11.7909 23.5 12.1667 23.5C12.5424 23.5 12.9027 23.3507 13.1684 23.0851C13.4341 22.8194 13.5833 22.4591 13.5833 22.0833V21.3042C14.4441 21.1294 15.2091 20.641 15.7301 19.9339C16.251 19.2267 16.4906 18.3512 16.4023 17.4774C16.314 16.6035 15.9042 15.7937 15.2524 15.205C14.6006 14.6163 13.7533 14.2908 12.875 14.2917H11.4583C11.2705 14.2917 11.0903 14.217 10.9575 14.0842C10.8246 13.9514 10.75 13.7712 10.75 13.5833C10.75 13.3955 10.8246 13.2153 10.9575 13.0825C11.0903 12.9496 11.2705 12.875 11.4583 12.875ZM27.75 15H23.5V2.25C23.501 2.00036 23.436 1.7549 23.3116 1.53847C23.1872 1.32203 23.0078 1.14231 22.7917 1.0175C22.5763 0.893157 22.332 0.827698 22.0833 0.827698C21.8346 0.827698 21.5904 0.893157 21.375 1.0175L17.125 3.45416L12.875 1.0175C12.6596 0.893157 12.4153 0.827698 12.1667 0.827698C11.918 0.827698 11.6737 0.893157 11.4583 1.0175L7.20832 3.45416L2.95832 1.0175C2.74296 0.893157 2.49867 0.827698 2.24999 0.827698C2.00131 0.827698 1.75702 0.893157 1.54166 1.0175C1.32547 1.14231 1.1461 1.32203 1.02171 1.53847C0.897322 1.7549 0.832333 2.00036 0.833324 2.25V24.9167C0.833324 26.0438 1.28109 27.1248 2.07812 27.9219C2.87515 28.7189 3.95615 29.1667 5.08332 29.1667H24.9167C26.0438 29.1667 27.1248 28.7189 27.9219 27.9219C28.7189 27.1248 29.1667 26.0438 29.1667 24.9167V16.4167C29.1667 16.0409 29.0174 15.6806 28.7517 15.4149C28.486 15.1493 28.1257 15 27.75 15ZM5.08332 26.3333C4.7076 26.3333 4.34727 26.1841 4.08159 25.9184C3.81591 25.6527 3.66666 25.2924 3.66666 24.9167V4.70083L6.49999 6.31583C6.71864 6.43003 6.96165 6.48967 7.20832 6.48967C7.455 6.48967 7.69801 6.43003 7.91666 6.31583L12.1667 3.87916L16.4167 6.31583C16.6353 6.43003 16.8783 6.48967 17.125 6.48967C17.3717 6.48967 17.6147 6.43003 17.8333 6.31583L20.6667 4.70083V24.9167C20.6705 25.3999 20.7567 25.879 20.9217 26.3333H5.08332ZM26.3333 24.9167C26.3333 25.2924 26.1841 25.6527 25.9184 25.9184C25.6527 26.1841 25.2924 26.3333 24.9167 26.3333C24.5409 26.3333 24.1806 26.1841 23.9149 25.9184C23.6492 25.6527 23.5 25.2924 23.5 24.9167V17.8333H26.3333V24.9167Z" fill="white"/>
</svg>
