<svg width="30" height="29" viewBox="0 0 30 29" fill="none" xmlns="http://www.w3.org/2000/svg">
<path d="M27.75 19.8346H7.91671C7.54098 19.8346 7.18065 19.6854 6.91497 19.4197C6.6493 19.154 6.50004 18.7937 6.50004 18.418C6.50004 18.0422 6.6493 17.6819 6.91497 17.4162C7.18065 17.1506 7.54098 17.0013 7.91671 17.0013H22.7067C23.654 17.0014 24.5741 16.685 25.321 16.1023C26.0679 15.5197 26.5987 14.7043 26.8292 13.7855L29.1667 4.5913C29.2198 4.38222 29.2244 4.16377 29.1802 3.95263C29.136 3.74149 29.0442 3.54323 28.9117 3.37297C28.7739 3.19834 28.597 3.05861 28.3952 2.96508C28.1933 2.87156 27.9723 2.82687 27.75 2.83464H7.57671C7.28443 2.00794 6.74361 1.29189 6.02838 0.784634C5.31316 0.277383 4.45854 0.00376893 3.58171 0.00130463H2.25004C1.87432 0.00130463 1.51398 0.15056 1.24831 0.416237C0.982629 0.681913 0.833374 1.04225 0.833374 1.41797C0.833374 1.79369 0.982629 2.15403 1.24831 2.41971C1.51398 2.68538 1.87432 2.83464 2.25004 2.83464H3.58171C3.90532 2.82521 4.2224 2.92691 4.48017 3.12281C4.73792 3.3187 4.92081 3.59698 4.99837 3.9113L5.08337 4.5913L7.53421 14.168C6.40704 14.2187 5.34618 14.7151 4.58502 15.548C3.82386 16.3809 3.42473 17.4821 3.47546 18.6092C3.52618 19.7364 4.02259 20.7972 4.85549 21.5584C5.68838 22.3196 6.78954 22.7187 7.91671 22.668H8.17171C7.93872 23.3099 7.86385 23.9985 7.95344 24.6755C8.04304 25.3525 8.29446 25.998 8.68641 26.5572C9.07836 27.1165 9.5993 27.573 10.2051 27.8882C10.8109 28.2034 11.4838 28.368 12.1667 28.368C12.8496 28.368 13.5225 28.2034 14.1283 27.8882C14.7341 27.573 15.2551 27.1165 15.647 26.5572C16.039 25.998 16.2904 25.3525 16.38 24.6755C16.4696 23.9985 16.3947 23.3099 16.1617 22.668H19.505C19.272 23.3099 19.1972 23.9985 19.2868 24.6755C19.3764 25.3525 19.6278 25.998 20.0197 26.5572C20.4117 27.1165 20.9326 27.573 21.5385 27.8882C22.1443 28.2034 22.8171 28.368 23.5 28.368C24.183 28.368 24.8558 28.2034 25.4616 27.8882C26.0674 27.573 26.5884 27.1165 26.9803 26.5572C27.3723 25.998 27.6237 25.3525 27.7133 24.6755C27.8029 23.9985 27.728 23.3099 27.495 22.668H27.75C28.1258 22.668 28.4861 22.5187 28.7518 22.253C29.0175 21.9874 29.1667 21.627 29.1667 21.2513C29.1667 20.8756 29.0175 20.5152 28.7518 20.2496C28.4861 19.9839 28.1258 19.8346 27.75 19.8346ZM25.9367 5.66797L24.0809 13.0913C24.0033 13.4056 23.8204 13.6839 23.5627 13.8798C23.3049 14.0757 22.9878 14.1774 22.6642 14.168H10.4384L8.31337 5.66797H25.9367ZM12.1667 25.5013C11.8865 25.5013 11.6126 25.4182 11.3796 25.2626C11.1467 25.1069 10.9651 24.8856 10.8579 24.6268C10.7507 24.3679 10.7226 24.0831 10.7773 23.8083C10.8319 23.5335 10.9668 23.281 11.165 23.0829C11.3631 22.8848 11.6155 22.7499 11.8903 22.6952C12.1651 22.6405 12.45 22.6686 12.7088 22.7758C12.9677 22.883 13.189 23.0646 13.3446 23.2976C13.5003 23.5305 13.5834 23.8044 13.5834 24.0846C13.5834 24.4604 13.4341 24.8207 13.1684 25.0864C12.9028 25.352 12.5424 25.5013 12.1667 25.5013ZM23.5 25.5013C23.2199 25.5013 22.946 25.4182 22.713 25.2626C22.48 25.1069 22.2984 24.8856 22.1912 24.6268C22.084 24.3679 22.0559 24.0831 22.1106 23.8083C22.1653 23.5335 22.3002 23.281 22.4983 23.0829C22.6964 22.8848 22.9489 22.7499 23.2237 22.6952C23.4985 22.6405 23.7833 22.6686 24.0422 22.7758C24.301 22.883 24.5223 23.0646 24.678 23.2976C24.8336 23.5305 24.9167 23.8044 24.9167 24.0846C24.9167 24.4604 24.7675 24.8207 24.5018 25.0864C24.2361 25.352 23.8758 25.5013 23.5 25.5013Z" fill="white"/>
</svg>
