<svg width="28" height="28" viewBox="0 0 28 28" fill="none" xmlns="http://www.w3.org/2000/svg">
<path d="M26.5 17.75H24V14C24 13.6685 23.8683 13.3505 23.6339 13.1161C23.3995 12.8817 23.0815 12.75 22.75 12.75H15.25V10.25H17.75C18.0815 10.25 18.3995 10.1183 18.6339 9.88388C18.8683 9.64946 19 9.33152 19 9V1.5C19 1.16848 18.8683 0.850537 18.6339 0.616116C18.3995 0.381696 18.0815 0.25 17.75 0.25H10.25C9.91848 0.25 9.60054 0.381696 9.36612 0.616116C9.1317 0.850537 9 1.16848 9 1.5V9C9 9.33152 9.1317 9.64946 9.36612 9.88388C9.60054 10.1183 9.91848 10.25 10.25 10.25H12.75V12.75H5.25C4.91848 12.75 4.60054 12.8817 4.36612 13.1161C4.1317 13.3505 4 13.6685 4 14V17.75H1.5C1.16848 17.75 0.850537 17.8817 0.616116 18.1161C0.381696 18.3505 0.25 18.6685 0.25 19V26.5C0.25 26.8315 0.381696 27.1495 0.616116 27.3839C0.850537 27.6183 1.16848 27.75 1.5 27.75H9C9.33152 27.75 9.64946 27.6183 9.88388 27.3839C10.1183 27.1495 10.25 26.8315 10.25 26.5V19C10.25 18.6685 10.1183 18.3505 9.88388 18.1161C9.64946 17.8817 9.33152 17.75 9 17.75H6.5V15.25H21.5V17.75H19C18.6685 17.75 18.3505 17.8817 18.1161 18.1161C17.8817 18.3505 17.75 18.6685 17.75 19V26.5C17.75 26.8315 17.8817 27.1495 18.1161 27.3839C18.3505 27.6183 18.6685 27.75 19 27.75H26.5C26.8315 27.75 27.1495 27.6183 27.3839 27.3839C27.6183 27.1495 27.75 26.8315 27.75 26.5V19C27.75 18.6685 27.6183 18.3505 27.3839 18.1161C27.1495 17.8817 26.8315 17.75 26.5 17.75ZM7.75 20.25V25.25H2.75V20.25H7.75ZM11.5 7.75V2.75H16.5V7.75H11.5ZM25.25 25.25H20.25V20.25H25.25V25.25Z" fill="white"/>
</svg>
