<svg width="30" height="26" viewBox="0 0 30 26" fill="none" xmlns="http://www.w3.org/2000/svg">
<path d="M1.54167 10.9601L14.2917 18.3267C14.507 18.4511 14.7513 18.5165 15 18.5165C15.2487 18.5165 15.493 18.4511 15.7083 18.3267L28.4583 10.9601C28.673 10.8355 28.8512 10.6568 28.9751 10.4417C29.099 10.2267 29.1642 9.98283 29.1642 9.73464C29.1642 9.48645 29.099 9.24262 28.9751 9.02756C28.8512 8.8125 28.673 8.63376 28.4583 8.50922L15.7083 1.14256C15.493 1.01822 15.2487 0.952759 15 0.952759C14.7513 0.952759 14.507 1.01822 14.2917 1.14256L1.54167 8.50922C1.32699 8.63376 1.14879 8.8125 1.02492 9.02756C0.901044 9.24262 0.835843 9.48645 0.835843 9.73464C0.835843 9.98283 0.901044 10.2267 1.02492 10.4417C1.14879 10.6568 1.32699 10.8355 1.54167 10.9601V10.9601ZM15 4.00422L24.9167 9.67089L15 15.4084L5.08333 9.72756L15 4.00422ZM27.0417 15.0401L15 21.9959L2.95833 15.0401C2.79749 14.9458 2.61962 14.8842 2.43493 14.8588C2.25024 14.8335 2.06235 14.8448 1.88205 14.8922C1.70174 14.9396 1.53256 15.0221 1.3842 15.1349C1.23585 15.2478 1.11123 15.3889 1.0175 15.5501C0.923831 15.7117 0.863076 15.8904 0.838733 16.0756C0.81439 16.2609 0.82694 16.4492 0.875661 16.6296C0.924382 16.81 1.00831 16.9789 1.12261 17.1268C1.23692 17.2746 1.37933 17.3983 1.54167 17.4909L14.2917 24.8576C14.507 24.9819 14.7513 25.0474 15 25.0474C15.2487 25.0474 15.493 24.9819 15.7083 24.8576L28.4583 17.4909C28.6207 17.3983 28.7631 17.2746 28.8774 17.1268C28.9917 16.9789 29.0756 16.81 29.1243 16.6296C29.1731 16.4492 29.1856 16.2609 29.1613 16.0756C29.1369 15.8904 29.0762 15.7117 28.9825 15.5501C28.8888 15.3889 28.7642 15.2478 28.6158 15.1349C28.4674 15.0221 28.2983 14.9396 28.118 14.8922C27.9376 14.8448 27.7498 14.8335 27.5651 14.8588C27.3804 14.8842 27.2025 14.9458 27.0417 15.0401V15.0401Z" fill="white"/>
</svg>
