<svg width="26" height="30" viewBox="0 0 26 30" fill="none" xmlns="http://www.w3.org/2000/svg">
<path d="M18.6667 17.8333H7.33333C6.95761 17.8333 6.59728 17.9826 6.3316 18.2482C6.06592 18.5139 5.91667 18.8743 5.91667 19.25C5.91667 19.6257 6.06592 19.986 6.3316 20.2517C6.59728 20.5174 6.95761 20.6666 7.33333 20.6666H18.6667C19.0424 20.6666 19.4027 20.5174 19.6684 20.2517C19.9341 19.986 20.0833 19.6257 20.0833 19.25C20.0833 18.8743 19.9341 18.5139 19.6684 18.2482C19.4027 17.9826 19.0424 17.8333 18.6667 17.8333ZM18.6667 12.1666H10.1667C9.79094 12.1666 9.43061 12.3159 9.16493 12.5816C8.89926 12.8473 8.75 13.2076 8.75 13.5833C8.75 13.959 8.89926 14.3194 9.16493 14.585C9.43061 14.8507 9.79094 15 10.1667 15H18.6667C19.0424 15 19.4027 14.8507 19.6684 14.585C19.9341 14.3194 20.0833 13.959 20.0833 13.5833C20.0833 13.2076 19.9341 12.8473 19.6684 12.5816C19.4027 12.3159 19.0424 12.1666 18.6667 12.1666ZM24.3333 3.66665H20.0833V2.24998C20.0833 1.87426 19.9341 1.51392 19.6684 1.24825C19.4027 0.982568 19.0424 0.833313 18.6667 0.833313C18.2909 0.833313 17.9306 0.982568 17.6649 1.24825C17.3993 1.51392 17.25 1.87426 17.25 2.24998V3.66665H14.4167V2.24998C14.4167 1.87426 14.2674 1.51392 14.0017 1.24825C13.7361 0.982568 13.3757 0.833313 13 0.833313C12.6243 0.833313 12.2639 0.982568 11.9983 1.24825C11.7326 1.51392 11.5833 1.87426 11.5833 2.24998V3.66665H8.75V2.24998C8.75 1.87426 8.60074 1.51392 8.33507 1.24825C8.06939 0.982568 7.70906 0.833313 7.33333 0.833313C6.95761 0.833313 6.59728 0.982568 6.3316 1.24825C6.06592 1.51392 5.91667 1.87426 5.91667 2.24998V3.66665H1.66667C1.29094 3.66665 0.930609 3.8159 0.664932 4.08158C0.399255 4.34726 0.25 4.70759 0.25 5.08331V24.9166C0.25 26.0438 0.697767 27.1248 1.4948 27.9219C2.29183 28.7189 3.37283 29.1666 4.5 29.1666H21.5C22.6272 29.1666 23.7082 28.7189 24.5052 27.9219C25.3022 27.1248 25.75 26.0438 25.75 24.9166V5.08331C25.75 4.70759 25.6007 4.34726 25.3351 4.08158C25.0694 3.8159 24.7091 3.66665 24.3333 3.66665ZM22.9167 24.9166C22.9167 25.2924 22.7674 25.6527 22.5017 25.9184C22.2361 26.1841 21.8757 26.3333 21.5 26.3333H4.5C4.12428 26.3333 3.76394 26.1841 3.49827 25.9184C3.23259 25.6527 3.08333 25.2924 3.08333 24.9166V6.49998H5.91667V7.91665C5.91667 8.29237 6.06592 8.6527 6.3316 8.91838C6.59728 9.18406 6.95761 9.33331 7.33333 9.33331C7.70906 9.33331 8.06939 9.18406 8.33507 8.91838C8.60074 8.6527 8.75 8.29237 8.75 7.91665V6.49998H11.5833V7.91665C11.5833 8.29237 11.7326 8.6527 11.9983 8.91838C12.2639 9.18406 12.6243 9.33331 13 9.33331C13.3757 9.33331 13.7361 9.18406 14.0017 8.91838C14.2674 8.6527 14.4167 8.29237 14.4167 7.91665V6.49998H17.25V7.91665C17.25 8.29237 17.3993 8.6527 17.6649 8.91838C17.9306 9.18406 18.2909 9.33331 18.6667 9.33331C19.0424 9.33331 19.4027 9.18406 19.6684 8.91838C19.9341 8.6527 20.0833 8.29237 20.0833 7.91665V6.49998H22.9167V24.9166Z" fill="white"/>
</svg>
