<svg width="32" height="32" viewBox="0 0 32 32" fill="none" xmlns="http://www.w3.org/2000/svg">
<path d="M30.1666 6.08332H1.83329C1.45757 6.08332 1.09723 6.23258 0.831558 6.49826C0.565881 6.76393 0.416626 7.12427 0.416626 7.49999V13.1667C0.41909 14.0435 0.692704 14.8981 1.19996 15.6133C1.70721 16.3286 2.42326 16.8694 3.24996 17.1617V30.1667C3.24996 30.5424 3.39921 30.9027 3.66489 31.1684C3.93057 31.4341 4.2909 31.5833 4.66663 31.5833H27.3333C27.709 31.5833 28.0694 31.4341 28.335 31.1684C28.6007 30.9027 28.75 30.5424 28.75 30.1667V17.1617C29.5767 16.8694 30.2927 16.3286 30.8 15.6133C31.3072 14.8981 31.5808 14.0435 31.5833 13.1667V7.49999C31.5833 7.12427 31.434 6.76393 31.1684 6.49826C30.9027 6.23258 30.5423 6.08332 30.1666 6.08332ZM20.25 8.91666H23.0833V13.1667C23.0833 13.5424 22.934 13.9027 22.6684 14.1684C22.4027 14.4341 22.0423 14.5833 21.6666 14.5833C21.2909 14.5833 20.9306 14.4341 20.6649 14.1684C20.3992 13.9027 20.25 13.5424 20.25 13.1667V8.91666ZM14.5833 8.91666H17.4166V13.1667C17.4166 13.5424 17.2674 13.9027 17.0017 14.1684C16.736 14.4341 16.3757 14.5833 16 14.5833C15.6242 14.5833 15.2639 14.4341 14.9982 14.1684C14.7325 13.9027 14.5833 13.5424 14.5833 13.1667V8.91666ZM8.91663 8.91666H11.75V13.1667C11.75 13.5424 11.6007 13.9027 11.335 14.1684C11.0694 14.4341 10.709 14.5833 10.3333 14.5833C9.95757 14.5833 9.59723 14.4341 9.33156 14.1684C9.06588 13.9027 8.91663 13.5424 8.91663 13.1667V8.91666ZM4.66663 14.5833C4.2909 14.5833 3.93057 14.4341 3.66489 14.1684C3.39921 13.9027 3.24996 13.5424 3.24996 13.1667V8.91666H6.08329V13.1667C6.08329 13.5424 5.93404 13.9027 5.66836 14.1684C5.40268 14.4341 5.04235 14.5833 4.66663 14.5833ZM18.8333 28.75H13.1666V25.9167C13.1666 25.1652 13.4651 24.4445 13.9965 23.9132C14.5278 23.3818 15.2485 23.0833 16 23.0833C16.7514 23.0833 17.4721 23.3818 18.0034 23.9132C18.5348 24.4445 18.8333 25.1652 18.8333 25.9167V28.75ZM25.9166 28.75H21.6666V25.9167C21.6666 24.4138 21.0696 22.9724 20.0069 21.9097C18.9442 20.847 17.5029 20.25 16 20.25C14.4971 20.25 13.0557 20.847 11.993 21.9097C10.9303 22.9724 10.3333 24.4138 10.3333 25.9167V28.75H6.08329V17.1617C6.60402 16.9684 7.08437 16.6802 7.49996 16.3117C8.27916 17.0086 9.28789 17.3939 10.3333 17.3939C11.3787 17.3939 12.3874 17.0086 13.1666 16.3117C13.9458 17.0086 14.9546 17.3939 16 17.3939C17.0454 17.3939 18.0541 17.0086 18.8333 16.3117C19.6125 17.0086 20.6212 17.3939 21.6666 17.3939C22.712 17.3939 23.7208 17.0086 24.5 16.3117C24.9156 16.6802 25.3959 16.9684 25.9166 17.1617V28.75ZM28.75 13.1667C28.75 13.5424 28.6007 13.9027 28.335 14.1684C28.0694 14.4341 27.709 14.5833 27.3333 14.5833C26.9576 14.5833 26.5972 14.4341 26.3316 14.1684C26.0659 13.9027 25.9166 13.5424 25.9166 13.1667V8.91666H28.75V13.1667ZM5.09163 3.24999H27.3333C27.709 3.24999 28.0694 3.10073 28.335 2.83506C28.6007 2.56938 28.75 2.20905 28.75 1.83332C28.75 1.4576 28.6007 1.09727 28.335 0.831588C28.0694 0.565912 27.709 0.416656 27.3333 0.416656H5.09163C4.7159 0.416656 4.35557 0.565912 4.08989 0.831588C3.82421 1.09727 3.67496 1.4576 3.67496 1.83332C3.67496 2.20905 3.82421 2.56938 4.08989 2.83506C4.35557 3.10073 4.7159 3.24999 5.09163 3.24999Z" fill="white"/>
</svg>
