<svg width="26" height="26" viewBox="0 0 26 26" fill="none" xmlns="http://www.w3.org/2000/svg">
<path d="M8 23H4.25C3.91848 23 3.60054 22.8683 3.36612 22.6339C3.1317 22.3995 3 22.0815 3 21.75V18C3 17.6685 2.8683 17.3505 2.63388 17.1161C2.39946 16.8817 2.08152 16.75 1.75 16.75C1.41848 16.75 1.10054 16.8817 0.866116 17.1161C0.631696 17.3505 0.5 17.6685 0.5 18V21.75C0.5 22.7446 0.895088 23.6984 1.59835 24.4017C2.30161 25.1049 3.25544 25.5 4.25 25.5H8C8.33152 25.5 8.64946 25.3683 8.88388 25.1339C9.1183 24.8995 9.25 24.5815 9.25 24.25C9.25 23.9185 9.1183 23.6005 8.88388 23.3661C8.64946 23.1317 8.33152 23 8 23ZM1.75 9.25C2.08152 9.25 2.39946 9.1183 2.63388 8.88388C2.8683 8.64946 3 8.33152 3 8V4.25C3 3.91848 3.1317 3.60054 3.36612 3.36612C3.60054 3.1317 3.91848 3 4.25 3H8C8.33152 3 8.64946 2.8683 8.88388 2.63388C9.1183 2.39946 9.25 2.08152 9.25 1.75C9.25 1.41848 9.1183 1.10054 8.88388 0.866116C8.64946 0.631696 8.33152 0.5 8 0.5H4.25C3.25544 0.5 2.30161 0.895088 1.59835 1.59835C0.895088 2.30161 0.5 3.25544 0.5 4.25V8C0.5 8.33152 0.631696 8.64946 0.866116 8.88388C1.10054 9.1183 1.41848 9.25 1.75 9.25ZM21.75 0.5H18C17.6685 0.5 17.3505 0.631696 17.1161 0.866116C16.8817 1.10054 16.75 1.41848 16.75 1.75C16.75 2.08152 16.8817 2.39946 17.1161 2.63388C17.3505 2.8683 17.6685 3 18 3H21.75C22.0815 3 22.3995 3.1317 22.6339 3.36612C22.8683 3.60054 23 3.91848 23 4.25V8C23 8.33152 23.1317 8.64946 23.3661 8.88388C23.6005 9.1183 23.9185 9.25 24.25 9.25C24.5815 9.25 24.8995 9.1183 25.1339 8.88388C25.3683 8.64946 25.5 8.33152 25.5 8V4.25C25.5 3.25544 25.1049 2.30161 24.4017 1.59835C23.6984 0.895088 22.7446 0.5 21.75 0.5ZM18 13C18 12.6685 17.8683 12.3505 17.6339 12.1161C17.3995 11.8817 17.0815 11.75 16.75 11.75H14.25V9.25C14.25 8.91848 14.1183 8.60054 13.8839 8.36612C13.6495 8.1317 13.3315 8 13 8C12.6685 8 12.3505 8.1317 12.1161 8.36612C11.8817 8.60054 11.75 8.91848 11.75 9.25V11.75H9.25C8.91848 11.75 8.60054 11.8817 8.36612 12.1161C8.1317 12.3505 8 12.6685 8 13C8 13.3315 8.1317 13.6495 8.36612 13.8839C8.60054 14.1183 8.91848 14.25 9.25 14.25H11.75V16.75C11.75 17.0815 11.8817 17.3995 12.1161 17.6339C12.3505 17.8683 12.6685 18 13 18C13.3315 18 13.6495 17.8683 13.8839 17.6339C14.1183 17.3995 14.25 17.0815 14.25 16.75V14.25H16.75C17.0815 14.25 17.3995 14.1183 17.6339 13.8839C17.8683 13.6495 18 13.3315 18 13ZM24.25 16.75C23.9185 16.75 23.6005 16.8817 23.3661 17.1161C23.1317 17.3505 23 17.6685 23 18V21.75C23 22.0815 22.8683 22.3995 22.6339 22.6339C22.3995 22.8683 22.0815 23 21.75 23H18C17.6685 23 17.3505 23.1317 17.1161 23.3661C16.8817 23.6005 16.75 23.9185 16.75 24.25C16.75 24.5815 16.8817 24.8995 17.1161 25.1339C17.3505 25.3683 17.6685 25.5 18 25.5H21.75C22.7446 25.5 23.6984 25.1049 24.4017 24.4017C25.1049 23.6984 25.5 22.7446 25.5 21.75V18C25.5 17.6685 25.3683 17.3505 25.1339 17.1161C24.8995 16.8817 24.5815 16.75 24.25 16.75Z" fill="white"/>
</svg>
