<svg width="22" height="28" viewBox="0 0 22 28" fill="none" xmlns="http://www.w3.org/2000/svg">
<path d="M21.1734 2.86669C21.0185 2.74139 20.8375 2.65239 20.6436 2.60624C20.4498 2.56009 20.2481 2.55797 20.0534 2.60002C18.6286 2.89862 17.1578 2.90242 15.7316 2.6112C14.3053 2.31999 12.9537 1.73991 11.76 0.906692C11.5369 0.751855 11.2717 0.668884 11 0.668884C10.7284 0.668884 10.4632 0.751855 10.24 0.906692C9.04639 1.73991 7.69481 2.31999 6.26854 2.6112C4.84226 2.90242 3.37147 2.89862 1.94671 2.60002C1.75197 2.55797 1.55027 2.56009 1.35645 2.60624C1.16263 2.65239 0.981616 2.74139 0.826715 2.86669C0.672021 2.99218 0.54741 3.15074 0.462038 3.33071C0.376667 3.51068 0.332704 3.7075 0.333382 3.90669V13.84C0.332196 15.7517 0.787746 17.636 1.66209 19.336C2.53644 21.036 3.80429 22.5025 5.36005 23.6134L10.2267 27.08C10.4525 27.2408 10.7228 27.3272 11 27.3272C11.2773 27.3272 11.5476 27.2408 11.7734 27.08L16.64 23.6134C18.1958 22.5025 19.4637 21.036 20.338 19.336C21.2124 17.636 21.6679 15.7517 21.6667 13.84V3.90669C21.6674 3.7075 21.6234 3.51068 21.5381 3.33071C21.4527 3.15074 21.3281 2.99218 21.1734 2.86669ZM19 13.84C19.0011 15.3264 18.6471 16.7915 17.9676 18.1134C17.2881 19.4353 16.3027 20.5758 15.0934 21.44L11 24.36L6.90671 21.44C5.69743 20.5758 4.71203 19.4353 4.03251 18.1134C3.353 16.7915 2.99903 15.3264 3.00005 13.84V5.44002C5.79529 5.67927 8.59477 5.03072 11 3.58669C13.4053 5.03072 16.2048 5.67927 19 5.44002V13.84ZM13.0534 10.7867L9.46671 14.3867L8.28005 13.1867C8.02898 12.9356 7.68845 12.7946 7.33338 12.7946C6.97831 12.7946 6.63779 12.9356 6.38671 13.1867C6.13564 13.4378 5.99459 13.7783 5.99459 14.1334C5.99459 14.4884 6.13564 14.829 6.38671 15.08L8.52005 17.2134C8.644 17.3383 8.79147 17.4375 8.95395 17.5052C9.11642 17.5729 9.2907 17.6078 9.46671 17.6078C9.64273 17.6078 9.817 17.5729 9.97948 17.5052C10.142 17.4375 10.2894 17.3383 10.4134 17.2134L15 12.6667C15.2511 12.4156 15.3922 12.0751 15.3922 11.72C15.3922 11.365 15.2511 11.0244 15 10.7734C14.749 10.5223 14.4084 10.3812 14.0534 10.3812C13.6983 10.3812 13.3578 10.5223 13.1067 10.7734L13.0534 10.7867Z" fill="white"/>
</svg>
