<svg width="30" height="30" viewBox="0 0 30 30" fill="none" xmlns="http://www.w3.org/2000/svg">
<path d="M12.1667 16.4167C11.8865 16.4167 11.6126 16.4998 11.3796 16.6555C11.1467 16.8111 10.9651 17.0324 10.8579 17.2912C10.7507 17.5501 10.7226 17.8349 10.7773 18.1098C10.8319 18.3846 10.9668 18.637 11.165 18.8351C11.3631 19.0332 11.6155 19.1682 11.8903 19.2228C12.1651 19.2775 12.45 19.2494 12.7088 19.1422C12.9677 19.035 13.189 18.8534 13.3446 18.6204C13.5003 18.3875 13.5834 18.1136 13.5834 17.8334C13.5834 17.4577 13.4341 17.0973 13.1684 16.8316C12.9028 16.566 12.5424 16.4167 12.1667 16.4167ZM12.1667 10.75C11.8865 10.75 11.6126 10.8331 11.3796 10.9888C11.1467 11.1445 10.9651 11.3657 10.8579 11.6246C10.7507 11.8834 10.7226 12.1683 10.7773 12.4431C10.8319 12.7179 10.9668 12.9703 11.165 13.1684C11.3631 13.3666 11.6155 13.5015 11.8903 13.5562C12.1651 13.6108 12.45 13.5828 12.7088 13.4755C12.9677 13.3683 13.189 13.1867 13.3446 12.9538C13.5003 12.7208 13.5834 12.4469 13.5834 12.1667C13.5834 11.791 13.4341 11.4307 13.1684 11.165C12.9028 10.8993 12.5424 10.75 12.1667 10.75ZM17.8334 10.75C17.5532 10.75 17.2793 10.8331 17.0463 10.9888C16.8133 11.1445 16.6318 11.3657 16.5245 11.6246C16.4173 11.8834 16.3893 12.1683 16.4439 12.4431C16.4986 12.7179 16.6335 12.9703 16.8316 13.1684C17.0298 13.3666 17.2822 13.5015 17.557 13.5562C17.8318 13.6108 18.1166 13.5828 18.3755 13.4755C18.6344 13.3683 18.8556 13.1867 19.0113 12.9538C19.167 12.7208 19.25 12.4469 19.25 12.1667C19.25 11.791 19.1008 11.4307 18.8351 11.165C18.5694 10.8993 18.2091 10.75 17.8334 10.75ZM27.75 16.4167C28.1258 16.4167 28.4861 16.2675 28.7518 16.0018C29.0175 15.7361 29.1667 15.3758 29.1667 15C29.1667 14.6243 29.0175 14.264 28.7518 13.9983C28.4861 13.7326 28.1258 13.5834 27.75 13.5834H24.9167V10.75H27.75C28.1258 10.75 28.4861 10.6008 28.7518 10.3351C29.0175 10.0694 29.1667 9.7091 29.1667 9.33337C29.1667 8.95765 29.0175 8.59732 28.7518 8.33164C28.4861 8.06596 28.1258 7.91671 27.75 7.91671H24.6617C24.4502 7.32256 24.1091 6.78294 23.6631 6.33698C23.2171 5.89102 22.6775 5.54991 22.0834 5.33837V2.25004C22.0834 1.87432 21.9341 1.51398 21.6684 1.24831C21.4028 0.982629 21.0424 0.833374 20.6667 0.833374C20.291 0.833374 19.9307 0.982629 19.665 1.24831C19.3993 1.51398 19.25 1.87432 19.25 2.25004V5.08337H16.4167V2.25004C16.4167 1.87432 16.2675 1.51398 16.0018 1.24831C15.7361 0.982629 15.3758 0.833374 15 0.833374C14.6243 0.833374 14.264 0.982629 13.9983 1.24831C13.7326 1.51398 13.5834 1.87432 13.5834 2.25004V5.08337H10.75V2.25004C10.75 1.87432 10.6008 1.51398 10.3351 1.24831C10.0694 0.982629 9.7091 0.833374 9.33337 0.833374C8.95765 0.833374 8.59732 0.982629 8.33164 1.24831C8.06596 1.51398 7.91671 1.87432 7.91671 2.25004V5.33837C7.32256 5.54991 6.78294 5.89102 6.33698 6.33698C5.89102 6.78294 5.54991 7.32256 5.33837 7.91671H2.25004C1.87432 7.91671 1.51398 8.06596 1.24831 8.33164C0.982629 8.59732 0.833374 8.95765 0.833374 9.33337C0.833374 9.7091 0.982629 10.0694 1.24831 10.3351C1.51398 10.6008 1.87432 10.75 2.25004 10.75H5.08337V13.5834H2.25004C1.87432 13.5834 1.51398 13.7326 1.24831 13.9983C0.982629 14.264 0.833374 14.6243 0.833374 15C0.833374 15.3758 0.982629 15.7361 1.24831 16.0018C1.51398 16.2675 1.87432 16.4167 2.25004 16.4167H5.08337V19.25H2.25004C1.87432 19.25 1.51398 19.3993 1.24831 19.665C0.982629 19.9307 0.833374 20.291 0.833374 20.6667C0.833374 21.0424 0.982629 21.4028 1.24831 21.6684C1.51398 21.9341 1.87432 22.0834 2.25004 22.0834H5.33837C5.54991 22.6775 5.89102 23.2171 6.33698 23.6631C6.78294 24.1091 7.32256 24.4502 7.91671 24.6617V27.75C7.91671 28.1258 8.06596 28.4861 8.33164 28.7518C8.59732 29.0175 8.95765 29.1667 9.33337 29.1667C9.7091 29.1667 10.0694 29.0175 10.3351 28.7518C10.6008 28.4861 10.75 28.1258 10.75 27.75V24.9167H13.5834V27.75C13.5834 28.1258 13.7326 28.4861 13.9983 28.7518C14.264 29.0175 14.6243 29.1667 15 29.1667C15.3758 29.1667 15.7361 29.0175 16.0018 28.7518C16.2675 28.4861 16.4167 28.1258 16.4167 27.75V24.9167H19.25V27.75C19.25 28.1258 19.3993 28.4861 19.665 28.7518C19.9307 29.0175 20.291 29.1667 20.6667 29.1667C21.0424 29.1667 21.4028 29.0175 21.6684 28.7518C21.9341 28.4861 22.0834 28.1258 22.0834 27.75V24.6617C22.6775 24.4502 23.2171 24.1091 23.6631 23.6631C24.1091 23.2171 24.4502 22.6775 24.6617 22.0834H27.75C28.1258 22.0834 28.4861 21.9341 28.7518 21.6684C29.0175 21.4028 29.1667 21.0424 29.1667 20.6667C29.1667 20.291 29.0175 19.9307 28.7518 19.665C28.4861 19.3993 28.1258 19.25 27.75 19.25H24.9167V16.4167H27.75ZM22.0834 20.6667C22.0834 21.0424 21.9341 21.4028 21.6684 21.6684C21.4028 21.9341 21.0424 22.0834 20.6667 22.0834H9.33337C8.95765 22.0834 8.59732 21.9341 8.33164 21.6684C8.06596 21.4028 7.91671 21.0424 7.91671 20.6667V9.33337C7.91671 8.95765 8.06596 8.59732 8.33164 8.33164C8.59732 8.06596 8.95765 7.91671 9.33337 7.91671H20.6667C21.0424 7.91671 21.4028 8.06596 21.6684 8.33164C21.9341 8.59732 22.0834 8.95765 22.0834 9.33337V20.6667ZM17.8334 16.4167C17.5532 16.4167 17.2793 16.4998 17.0463 16.6555C16.8133 16.8111 16.6318 17.0324 16.5245 17.2912C16.4173 17.5501 16.3893 17.8349 16.4439 18.1098C16.4986 18.3846 16.6335 18.637 16.8316 18.8351C17.0298 19.0332 17.2822 19.1682 17.557 19.2228C17.8318 19.2775 18.1166 19.2494 18.3755 19.1422C18.6344 19.035 18.8556 18.8534 19.0113 18.6204C19.167 18.3875 19.25 18.1136 19.25 17.8334C19.25 17.4577 19.1008 17.0973 18.8351 16.8316C18.5694 16.566 18.2091 16.4167 17.8334 16.4167Z" fill="white"/>
</svg>
