<svg width="28" height="28" viewBox="0 0 28 28" fill="none" xmlns="http://www.w3.org/2000/svg">
<path d="M26.8667 0.986664C26.7214 0.861938 26.5508 0.769987 26.3668 0.717069C26.1827 0.66415 25.9894 0.651506 25.8 0.679997L8.46669 3.34666C8.15104 3.39455 7.86304 3.55412 7.65507 3.79635C7.44709 4.03858 7.33294 4.3474 7.33336 4.66666V18.4667C6.71038 18.1624 6.02667 18.0028 5.33336 18C4.41038 18 3.50812 18.2737 2.74069 18.7865C1.97327 19.2993 1.37513 20.0281 1.02192 20.8808C0.668709 21.7335 0.576293 22.6718 0.756358 23.5771C0.936422 24.4823 1.38088 25.3139 2.03352 25.9665C2.68617 26.6191 3.51769 27.0636 4.42293 27.2437C5.32818 27.4237 6.26649 27.3313 7.11921 26.9781C7.97193 26.6249 8.70077 26.0268 9.21355 25.2593C9.72633 24.4919 10 23.5896 10 22.6667V12.48L24.6667 10.2267V15.8C24.0437 15.4957 23.36 15.3362 22.6667 15.3333C21.7437 15.3333 20.8415 15.607 20.074 16.1198C19.3066 16.6326 18.7085 17.3614 18.3553 18.2141C18.002 19.0669 17.9096 20.0052 18.0897 20.9104C18.2698 21.8157 18.7142 22.6472 19.3669 23.2998C20.0195 23.9525 20.851 24.3969 21.7563 24.577C22.6615 24.7571 23.5998 24.6646 24.4525 24.3114C25.3053 23.9582 26.0341 23.3601 26.5469 22.5927C27.0597 21.8252 27.3334 20.923 27.3334 20V2C27.3334 1.80741 27.2917 1.6171 27.2111 1.44218C27.1305 1.26725 27.013 1.11185 26.8667 0.986664V0.986664ZM5.33336 24.6667C4.93779 24.6667 4.55111 24.5494 4.22222 24.3296C3.89332 24.1098 3.63697 23.7975 3.4856 23.432C3.33422 23.0666 3.29461 22.6644 3.37179 22.2765C3.44896 21.8885 3.63944 21.5322 3.91914 21.2525C4.19885 20.9727 4.55521 20.7823 4.94318 20.7051C5.33114 20.6279 5.73327 20.6675 6.09872 20.8189C6.46417 20.9703 6.77653 21.2266 6.99629 21.5555C7.21606 21.8844 7.33336 22.2711 7.33336 22.6667C7.33336 23.1971 7.12264 23.7058 6.74757 24.0809C6.3725 24.4559 5.86379 24.6667 5.33336 24.6667ZM22.6667 22C22.2711 22 21.8844 21.8827 21.5556 21.6629C21.2267 21.4432 20.9703 21.1308 20.8189 20.7654C20.6676 20.3999 20.6279 19.9978 20.7051 19.6098C20.7823 19.2219 20.9728 18.8655 21.2525 18.5858C21.5322 18.3061 21.8885 18.1156 22.2765 18.0384C22.6645 17.9613 23.0666 18.0009 23.4321 18.1522C23.7975 18.3036 24.1099 18.56 24.3296 18.8889C24.5494 19.2178 24.6667 19.6044 24.6667 20C24.6667 20.5304 24.456 21.0391 24.0809 21.4142C23.7058 21.7893 23.1971 22 22.6667 22ZM24.6667 7.52L10 9.77333V5.77333L24.6667 3.56V7.52Z" fill="white"/>
</svg>
