<svg width="28" height="28" viewBox="0 0 28 28" fill="none" xmlns="http://www.w3.org/2000/svg">
<path d="M14 12.6666C13.6464 12.6666 13.3072 12.8071 13.0572 13.0572C12.8071 13.3072 12.6667 13.6463 12.6667 14V18C12.6667 18.3536 12.8071 18.6927 13.0572 18.9428C13.3072 19.1928 13.6464 19.3333 14 19.3333C14.3536 19.3333 14.6928 19.1928 14.9428 18.9428C15.1929 18.6927 15.3333 18.3536 15.3333 18V14C15.3333 13.6463 15.1929 13.3072 14.9428 13.0572C14.6928 12.8071 14.3536 12.6666 14 12.6666ZM14 8.66663C13.7363 8.66663 13.4785 8.74482 13.2592 8.89133C13.04 9.03784 12.8691 9.24608 12.7682 9.48971C12.6672 9.73335 12.6408 10.0014 12.6923 10.2601C12.7437 10.5187 12.8707 10.7563 13.0572 10.9428C13.2437 11.1292 13.4812 11.2562 13.7399 11.3077C13.9985 11.3591 14.2666 11.3327 14.5102 11.2318C14.7539 11.1309 14.9621 10.96 15.1086 10.7407C15.2551 10.5215 15.3333 10.2637 15.3333 9.99996C15.3333 9.64634 15.1929 9.3072 14.9428 9.05715C14.6928 8.8071 14.3536 8.66663 14 8.66663ZM14 0.666626C12.249 0.666626 10.5152 1.0115 8.89756 1.68157C7.27988 2.35163 5.81003 3.33375 4.57191 4.57187C2.07143 7.07235 0.666671 10.4637 0.666671 14C0.655015 17.0788 1.72106 20.0647 3.68 22.44L1.01334 25.1066C0.828328 25.2941 0.702999 25.5322 0.653167 25.7909C0.603335 26.0495 0.631232 26.3171 0.733338 26.56C0.844082 26.7999 1.02361 27.0015 1.24913 27.1391C1.47466 27.2768 1.73601 27.3444 2 27.3333H14C17.5362 27.3333 20.9276 25.9285 23.4281 23.4281C25.9286 20.9276 27.3333 17.5362 27.3333 14C27.3333 10.4637 25.9286 7.07235 23.4281 4.57187C20.9276 2.07138 17.5362 0.666626 14 0.666626V0.666626ZM14 24.6666H5.21334L6.45334 23.4266C6.57932 23.3031 6.67955 23.1559 6.74821 22.9934C6.81687 22.8309 6.8526 22.6564 6.85334 22.48C6.84833 22.1283 6.70456 21.7928 6.45334 21.5466C4.70745 19.8027 3.62024 17.5073 3.37693 15.0517C3.13361 12.596 3.74926 10.132 5.11897 8.07932C6.48869 6.02668 8.52773 4.51244 10.8887 3.79459C13.2497 3.07674 15.7865 3.1997 18.067 4.14251C20.3474 5.08532 22.2305 6.78966 23.3953 8.96515C24.56 11.1406 24.9345 13.6527 24.4548 16.0733C23.9752 18.4939 22.6711 20.6734 20.7647 22.2403C18.8584 23.8072 16.4677 24.6647 14 24.6666V24.6666Z" fill="white"/>
</svg>
