<svg width="30" height="28" viewBox="0 0 30 28" fill="none" xmlns="http://www.w3.org/2000/svg">
<path d="M24.9166 6.20829H20.6666V4.79163C20.6666 3.66446 20.2189 2.58345 19.4219 1.78642C18.6248 0.989393 17.5438 0.541626 16.4166 0.541626H13.5833C12.4561 0.541626 11.3751 0.989393 10.5781 1.78642C9.78108 2.58345 9.33331 3.66446 9.33331 4.79163V6.20829H5.08331C3.95614 6.20829 2.87514 6.65606 2.07811 7.45309C1.28108 8.25012 0.833313 9.33112 0.833313 10.4583V23.2083C0.833313 24.3355 1.28108 25.4165 2.07811 26.2135C2.87514 27.0105 3.95614 27.4583 5.08331 27.4583H24.9166C26.0438 27.4583 27.1248 27.0105 27.9219 26.2135C28.7189 25.4165 29.1666 24.3355 29.1666 23.2083V10.4583C29.1666 9.33112 28.7189 8.25012 27.9219 7.45309C27.1248 6.65606 26.0438 6.20829 24.9166 6.20829ZM12.1666 4.79163C12.1666 4.4159 12.3159 4.05557 12.5816 3.78989C12.8473 3.52421 13.2076 3.37496 13.5833 3.37496H16.4166C16.7924 3.37496 17.1527 3.52421 17.4184 3.78989C17.6841 4.05557 17.8333 4.4159 17.8333 4.79163V6.20829H12.1666V4.79163ZM26.3333 23.2083C26.3333 23.584 26.1841 23.9444 25.9184 24.21C25.6527 24.4757 25.2924 24.625 24.9166 24.625H5.08331C4.70759 24.625 4.34726 24.4757 4.08158 24.21C3.8159 23.9444 3.66665 23.584 3.66665 23.2083V15.4166C7.27385 16.8477 11.1193 17.5831 15 17.5841C18.8805 17.5817 22.7257 16.8463 26.3333 15.4166V23.2083ZM26.3333 12.3141C22.761 13.8835 18.9018 14.6938 15 14.6938C11.0982 14.6938 7.23892 13.8835 3.66665 12.3141V10.4583C3.66665 10.0826 3.8159 9.72223 4.08158 9.45656C4.34726 9.19088 4.70759 9.04163 5.08331 9.04163H24.9166C25.2924 9.04163 25.6527 9.19088 25.9184 9.45656C26.1841 9.72223 26.3333 10.0826 26.3333 10.4583V12.3141Z" fill="white"/>
</svg>
