<svg width="30" height="28" viewBox="0 0 30 28" fill="none" xmlns="http://www.w3.org/2000/svg">
<path d="M7.94671 11.72C7.76021 11.5319 7.52194 11.4037 7.26228 11.3516C7.00262 11.2995 6.73332 11.3259 6.48873 11.4275C6.24414 11.529 6.03533 11.7011 5.88893 11.9218C5.74253 12.1425 5.66517 12.4018 5.66671 12.6666C5.66437 12.865 5.70633 13.0614 5.78952 13.2414C5.8727 13.4215 5.99502 13.5808 6.14756 13.7076C6.30009 13.8344 6.479 13.9256 6.67125 13.9745C6.86349 14.0234 7.06422 14.0288 7.25882 13.9903C7.45341 13.9518 7.63695 13.8703 7.79608 13.7519C7.9552 13.6334 8.08589 13.481 8.17862 13.3056C8.27135 13.1302 8.32379 12.9364 8.33211 12.7382C8.34043 12.54 8.30442 12.3425 8.22671 12.16C8.16325 11.9963 8.06809 11.8468 7.94671 11.72ZM11.3867 8.27996C11.5113 8.40353 11.659 8.5013 11.8215 8.56765C11.9839 8.63401 12.1579 8.66764 12.3334 8.66663C12.5088 8.66764 12.6828 8.63401 12.8452 8.56765C13.0077 8.5013 13.1555 8.40353 13.28 8.27996C13.3978 8.15036 13.4925 8.00154 13.56 7.83996C13.6284 7.67966 13.6646 7.50753 13.6667 7.33329C13.6618 6.98027 13.5237 6.64214 13.28 6.38663L13.08 6.22663L12.84 6.10663C12.7624 6.05672 12.6767 6.02063 12.5867 5.99996C12.3725 5.95707 12.151 5.96747 11.9418 6.03024C11.7325 6.09301 11.5419 6.20624 11.3867 6.35996C11.2653 6.48676 11.1702 6.63629 11.1067 6.79996C11.0362 6.95956 10.9997 7.13213 10.9997 7.30663C10.9997 7.48112 11.0362 7.65369 11.1067 7.81329C11.1715 7.9843 11.2663 8.14234 11.3867 8.27996ZM7.74671 6.22663C7.67238 6.17616 7.59167 6.13581 7.50671 6.10663L7.26671 5.99996C7.05047 5.95475 6.82639 5.96399 6.6146 6.02682C6.40282 6.08966 6.20996 6.20414 6.05337 6.35996C5.93199 6.48676 5.83683 6.63629 5.77337 6.79996C5.70283 6.95956 5.6664 7.13213 5.6664 7.30663C5.6664 7.48112 5.70283 7.65369 5.77337 7.81329C5.8409 7.97487 5.9356 8.12369 6.05337 8.25329C6.18297 8.37107 6.33179 8.46577 6.49337 8.53329C6.64935 8.61717 6.82299 8.66286 7.00004 8.66663C7.17552 8.66764 7.34947 8.63401 7.51192 8.56765C7.67437 8.5013 7.82212 8.40353 7.94671 8.27996C8.06448 8.15036 8.15918 8.00154 8.22671 7.83996C8.29503 7.67966 8.33127 7.50753 8.33337 7.33329C8.32846 6.98027 8.19035 6.64214 7.94671 6.38663L7.74671 6.22663ZM15.9467 22.3866C15.8228 22.2617 15.6753 22.1625 15.5128 22.0948C15.3503 22.0271 15.1761 21.9922 15 21.9922C14.824 21.9922 14.6497 22.0271 14.4873 22.0948C14.3248 22.1625 14.1773 22.2617 14.0534 22.3866L11.3867 25.0533C11.2624 25.1776 11.1638 25.3252 11.0965 25.4876C11.0292 25.6501 10.9946 25.8241 10.9946 26C10.9946 26.1758 11.0292 26.3499 11.0965 26.5123C11.1638 26.6747 11.2624 26.8223 11.3867 26.9466C11.6378 27.1977 11.9783 27.3387 12.3334 27.3387C12.5092 27.3387 12.6833 27.3041 12.8457 27.2368C13.0081 27.1696 13.1557 27.0709 13.28 26.9466L15 25.2133L16.72 26.9466C16.844 27.0716 16.9915 27.1708 17.1539 27.2385C17.3164 27.3062 17.4907 27.341 17.6667 27.341C17.8427 27.341 18.017 27.3062 18.1795 27.2385C18.342 27.1708 18.4894 27.0716 18.6134 26.9466C18.7383 26.8227 18.8375 26.6752 18.9052 26.5127C18.9729 26.3503 19.0078 26.176 19.0078 26C19.0078 25.8239 18.9729 25.6497 18.9052 25.4872C18.8375 25.3247 18.7383 25.1772 18.6134 25.0533L15.9467 22.3866ZM23.9467 11.72C23.8228 11.595 23.6753 11.4958 23.5128 11.4281C23.3503 11.3604 23.1761 11.3256 23 11.3256C22.824 11.3256 22.6497 11.3604 22.4873 11.4281C22.3248 11.4958 22.1773 11.595 22.0534 11.72C21.932 11.8468 21.8368 11.9963 21.7734 12.16C21.6764 12.4023 21.6526 12.6677 21.7051 12.9234C21.7575 13.179 21.8839 13.4137 22.0684 13.5983C22.253 13.7828 22.4876 13.9091 22.7433 13.9616C22.999 14.014 23.2644 13.9903 23.5067 13.8933C23.6683 13.8258 23.8171 13.7311 23.9467 13.6133C24.0703 13.4887 24.168 13.341 24.2344 13.1785C24.3008 13.0161 24.3344 12.8421 24.3334 12.6666C24.3379 12.4917 24.3013 12.3182 24.2267 12.16C24.1632 11.9963 24.0681 11.8468 23.9467 11.72ZM17.6667 11.3333H12.3334C11.9798 11.3333 11.6406 11.4738 11.3906 11.7238C11.1405 11.9739 11 12.313 11 12.6666C11 13.0202 11.1405 13.3594 11.3906 13.6094C11.6406 13.8595 11.9798 14 12.3334 14H17.6667C18.0203 14 18.3595 13.8595 18.6095 13.6094C18.8596 13.3594 19 13.0202 19 12.6666C19 12.313 18.8596 11.9739 18.6095 11.7238C18.3595 11.4738 18.0203 11.3333 17.6667 11.3333ZM25.6667 0.666626H4.33337C3.27251 0.666626 2.25509 1.08805 1.50495 1.8382C0.754801 2.58834 0.333374 3.60576 0.333374 4.66663V15.3333C0.333374 16.3942 0.754801 17.4116 1.50495 18.1617C2.25509 18.9119 3.27251 19.3333 4.33337 19.3333H25.6667C26.7276 19.3333 27.745 18.9119 28.4951 18.1617C29.2453 17.4116 29.6667 16.3942 29.6667 15.3333V4.66663C29.6667 3.60576 29.2453 2.58834 28.4951 1.8382C27.745 1.08805 26.7276 0.666626 25.6667 0.666626ZM27 15.3333C27 15.6869 26.8596 16.0261 26.6095 16.2761C26.3595 16.5262 26.0203 16.6666 25.6667 16.6666H4.33337C3.97975 16.6666 3.64061 16.5262 3.39056 16.2761C3.14052 16.0261 3.00004 15.6869 3.00004 15.3333V4.66663C3.00004 4.313 3.14052 3.97387 3.39056 3.72382C3.64061 3.47377 3.97975 3.33329 4.33337 3.33329H25.6667C26.0203 3.33329 26.3595 3.47377 26.6095 3.72382C26.8596 3.97387 27 4.313 27 4.66663V15.3333ZM22.4934 6.10663C22.3285 6.16771 22.1785 6.26316 22.0534 6.38663C21.8097 6.64214 21.6716 6.98027 21.6667 7.33329C21.6688 7.50753 21.7051 7.67966 21.7734 7.83996C21.8409 8.00154 21.9356 8.15036 22.0534 8.27996C22.178 8.40353 22.3257 8.5013 22.4882 8.56765C22.6506 8.63401 22.8246 8.66764 23 8.66663C23.1755 8.66764 23.3495 8.63401 23.5119 8.56765C23.6744 8.5013 23.8221 8.40353 23.9467 8.27996C24.0645 8.15036 24.1592 8.00154 24.2267 7.83996C24.295 7.67966 24.3313 7.50753 24.3334 7.33329C24.3285 6.98027 24.1903 6.64214 23.9467 6.38663C23.7592 6.20162 23.5211 6.07629 23.2625 6.02646C23.0038 5.97662 22.7362 6.00452 22.4934 6.10663ZM18.4134 6.22663L18.1734 6.10663L17.9334 5.99996C17.6734 5.94921 17.4041 5.97706 17.16 6.07996C16.9952 6.14105 16.8452 6.23649 16.72 6.35996C16.5987 6.48676 16.5035 6.63629 16.44 6.79996C16.3695 6.95956 16.3331 7.13213 16.3331 7.30663C16.3331 7.48112 16.3695 7.65369 16.44 7.81329C16.5076 7.97487 16.6023 8.12369 16.72 8.25329C16.8424 8.38169 16.9892 8.48439 17.1517 8.55536C17.3143 8.62633 17.4894 8.66416 17.6667 8.66663C17.8422 8.66764 18.0161 8.63401 18.1786 8.56765C18.341 8.5013 18.4888 8.40353 18.6134 8.27996C18.7311 8.15036 18.8259 8.00154 18.8934 7.83996C18.9617 7.67966 18.9979 7.50753 19 7.33329C18.9951 6.98027 18.857 6.64214 18.6134 6.38663L18.4134 6.22663Z" fill="white"/>
</svg>
