<svg width="30" height="30" viewBox="0 0 30 30" fill="none" xmlns="http://www.w3.org/2000/svg">
<path d="M20.2558 16.1738C21.6447 15.0811 22.6585 13.5826 23.1561 11.8869C23.6537 10.1912 23.6104 8.38252 23.0322 6.71256C22.454 5.0426 21.3697 3.59437 19.9301 2.56936C18.4905 1.54435 16.7672 0.99353 15 0.99353C13.2328 0.99353 11.5095 1.54435 10.0699 2.56936C8.6303 3.59437 7.54598 5.0426 6.9678 6.71256C6.38961 8.38252 6.3463 10.1912 6.84391 11.8869C7.34151 13.5826 8.35527 15.0811 9.74416 16.1738C7.36427 17.1273 5.28774 18.7087 3.73593 20.7495C2.18412 22.7903 1.21521 25.214 0.932495 27.7621C0.912031 27.9482 0.92841 28.1364 0.980698 28.3161C1.03299 28.4959 1.12016 28.6635 1.23724 28.8095C1.47369 29.1044 1.81761 29.2933 2.19333 29.3346C2.56905 29.376 2.94581 29.2664 3.24071 29.0299C3.53561 28.7935 3.7245 28.4495 3.76583 28.0738C4.07691 25.3045 5.39738 22.7469 7.47497 20.8896C9.55256 19.0323 12.2416 18.0056 15.0283 18.0056C17.8151 18.0056 20.5041 19.0323 22.5817 20.8896C24.6593 22.7469 25.9797 25.3045 26.2908 28.0738C26.3293 28.4219 26.4954 28.7434 26.7571 28.9763C27.0187 29.2091 27.3573 29.3368 27.7075 29.3346H27.8633C28.2347 29.2919 28.5741 29.1041 28.8076 28.8123C29.0411 28.5204 29.1498 28.148 29.11 27.7763C28.8259 25.2209 27.8518 22.791 26.292 20.7471C24.7322 18.7032 22.6456 17.1222 20.2558 16.1738ZM15 15.168C13.8792 15.168 12.7836 14.8356 11.8518 14.213C10.9199 13.5903 10.1936 12.7053 9.76468 11.6699C9.33578 10.6344 9.22356 9.49503 9.44221 8.3958C9.66086 7.29658 10.2006 6.28687 10.9931 5.49438C11.7856 4.70188 12.7953 4.16218 13.8945 3.94353C14.9937 3.72488 16.1331 3.8371 17.1685 4.266C18.204 4.6949 19.089 5.42121 19.7117 6.35308C20.3343 7.28496 20.6667 8.38056 20.6667 9.50132C20.6667 11.0042 20.0696 12.4455 19.0069 13.5083C17.9442 14.571 16.5029 15.168 15 15.168Z" fill="white"/>
</svg>
