<svg width="30" height="22" viewBox="0 0 30 22" fill="none" xmlns="http://www.w3.org/2000/svg">
<path d="M7.91671 14.418H12.1667C12.5424 14.418 12.9028 14.2687 13.1684 14.003C13.4341 13.7374 13.5834 13.377 13.5834 13.0013C13.5834 12.6256 13.4341 12.2653 13.1684 11.9996C12.9028 11.7339 12.5424 11.5846 12.1667 11.5846H7.91671C7.54098 11.5846 7.18065 11.7339 6.91497 11.9996C6.6493 12.2653 6.50004 12.6256 6.50004 13.0013C6.50004 13.377 6.6493 13.7374 6.91497 14.003C7.18065 14.2687 7.54098 14.418 7.91671 14.418ZM24.9167 0.251312H5.08337C3.9562 0.251312 2.8752 0.699079 2.07817 1.49611C1.28114 2.29314 0.833374 3.37414 0.833374 4.50131V17.2513C0.833374 18.3785 1.28114 19.4595 2.07817 20.2565C2.8752 21.0535 3.9562 21.5013 5.08337 21.5013H24.9167C26.0439 21.5013 27.1249 21.0535 27.9219 20.2565C28.7189 19.4595 29.1667 18.3785 29.1667 17.2513V4.50131C29.1667 3.37414 28.7189 2.29314 27.9219 1.49611C27.1249 0.699079 26.0439 0.251312 24.9167 0.251312ZM26.3334 17.2513C26.3334 17.627 26.1841 17.9874 25.9184 18.253C25.6528 18.5187 25.2924 18.668 24.9167 18.668H5.08337C4.70765 18.668 4.34732 18.5187 4.08164 18.253C3.81596 17.9874 3.66671 17.627 3.66671 17.2513V8.75131H26.3334V17.2513ZM26.3334 5.91798H3.66671V4.50131C3.66671 4.12559 3.81596 3.76525 4.08164 3.49958C4.34732 3.2339 4.70765 3.08465 5.08337 3.08465H24.9167C25.2924 3.08465 25.6528 3.2339 25.9184 3.49958C26.1841 3.76525 26.3334 4.12559 26.3334 4.50131V5.91798Z" fill="white"/>
</svg>
